<svg width="349" height="269" viewBox="0 0 349 269" fill="none" xmlns="http://www.w3.org/2000/svg">
  <path fill-rule="evenodd" clip-rule="evenodd"
    d="M172.418 263.514C154.057 260.231 138.191 249.035 119.64 247.104C90.4308 244.063 47.6928 274.312 32.667 248.966C16.2989 221.356 75.2261 192.252 68.4976 160.835C61.9011 130.035 4.28444 128.769 0.233628 97.5272C-3.11913 71.6697 30.3622 54.0929 53.0038 41.3412C73.2949 29.9134 97.6536 30.0402 120.911 29.562C138.574 29.1988 155.117 42.4817 172.418 38.886C195.893 34.007 211.354 5.48698 235.324 5.78254C258.009 6.06226 292.755 17.5844 293.04 40.3733C293.461 73.9537 224.678 90.945 236.784 122.249C251.667 160.736 325.169 141.036 345.781 176.758C359.031 199.72 328.4 228.781 307.953 245.588C288.064 261.936 260.567 264.372 235.089 267.741C214.067 270.522 193.293 267.245 172.418 263.514Z"
    fill="url(#paint0_linear_5_2375)" />
  <path
    d="M211.231 8.12842C211.231 8.12842 229.702 12.5819 237.015 21.1767C244.328 29.7714 241.814 51.9238 239.907 64.6763C238.001 77.4287 232.89 86.6479 238.938 91.1014C244.985 95.5549 247.154 91.4301 247.154 91.4301C247.154 91.4301 238.938 105.431 230.277 107.354C221.617 109.277 209.571 98.4308 207.665 88.8829C205.758 79.335 204.477 64.9885 206.021 55.1119C207.566 45.2354 210.59 41.8829 212.118 35.1945C213.646 28.506 212.43 17.3641 212.43 17.3641L211.231 8.12842Z"
    fill="#3B2645" />
  <path
    d="M184.478 249.718C221.417 249.718 251.362 224.621 251.362 193.663C251.362 162.705 221.417 137.608 184.478 137.608C147.538 137.608 117.593 162.705 117.593 193.663C117.593 224.621 147.538 249.718 184.478 249.718Z"
    fill="#AB8DA8" />
  <path
    d="M127.749 61.8497L126.287 60.8802L119.467 50.6585L124.923 39.648L137.182 38.8428L138.645 39.8288L127.749 61.8497Z"
    fill="#393762" />
  <path
    d="M140.008 61.0608L127.749 61.8496L120.929 51.6279L126.368 40.6174L138.644 39.8286L145.448 50.0503L140.008 61.0608Z"
    fill="#636183" />
  <path
    d="M169.523 57.199C166.458 60.5804 163.84 64.3416 161.734 68.3902C157.593 75.9497 147.125 86.4671 145.185 88.6035C144.272 89.7523 143.101 90.6699 141.767 91.2822C139.921 85.8762 138.46 80.3461 137.396 74.7336C136.426 68.1602 134.964 55.2434 134.964 55.2434L138.858 47.4539C138.858 47.4539 135.687 41.1105 134.471 40.6504C133.255 40.1902 130.822 40.8805 127.174 44.0521C123.526 47.2238 122.047 50.3791 123.756 54.2574C125.465 58.1357 129.113 62.0469 128.686 68.3738C128.259 74.7007 128.456 96.8696 130.642 104.166C132.827 111.463 132.597 111.479 135.572 111.479C138.546 111.479 147.075 107.814 156.032 103.262C161.277 100.642 165.73 96.6713 168.932 91.7587L169.523 57.199Z"
    fill="#FFEDE5" />
  <path
    d="M188.027 53.3146C183.94 52.62 179.76 52.698 175.702 53.5447C169.654 55.0073 166.516 58.8692 165.299 65.8863C164.083 72.9034 159.745 81.6132 162.654 88.1866C165.562 94.76 168.208 99.8052 168.455 105.113C168.573 110.18 168.337 115.248 167.748 120.281C167.267 121.287 166.718 122.259 166.105 123.19C166.105 123.19 165.612 127.052 153.517 123.667C141.422 120.281 125.958 121.251 110.001 124.883C94.0436 128.515 85.5803 131.456 84.8572 136.731C84.1342 142.007 84.1342 174.923 85.5803 184.602C86.3936 191.119 86.233 197.721 85.1037 204.191C81.0959 206.98 76.7982 209.327 72.2856 211.192C65.515 213.854 61.6531 215.3 62.8527 217.765C64.0524 220.23 68.6538 220.674 74.4548 220.674C80.2558 220.674 88.2426 220.197 88.2426 220.197C88.2426 220.197 80.9954 224.782 76.1475 227.921C71.2996 231.06 66.731 231.799 68.9003 235.185C71.0695 238.57 91.9072 237.6 96.9523 237.6C101.997 237.6 107.831 235.661 108.308 233.492C108.784 231.323 106.862 223.813 106.862 220.92C106.862 218.028 106.139 205.193 109.031 199.392C111.923 193.591 116.295 176.665 116.048 170.141C115.802 163.617 115.325 159.508 115.325 159.508C115.325 159.508 143.098 163.321 153.944 167.183C164.79 171.045 188.997 174.2 200.369 168.645C211.741 163.091 216.326 156.304 214.633 146.641C212.94 136.978 208.339 130.684 209.555 119.312C210.771 107.94 210.755 96.8307 213.663 91.2761C216.572 85.7216 223.096 75.7957 222.603 69.2716C222.11 62.7475 210.032 56.1248 203.984 53.7912C197.936 51.4576 188.027 53.3146 188.027 53.3146Z"
    fill="#FFEDE5" />
  <path
    d="M84.7918 137.313C84.0687 142.621 84.0687 175.505 85.5149 185.184C86.3282 191.701 86.1676 198.303 85.0383 204.773C81.0305 207.562 76.7328 209.909 72.2201 211.773C65.4495 214.436 61.5876 215.882 62.7873 218.347C63.9869 220.812 68.5883 221.256 74.3894 221.256C79.3194 221.256 85.7778 220.91 87.6348 220.795C88.8016 220.417 91.0859 219.612 91.0859 219.152C91.0859 218.692 93.0086 201.075 93.2551 184.083C93.5016 167.091 95.4408 147.469 95.4408 147.469L93.2715 138.759C91.2813 136.89 89.1374 135.191 86.8624 133.681C85.7567 134.602 85.0213 135.892 84.7918 137.313Z"
    fill="#FFEDE5" />
  <path
    d="M90.5928 212.743C90.5928 212.743 89.8698 211.099 88.6537 207.911C88.4395 207.084 87.9793 206.341 87.3337 205.78C86.6882 205.22 85.8878 204.868 85.0383 204.772C81.0305 207.561 76.7328 209.909 72.2201 211.773C65.4495 214.435 61.5876 215.882 62.7873 218.347C63.9869 220.812 68.5883 221.255 74.3894 221.255C79.3194 221.255 85.7778 220.91 87.6348 220.795C88.8016 220.417 91.0859 219.612 91.0859 219.152C91.0859 218.889 91.3159 216.522 91.6446 212.858L90.5928 212.743Z"
    fill="#3B2645" />
  <path
    d="M183.919 131.742C177.692 128.464 172.27 123.844 168.044 118.217C167.913 119.647 167.798 120.649 167.732 120.863C167.251 121.869 166.702 122.84 166.089 123.771C166.089 123.771 165.596 127.633 153.501 124.248C141.406 120.863 125.942 121.832 109.985 125.464C94.0276 129.096 85.5644 132.037 84.8413 137.313C84.8413 137.559 84.8413 137.871 84.7427 138.233C85.6736 139.59 86.6775 140.896 87.75 142.144C89.8555 144.503 92.4915 146.328 95.4409 147.469C96.1804 150.854 100.765 161.486 107.536 161.486C114.307 161.486 115.276 160.04 115.276 160.04C115.276 160.04 143.098 163.902 153.944 167.764C164.791 171.626 188.997 174.781 200.369 169.227C211.741 163.672 216.326 156.885 214.633 147.222C213.882 143.509 212.877 139.853 211.626 136.277C204.264 136.672 192.399 136.425 183.919 131.742Z"
    fill="#3B2645" />
  <path
    d="M167.748 120.863C167.267 121.869 166.718 122.841 166.105 123.771C166.105 123.771 165.612 127.633 153.517 124.248C141.422 120.863 125.958 121.832 110.001 125.464C94.0437 129.096 85.5804 132.038 84.8573 137.313C84.7094 138.381 84.5944 140.599 84.5122 143.442C87.6916 145.808 91.4862 147.206 95.4405 147.469C97.1703 144.482 99.6666 142.011 102.671 140.312C105.676 138.613 109.08 137.748 112.531 137.806C124.758 137.806 176.441 138.759 176.441 138.759L183.344 123.032C183.344 123.032 175.127 117.231 168.373 113.451C168.159 117.165 167.863 120.452 167.748 120.863Z"
    fill="#3B2645" />
  <path
    d="M209.653 122.128C210.278 119.45 222.603 105.284 223.836 100.354C225.068 95.4237 229.587 80.4198 225.479 71.7922C221.37 63.1646 216.227 61.1104 216.227 61.1104C212.452 58.3358 208.344 56.0447 204 54.2905C197.969 51.8748 188.043 53.8139 188.043 53.8139C183.957 53.1192 179.776 53.1973 175.718 54.044C169.671 55.5066 166.532 59.3685 165.316 66.3856C164.1 73.4027 159.745 82.1947 162.653 88.7681C165.562 95.3415 168.208 100.387 168.454 105.695C168.573 110.761 168.337 115.829 167.748 120.863C167.267 121.869 166.718 122.841 166.104 123.772V123.87C167.896 127.568 172.004 135.374 176.523 138.759C180.766 138.889 184.845 140.42 188.125 143.114C193.055 147.469 199.021 148.422 205.545 148.422C208.641 148.298 211.705 147.745 214.649 146.779C213.006 138.167 209.21 132.169 209.473 122.67C209.569 122.504 209.63 122.319 209.653 122.128Z"
    fill="#AB8DA8" />
  <path
    d="M207.024 39.2866C207.024 39.2866 213.088 29.9688 214.058 21.9986C215.027 14.0283 213.581 6.60032 204.871 1.93319C196.162 -2.73394 183.343 1.93319 179.481 6.60032C175.62 11.2674 176.096 20.1416 175.127 22.0807C174.157 24.0199 169.802 27.1587 170.295 28.3748C170.788 29.5909 173.927 31.2506 173.927 31.2506L175.57 38.7443C176.047 40.93 177.493 43.8223 179.186 43.8223C181.486 43.5824 183.77 43.1982 186.022 42.672C186.022 42.672 186.499 50.2314 185.069 53.2716C183.146 57.38 173.237 81.9974 177.592 84.4953C181.946 86.9932 200.369 67.6674 205.677 63.559C210.985 59.4506 204.033 54.3726 204.033 54.3726C204.033 54.3726 201.65 54.274 202.62 48.2265C203.045 44.8374 204.596 41.6893 207.024 39.2866Z"
    fill="#FFEDE5" />
  <path
    d="M96.8869 238.133C101.965 238.133 107.766 236.194 108.243 234.025C108.637 232.283 107.487 227.172 106.994 223.688C105.993 224.046 104.948 224.268 103.888 224.345C101.293 224.434 98.6971 224.191 96.1639 223.622C96.1065 222.621 95.8612 221.64 95.4408 220.73C94.7177 219.086 91.1023 219.086 91.1023 219.086L87.109 220.828H88.1936C88.1936 220.828 80.9464 225.413 76.0985 228.552C71.2506 231.691 66.6821 232.43 68.8513 235.816C71.0205 239.201 91.809 238.133 96.8869 238.133Z"
    fill="#3B2645" />
  <path
    d="M217.18 23.675C218.133 15.7047 213.581 6.60049 204.872 1.93337C197.592 -1.91208 187.468 0.684416 182.045 4.31623C183.129 4.51255 184.105 5.09669 184.79 5.95959C188.29 9.7886 186.433 16.7893 189.572 19.9774C192.711 23.1655 194.338 22.2124 194.338 22.2124C194.338 22.2124 197.854 16.4771 199.432 22.2124C201.01 27.9477 198.808 30.4291 197.214 31.1194C196.079 31.5463 194.907 31.8654 193.713 32.0725C193.713 32.0725 202.259 39.6155 207.024 39.3526C207.024 39.2868 216.211 31.6617 217.18 23.675Z"
    fill="#3B2645" />
  <path
    d="M131.94 65.3009L130.494 64.3149L123.674 54.0932L129.113 43.0828L141.373 42.2939L142.835 43.2635L131.94 65.3009Z"
    fill="#393762" />
  <path
    d="M144.215 64.4953L131.939 65.3006L125.136 55.0625L130.575 44.052L142.835 43.2632L149.655 53.4849L144.215 64.4953Z"
    fill="#636183" />
  <path
    d="M229.521 156.885C227.814 152.865 226.824 148.577 226.596 144.215C226.596 139.761 221.485 128.274 221.485 125.727C222.177 115.72 223.406 105.758 225.166 95.8837C227.96 86.4837 227.73 76.3113 225.479 71.7921C223.227 67.2729 214.172 68.0946 211.707 75.4896C209.242 82.8847 209.39 97.2312 209.39 97.2312C208.569 103.673 208.01 118.036 207.747 126.664C207.566 134.338 209.193 142.078 212.874 147.6C218.084 155.422 220.549 165.677 222.143 165.677C223.737 165.677 232.184 164.625 232.184 164.625C232.184 164.625 232.627 163.754 229.521 156.885Z"
    fill="#FFEDE5" />
  <path
    d="M234.074 173.007C234.074 173.007 235.718 164.1 235.356 162.177C234.995 160.254 229.621 161.553 227.386 161.553C225.151 161.553 223.573 161.224 223.886 162.506C224.198 163.788 228.668 164.149 228.668 164.149L230.311 164.774L234.074 173.007Z"
    fill="#FFEDE5" />
  <path d="M245.002 166.696H212.2V171.149H245.002V166.696Z" fill="#636183" />
  <path d="M257.097 156.836H242.767V180.402H257.097V156.836Z" fill="#636183" />
  <path d="M212.825 156.836H198.495V180.402H212.825V156.836Z" fill="#636183" />
  <path
    d="M218.248 163.196L220.039 171.938C220.157 172.522 220.48 173.044 220.951 173.409C221.422 173.774 222.008 173.958 222.603 173.927C224.838 173.795 228.305 173.598 230.343 173.384C233.531 173.072 234.484 174.025 234.813 171.741C234.961 170.591 235.207 168.454 235.421 166.647C235.464 166.251 235.421 165.85 235.295 165.473C235.17 165.095 234.964 164.749 234.693 164.457C234.422 164.166 234.091 163.936 233.723 163.784C233.356 163.631 232.96 163.559 232.562 163.574C230.08 163.574 226.958 163.771 226.202 163.771C224.936 163.836 220.795 160.336 218.248 163.196Z"
    fill="#FFEDE5" />
  <defs>
    <linearGradient id="paint0_linear_5_2375" x1="1.71951e-05" y1="5.78028" x2="463.048" y2="53.3279"
      gradientUnits="userSpaceOnUse">
      <stop stop-color="#92A3FD" />
      <stop offset="1" stop-color="#9DCEFF" />
    </linearGradient>
  </defs>
</svg>
