<svg width="50" height="50" viewBox="0 0 50 50" fill="none" xmlns="http://www.w3.org/2000/svg">
  <circle opacity="0.3" cx="25" cy="25" r="25" fill="url(#paint0_linear_57_6587)" />
  <mask id="mask0_57_6587" style="mask-type:alpha" maskUnits="userSpaceOnUse" x="0" y="0" width="50" height="50">
    <circle cx="25" cy="25" r="25" fill="#C4C4C4" />
  </mask>
  <g mask="url(#mask0_57_6587)">
    <path
      d="M24.2965 61.0663C23.44 61.0678 22.5858 60.9769 21.7487 60.7952C20.2855 60.4937 18.9072 59.8704 17.713 58.9703C16.5189 58.0702 15.5387 56.9157 14.843 55.5899C14.2909 54.3498 13.8809 53.0509 13.6206 51.7181L13.5605 51.4643C12.7027 47.799 11.6218 43.9229 9.62729 40.4211C9.3056 39.8576 8.95388 39.294 8.61504 38.752C7.79526 37.5246 7.10117 36.2174 6.54334 34.8501C5.68549 32.5055 5.8442 30.1739 7.01515 28.6381C7.1694 28.3995 7.3701 28.1946 7.60521 28.0356C7.84033 27.8767 8.10502 27.767 8.38342 27.7131C8.55306 27.6926 8.72511 27.7072 8.8889 27.756C9.05269 27.8048 9.20474 27.8869 9.33563 27.9971C9.43773 28.0787 9.52146 28.1811 9.58133 28.2975C9.64121 28.4139 9.67587 28.5417 9.68305 28.6725H9.40425C9.39754 28.5813 9.37195 28.4925 9.32912 28.4117C9.28629 28.331 9.22715 28.2601 9.15548 28.2036C9.05364 28.1187 8.93589 28.0552 8.80918 28.0168C8.68247 27.9784 8.54937 27.9658 8.41773 27.9799C7.9345 28.0903 7.51216 28.383 7.23819 28.7972C6.12728 30.2642 5.95143 32.4883 6.80927 34.7426C7.36238 36.1001 8.05223 37.3974 8.8681 38.6143C9.20695 39.1607 9.55867 39.7242 9.88465 40.2921C11.8834 43.8197 12.9772 47.7173 13.835 51.4041L13.8951 51.6579C14.1499 52.9686 14.5528 54.2459 15.0961 55.4651C15.7721 56.7535 16.725 57.8752 17.8858 58.7494C19.0466 59.6235 20.3865 60.2283 21.8087 60.5199C24.6845 61.0915 27.6682 60.6859 30.2885 59.367C31.3377 58.898 32.2849 58.2272 33.0765 57.3924C33.8818 56.4148 34.5024 55.2981 34.908 54.0971C35.6243 52.2128 36.1948 50.2253 36.7095 48.3109C37.503 45.4544 38.3222 42.499 39.7119 39.8232C40.1409 39.0402 40.5698 38.2702 41.0244 37.5259C41.8758 36.1902 42.5941 34.7738 43.169 33.2971C43.6623 31.8947 43.6838 30.7159 43.2377 29.8555C43.0811 29.5686 42.8635 29.3197 42.6004 29.1264C42.3373 28.9331 42.035 28.8002 41.715 28.737C41.4916 28.684 41.259 28.684 41.0356 28.7371C40.8122 28.7901 40.6042 28.8947 40.4282 29.0425L40.2438 28.8317C40.4507 28.6541 40.6961 28.5274 40.9605 28.4617C41.2248 28.3959 41.5008 28.393 41.7665 28.4531C42.1295 28.5283 42.4716 28.6829 42.7682 28.906C43.0648 29.1291 43.3086 29.4151 43.4822 29.7437C43.9668 30.6901 43.9454 31.9205 43.4264 33.4003C42.8455 34.8957 42.1155 36.3283 41.2475 37.6765C40.8186 38.4207 40.3467 39.1865 39.9607 39.9608C38.5882 42.6108 37.7732 45.5534 36.984 48.3927C36.4478 50.32 35.8945 52.3118 35.1696 54.2046C34.755 55.4388 34.1182 56.5864 33.291 57.5903C32.4733 58.4517 31.4956 59.1444 30.4129 59.6294C28.5065 60.5602 26.4166 61.0511 24.2965 61.0663Z"
      fill="url(#paint1_linear_57_6587)" />
    <path
      d="M27.4447 10.9743C27.6665 10.6212 27.7935 10.2167 27.8136 9.79984C27.8378 9.61264 27.8207 9.4224 27.7637 9.24252C27.7066 9.06265 27.6109 8.89751 27.4833 8.75877C27.3761 8.65552 27.2431 8.57378 27.1444 8.46193C27.0458 8.35008 26.9986 8.23393 26.9171 8.12638C26.8288 8.011 26.7151 7.9176 26.5849 7.85343C26.4547 7.78927 26.3115 7.75607 26.1665 7.75641C25.8705 7.75641 25.5574 7.89407 25.3087 7.75641C25.1542 7.67897 25.0513 7.5241 24.8797 7.43806C24.7183 7.35564 24.533 7.33279 24.3564 7.37353C24.2022 7.42749 24.0393 7.45229 23.876 7.44667C23.6444 7.41225 23.4857 7.20576 23.2798 7.0896C23.174 7.03533 23.0576 7.00494 22.9388 7.00055C22.8201 6.99617 22.7018 7.01789 22.5922 7.06421C22.4827 7.11053 22.3846 7.18032 22.3048 7.26868C22.225 7.35704 22.1655 7.46184 22.1303 7.57573C22.1024 7.68436 22.1024 7.79834 22.1303 7.90698C22.1775 8.1694 22.3577 8.38019 22.3705 8.64261C22.3834 8.90503 22.2247 9.13304 22.3705 9.36534C22.5164 9.59765 22.7308 9.60625 22.8338 9.82565C22.971 10.1225 22.8338 10.5097 22.9582 10.828C23.0225 11.0302 23.0568 11.3184 23.2455 11.4475C23.5072 11.6282 24.0776 11.4776 24.3908 11.4475L25.6046 11.3485C26.1408 11.2969 26.8013 11.3485 27.286 11.0818C27.3445 11.0551 27.3982 11.0188 27.4447 10.9743Z"
      fill="#3B2645" />
    <path
      d="M23.3271 10.7851C23.2845 10.7264 23.2287 10.6787 23.1642 10.6458C23.0997 10.6129 23.0284 10.5957 22.9561 10.5957C22.8837 10.5957 22.8124 10.6129 22.7479 10.6458C22.6834 10.6787 22.6276 10.7264 22.585 10.7851C22.2119 11.2153 22.8424 12.0757 23.3271 12.1273C23.3553 11.6803 23.3553 11.232 23.3271 10.7851Z"
      fill="#E0855C" />
    <path
      d="M29.3534 17.9906C29.2404 18.7153 29.0886 19.4333 28.8988 20.1416C28.8687 20.275 28.843 20.404 28.8259 20.5288C28.8087 20.6536 28.7915 20.7482 28.7701 20.9074C28.7701 20.9375 28.7701 20.9719 28.7701 21.002C28.7701 21.1053 28.7401 21.2128 28.7272 21.329L28.1868 26.3838C24.8283 27.3087 21.324 26.3838 21.324 26.3838C21.324 26.3838 21.324 26.3192 21.324 26.1945C21.2682 25.6223 21.0967 23.8026 20.9251 21.7506C20.9251 21.7506 20.9251 21.7204 20.9251 21.7075C20.9268 21.676 20.9268 21.6444 20.9251 21.6129C20.8522 20.7525 20.7836 19.8405 20.7278 18.9715C20.6248 17.4615 20.5605 16.0677 20.5734 15.203C20.5734 14.8846 21.3154 14.919 21.8215 14.8502C22.1947 14.7986 22.5764 14.7642 22.9067 14.747C23.237 14.7298 23.4858 14.7212 23.653 14.7212H23.8418C23.8418 14.7212 23.8847 14.2264 23.8847 14.2221L24.0005 13.009C24.0568 13.0235 24.1141 13.0336 24.172 13.0391C24.2782 13.059 24.3858 13.0705 24.4937 13.0735C24.6353 13.0735 24.7682 13.0735 24.8926 13.0735L25.0771 13.052H25.1843C25.3044 13.0305 25.4202 13.0047 25.5274 12.9746C25.6347 12.9444 25.669 12.9315 25.7376 12.91C26.051 12.8093 26.3485 12.6645 26.6212 12.4798L26.6598 12.454L26.7327 12.3981L26.7842 12.3594C26.7842 12.4196 26.7842 12.4454 26.7842 12.4712C26.7499 12.7552 26.7113 13.1165 26.6941 13.4736C26.6941 13.7231 26.6684 13.9683 26.6598 14.1791C26.6512 14.3899 26.5826 14.6953 26.7327 14.8029C26.7863 14.8331 26.8441 14.8548 26.9043 14.8674C27.1397 14.9047 27.378 14.9205 27.6163 14.9147C27.6892 14.9147 27.7621 14.9147 27.835 14.9147C28.0179 14.9041 28.2012 14.9041 28.3841 14.9147C28.5118 14.9144 28.6384 14.9397 28.7563 14.9892C28.8742 15.0387 28.9809 15.1114 29.0703 15.203C29.1815 15.3644 29.2521 15.5503 29.2762 15.745L29.3277 16.0978C29.4093 16.7256 29.418 17.3608 29.3534 17.9906Z"
      fill="#FFEDE5" />
    <path
      d="M26.767 12.3291C26.709 12.637 26.5837 12.9281 26.4001 13.1816C26.2165 13.4351 25.9792 13.6447 25.7053 13.7953C25.4313 13.9458 25.1275 14.0336 24.8157 14.0523C24.5038 14.0711 24.1917 14.0203 23.9018 13.9036L23.9833 13.0131C24.469 13.1071 24.9693 13.0946 25.4498 12.9766C25.9303 12.8585 26.3796 12.6376 26.767 12.3291Z"
      fill="#E0855C" />
    <path
      d="M23.413 9.49442C23.1642 9.75254 23.1428 10.329 23.1256 10.9657C23.0613 12.9016 23.6404 13.5038 24.6226 13.6114C25.6048 13.7189 26.6385 13.3361 26.8487 11.5465C26.9559 10.6473 27.0674 9.82567 26.7415 9.43419C26.2739 8.85773 24.1679 8.70286 23.413 9.49442Z"
      fill="#FFEDE5" />
    <path
      d="M26.7028 11.2843C26.7028 11.2843 27.0031 10.4841 27.4792 10.91C27.9553 11.3359 27.299 12.5448 26.5699 12.4544C26.5785 12.4544 26.4798 11.5596 26.7028 11.2843Z"
      fill="#FFEDE5" />
    <path
      d="M27.2689 11.2754C27.1563 11.3107 27.0555 11.3761 26.9773 11.4647C26.8887 11.5389 26.817 11.6313 26.7671 11.7357C26.7671 11.7658 26.7971 11.7873 26.8186 11.7658C26.879 11.7058 26.9363 11.6426 26.9901 11.5765C27.0293 11.6198 27.0777 11.6536 27.1317 11.6755C27.1746 11.6755 27.2089 11.6368 27.1917 11.6024C27.162 11.5568 27.1224 11.5186 27.0759 11.4905C27.156 11.4391 27.232 11.3816 27.3032 11.3184C27.3046 11.3133 27.3047 11.3078 27.3036 11.3026C27.3025 11.2974 27.3001 11.2925 27.2968 11.2883C27.2935 11.2841 27.2892 11.2808 27.2844 11.2786C27.2795 11.2763 27.2743 11.2752 27.2689 11.2754Z"
      fill="#E0855C" />
    <path
      d="M23.9705 10.9227C23.9705 10.9227 23.8033 10.9829 23.829 10.6861C23.8547 10.3892 23.9705 10.4581 23.9705 10.4581C23.9705 10.4581 24.0863 10.4581 24.0692 10.6904C24.052 10.9227 23.9705 10.9227 23.9705 10.9227Z"
      fill="#3B2645" />
    <path
      d="M25.6562 10.9227C25.6562 10.9227 25.4932 10.9829 25.5189 10.6861C25.5447 10.3892 25.6562 10.4581 25.6562 10.4581C25.6562 10.4581 25.772 10.4581 25.7549 10.6904C25.7377 10.9227 25.6562 10.9227 25.6562 10.9227Z"
      fill="#3B2645" />
    <path
      d="M24.1507 10.0236C24.0833 9.98534 24.0056 9.96931 23.9286 9.9778C23.8517 9.9863 23.7793 10.0189 23.7218 10.0709C23.7189 10.0768 23.7175 10.0833 23.7178 10.0899C23.7181 10.0965 23.7201 10.1028 23.7235 10.1084C23.7269 10.114 23.7317 10.1187 23.7374 10.1219C23.7431 10.1251 23.7496 10.1268 23.7561 10.1269C23.8162 10.1269 23.8676 10.0924 23.9277 10.0881C23.9906 10.0851 24.0534 10.0954 24.1121 10.1183C24.1679 10.1355 24.2065 10.0494 24.1507 10.0236Z"
      fill="#3B2645" />
    <path
      d="M25.9092 10.1697C25.8406 9.99758 25.5446 9.98467 25.416 10.0879C25.4097 10.0927 25.4047 10.0989 25.4012 10.106C25.3977 10.1131 25.3959 10.1209 25.3959 10.1288C25.3959 10.1367 25.3977 10.1445 25.4012 10.1516C25.4047 10.1586 25.4097 10.1648 25.416 10.1697C25.493 10.1761 25.5705 10.1761 25.6476 10.1697C25.7099 10.1797 25.7706 10.1986 25.8277 10.2256C25.8351 10.2364 25.8465 10.2439 25.8594 10.2463C25.8722 10.2487 25.8855 10.2459 25.8964 10.2385C25.9072 10.2311 25.9146 10.2197 25.917 10.2067C25.9194 10.1938 25.9166 10.1805 25.9092 10.1697Z"
      fill="#3B2645" />
    <path
      d="M24.3093 12.3076C24.6711 12.3552 25.0388 12.2922 25.3644 12.127C25.3157 12.2417 25.2436 12.3451 25.1528 12.4303C25.0619 12.5155 24.9543 12.5807 24.8368 12.6217C24.4637 12.7249 24.3093 12.3076 24.3093 12.3076Z"
      fill="white" />
    <path
      d="M22.1431 15.1987C23.1296 15.8913 23.2197 17.2378 22.7393 18.3133C22.4133 19.0317 21.8086 19.5351 21.4526 20.2148C21.0816 20.874 20.6508 21.4976 20.1658 22.0775C19.1021 23.4326 18.0898 24.6587 17.6995 25.1233C16.357 26.7322 13.5346 28.8574 12.5181 29.5974C12.2865 29.7694 12.1492 29.8641 12.1492 29.8641C12.1492 29.8641 11.1756 29.3521 11.4329 28.4057C11.4329 28.4057 15.2932 24.293 15.8637 23.4542C16.4941 22.3638 17.0668 21.2408 17.5794 20.09C18.2371 18.8138 18.9219 17.5547 19.6339 16.3129C19.9599 15.7407 20.376 15.0223 21.0923 14.8932C21.3813 14.8607 21.6732 14.9225 21.9244 15.0696C22.0003 15.1074 22.0734 15.1505 22.1431 15.1987Z"
      fill="#FFEDE5" />
    <path
      d="M11.4331 28.4099C11.5388 28.4018 11.6449 28.4018 11.7505 28.4099C11.7505 28.4099 12.677 28.9261 12.5183 29.5973C12.5183 29.5973 12.4197 29.6876 12.2653 29.8253C12.1108 29.9629 11.9436 30.1264 11.742 30.3329C11.5404 30.5394 11.0814 31.1933 10.8841 31.1374C10.8381 31.1203 10.798 31.0905 10.7683 31.0513L10.3694 30.6211C10.1464 30.3716 9.77321 29.95 10.0563 29.6188C9.85041 29.7435 9.37002 30.049 9.13411 29.9027L9.03546 29.7435C9.03546 29.7435 9.74318 29.2144 10.0349 28.952C10.4283 28.6211 10.9201 28.4305 11.4331 28.4099Z"
      fill="#FFEDE5" />
    <path
      d="M23.3143 21.7896C23.3128 21.8125 23.3128 21.8355 23.3143 21.8585C23.3143 21.8585 23.3529 21.8585 23.3443 21.8585L23.3143 21.7896Z"
      fill="#D6BED3" />
    <path
      d="M24.9055 35.7323C24.5109 38.9028 24.0476 41.6604 24.0476 41.6604C24.112 42.4261 24.142 43.2564 24.142 44.1082C24.142 45.7773 24.0305 47.5498 23.8889 49.1114C23.7088 51.1032 23.46 52.7981 23.3528 53.6499V53.7575C23.5115 59.406 21.9073 60.1545 21.1567 58.9198C20.4061 57.6852 21.1567 54.0457 21.1567 54.0457C21.1591 54.0128 21.1591 53.9797 21.1567 53.9468C20.8409 52.2565 20.6303 50.5482 20.5262 48.8317C20.2688 44.676 20.7106 41.8324 20.6591 41.3162C19.7627 32.2821 21.0151 27.3004 21.0151 27.3004C21.2107 26.5765 21.5637 25.9051 22.0488 25.3344C22.9624 24.345 24.0605 24.5945 24.751 25.8033C24.8237 25.9273 24.8895 26.0551 24.9484 26.1862C25.2297 26.8806 25.3894 27.6184 25.4202 28.3673C25.4888 30.2387 25.2272 33.1253 24.9055 35.7323Z"
      fill="#FFEDE5" />
    <path
      d="M29.3363 48.6118C29.2365 50.3641 29.0274 52.1084 28.71 53.8344L28.6714 54.0452C28.6714 54.0452 29.4221 57.6976 28.6714 58.9193C27.9208 60.1411 26.3338 59.427 26.4754 53.8344C26.4754 53.8086 26.4754 53.7828 26.4754 53.7613C26.3553 52.9525 26.1151 51.2016 25.9263 49.1281C25.7805 47.5535 25.669 45.7897 25.669 44.1206C25.669 43.2602 25.7033 42.4342 25.7676 41.6641C25.7676 41.6641 25.2915 38.9066 24.9098 35.7403C24.5881 33.129 24.3222 30.2424 24.4337 28.3883C24.4658 27.6392 24.6268 26.9012 24.9098 26.2072C24.966 26.0721 25.0319 25.9412 25.1071 25.8157C25.9006 24.4348 27.2217 24.3143 28.1953 25.8716C28.4742 26.3231 28.6934 26.809 28.8473 27.3171C28.8473 27.3171 30.0997 32.2859 29.2033 41.3329C29.139 41.8405 29.5636 44.5852 29.3363 48.6118Z"
      fill="#FFEDE5" />
    <path
      d="M11.3301 31.2024C11.4156 31.3016 11.5217 31.3807 11.6411 31.4343C11.7604 31.4878 11.89 31.5144 12.0207 31.5121C12.0806 31.4981 12.137 31.4721 12.1866 31.4357C12.2361 31.3992 12.2778 31.353 12.3091 31.2999C12.3403 31.2469 12.3606 31.188 12.3685 31.1268C12.3764 31.0657 12.3719 31.0036 12.3553 30.9442C12.3054 30.8134 12.2244 30.6967 12.1193 30.6044C11.4717 29.9591 10.8068 29.3138 10.1334 28.7158C10.0209 28.5886 9.8705 28.5011 9.70451 28.4663C9.55014 28.4662 9.40075 28.5211 9.28293 28.6212C9.16512 28.7212 9.08652 28.8599 9.06113 29.0127C9.06113 29.288 9.29703 29.3912 9.49005 29.5461C10.0991 30.0881 10.7082 30.656 11.3301 31.2024Z"
      fill="#3B2645" />
    <path
      d="M11.2357 30.4405C11.2624 30.4129 11.2842 30.3809 11.3001 30.3459C11.3109 30.3015 11.3116 30.2551 11.3019 30.2104C11.2923 30.1657 11.2726 30.1237 11.2443 30.0878C11.0856 29.8254 10.7596 29.4038 10.4379 29.365C10.3317 29.3596 10.226 29.3822 10.1311 29.4305C10.0363 29.4788 9.95578 29.5512 9.8975 29.6404C9.80124 29.7793 9.74003 29.9395 9.71911 30.1074C9.69819 30.2752 9.71819 30.4456 9.7774 30.604C9.87154 30.8889 10.0649 31.1303 10.3221 31.2837C10.4505 31.3383 10.5949 31.341 10.7251 31.2913C10.8554 31.2416 10.9615 31.1433 11.0213 31.017C11.0856 30.8578 11.0642 30.6642 11.1671 30.5309C11.1866 30.4983 11.2096 30.4681 11.2357 30.4405Z"
      fill="#FFEDE5" />
    <path
      d="M27.6507 15.199C26.6599 15.8917 26.5698 17.2382 27.0545 18.3137C27.3762 19.0321 27.981 19.5354 28.3413 20.2151C28.7153 20.8724 29.1458 21.4957 29.628 22.0779C30.6918 23.433 31.7083 24.6591 32.0944 25.1237C33.4412 26.7412 36.2635 28.8578 37.28 29.5977L37.6532 29.8644C37.6532 29.8644 38.6226 29.3525 38.3652 28.4061C38.3652 28.4061 34.5049 24.2934 33.9344 23.4545C33.3023 22.3651 32.7296 21.242 32.2187 20.0904C31.5582 18.7998 30.8762 17.5565 30.1599 16.3132C29.8339 15.7411 29.4222 15.0227 28.7016 14.8936C28.4125 14.8613 28.1208 14.9232 27.8695 15.07C27.7935 15.1075 27.7204 15.1507 27.6507 15.199Z"
      fill="#FFEDE5" />
    <path
      d="M38.3608 28.4099C38.2538 28.4018 38.1462 28.4018 38.0391 28.4099C38.0391 28.4099 37.1127 28.9261 37.2714 29.5972C37.2714 29.5972 37.3743 29.6876 37.5244 29.8252C37.6746 29.9629 37.8504 30.1264 38.0477 30.3328C38.245 30.5393 38.7125 31.1932 38.9056 31.1373C38.9509 31.1191 38.9908 31.0895 39.0214 31.0513L39.416 30.6211C39.6433 30.3716 40.0122 29.95 39.7334 29.6187C39.935 29.7435 40.4154 30.0489 40.6556 29.9026L40.7371 29.7435C40.7371 29.7435 40.0293 29.2143 39.7334 28.9519C39.3475 28.6252 38.8652 28.4348 38.3608 28.4099Z"
      fill="#FFEDE5" />
    <path
      d="M38.4596 31.2022C38.3741 31.3015 38.268 31.3806 38.1487 31.4342C38.0293 31.4877 37.8997 31.5142 37.769 31.512C37.7084 31.499 37.651 31.4737 37.6005 31.4376C37.55 31.4016 37.5073 31.3556 37.4752 31.3024C37.443 31.2492 37.4221 31.19 37.4136 31.1284C37.4051 31.0668 37.4093 31.0041 37.4259 30.9441C37.4794 30.819 37.5617 30.7085 37.6661 30.6215C38.3152 29.9762 38.9786 29.3467 39.6563 28.7329C39.7682 28.605 39.9189 28.5173 40.0852 28.4834C40.2391 28.4835 40.3879 28.5385 40.505 28.6386C40.6221 28.7387 40.6998 28.8774 40.7243 29.0297C40.7243 29.3051 40.4927 29.4083 40.2954 29.5632C39.6906 30.088 39.0815 30.6559 38.4596 31.2022Z"
      fill="#3B2645" />
    <path
      d="M38.5581 30.4405C38.5289 30.4142 38.5055 30.3819 38.4895 30.3459C38.4805 30.3011 38.4811 30.2548 38.4915 30.2103C38.5018 30.1657 38.5217 30.1239 38.5496 30.0878C38.704 29.8254 39.03 29.4038 39.3517 29.365C39.4579 29.3596 39.5636 29.3822 39.6584 29.4305C39.7533 29.4788 39.8338 29.5512 39.8921 29.6404C39.9873 29.7799 40.0468 29.9408 40.0655 30.1088C40.0842 30.2768 40.0615 30.4469 39.9993 30.604C39.908 30.8905 39.7139 31.1327 39.4546 31.2837C39.3263 31.3383 39.1819 31.341 39.0516 31.2913C38.9213 31.2416 38.8152 31.1433 38.7555 31.017C38.6954 30.8578 38.7168 30.6642 38.6096 30.5309L38.5581 30.4405Z"
      fill="#FFEDE5" />
    <path
      d="M29.4006 45.8543V46.2845C29.4006 46.5728 29.4006 46.8696 29.4006 47.175V47.5235C29.4006 47.8763 29.3749 48.2419 29.3578 48.6162C28.2472 48.9235 27.1037 49.0954 25.9521 49.1281C25.9049 48.6463 25.8106 47.3643 25.8063 47.2224C25.8063 46.9298 25.7419 46.1039 25.7376 45.992C25.7119 45.3639 25.6948 44.7358 25.6948 44.1206C25.6948 43.3205 25.7248 42.5375 25.7848 41.8105C25.7848 41.7589 25.7848 41.7116 25.7848 41.6642C25.7848 41.6169 25.3087 38.911 24.927 35.7404C24.8841 36.076 24.8412 36.4115 24.7983 36.7342C24.438 39.4616 24.0563 41.6642 24.0563 41.6642C24.1206 42.43 24.1506 43.2603 24.1506 44.112C24.1506 44.7616 24.1506 45.4026 24.1034 46.0823C24.1034 46.1942 24.0177 47.6311 24.0048 47.7687C23.9748 48.229 23.9362 48.6807 23.8976 49.1152C23.2971 49.0894 22.7052 49.0507 22.1175 48.9991C21.6543 48.9604 21.071 48.9345 20.5048 48.8528C20.4791 48.4656 20.4619 48.0957 20.449 47.7343C20.449 47.644 20.449 47.5536 20.449 47.4633C20.449 47.0675 20.449 46.6932 20.449 46.3319V46.0479C20.449 43.4409 20.7021 41.7245 20.6635 41.3158C19.767 32.2817 21.0195 27.3 21.0195 27.3C21.215 26.5761 21.5681 25.9047 22.0532 25.334C22.4209 25.3911 22.7817 25.4862 23.1298 25.6179C23.6601 25.7569 24.2075 25.8192 24.7554 25.8029H25.15C25.6261 25.8029 26.1022 25.747 26.574 25.7341H26.8914C27.3437 25.7273 27.7954 25.7706 28.2383 25.8631C28.503 26.3194 28.7077 26.8082 28.8473 27.3172C29.1938 28.9409 29.3976 30.5921 29.4564 32.2515C29.6017 35.2807 29.5171 38.3166 29.2033 41.333C29.1519 41.7159 29.3792 43.3549 29.4006 45.8543Z"
      fill="#3B2645" />
    <path
      d="M12.2094 14.6868C12.2094 14.661 12.1579 14.661 12.1537 14.6868C11.9392 16.1538 12.0636 17.6982 12.0636 19.1996C12.0636 20.787 12.0121 22.3874 12.1065 23.9705C12.1105 23.9874 12.1201 24.0024 12.1338 24.0132C12.1474 24.0239 12.1642 24.0298 12.1815 24.0298C12.1989 24.0298 12.2157 24.0239 12.2293 24.0132C12.2429 24.0024 12.2525 23.9874 12.2566 23.9705C12.3467 22.3874 12.2952 20.787 12.2952 19.1996C12.2952 17.7326 12.4196 16.1667 12.2094 14.6868Z"
      fill="#F7F8F8" />
    <path
      d="M14.0839 15.1859C14.0793 15.1648 14.0677 15.1459 14.0509 15.1323C14.0341 15.1187 14.0132 15.1113 13.9917 15.1113C13.9701 15.1113 13.9492 15.1187 13.9324 15.1323C13.9156 15.1459 13.904 15.1648 13.8994 15.1859C13.8994 16.597 13.8094 18.0338 13.8994 19.4405C13.8994 19.4645 13.9089 19.4875 13.9258 19.5044C13.9427 19.5214 13.9656 19.5309 13.9895 19.5309C14.0134 19.5309 14.0363 19.5214 14.0532 19.5044C14.0701 19.4875 14.0796 19.4645 14.0796 19.4405C14.1782 18.0338 14.0925 16.597 14.0839 15.1859Z"
      fill="#F7F8F8" />
    <path
      d="M33.2609 29.9588C33.2574 29.9461 33.2498 29.9349 33.2394 29.9269C33.2289 29.9189 33.2161 29.9146 33.203 29.9146C33.1898 29.9146 33.177 29.9189 33.1666 29.9269C33.1561 29.9349 33.1485 29.9461 33.1451 29.9588C33.0242 31.8061 32.9999 33.6585 33.0721 35.5084C33.0721 37.3582 33.0721 39.2037 33.1408 41.0536C33.1444 41.0674 33.1525 41.0795 33.1637 41.0882C33.175 41.0969 33.1888 41.1016 33.203 41.1016C33.2172 41.1016 33.231 41.0969 33.2422 41.0882C33.2535 41.0795 33.2615 41.0674 33.2652 41.0536C33.3252 39.2037 33.3252 37.3582 33.3338 35.5084C33.4039 33.6585 33.3795 31.8062 33.2609 29.9588Z"
      fill="#F7F8F8" />
    <path
      d="M36.5681 19.1393C36.5547 17.9083 36.4745 16.679 36.3279 15.4568C36.3279 15.3837 36.2121 15.4052 36.2078 15.4568C36.1747 16.7786 36.2133 18.1013 36.3236 19.4189C36.3793 20.645 36.3665 21.9011 36.5295 23.1143C36.5295 23.2261 36.7182 23.1917 36.7225 23.0885C36.7825 21.7764 36.6453 20.4385 36.5681 19.1393Z"
      fill="#F7F8F8" />
    <path
      d="M37.4258 19.8233C37.4228 19.8136 37.4168 19.8052 37.4087 19.7992C37.4006 19.7933 37.3908 19.79 37.3807 19.79C37.3707 19.79 37.3609 19.7933 37.3528 19.7992C37.3447 19.8052 37.3387 19.8136 37.3357 19.8233C37.2221 21.5907 37.2135 23.3634 37.31 25.1319C37.3073 25.1427 37.3071 25.1539 37.3094 25.1648C37.3117 25.1756 37.3165 25.1858 37.3233 25.1945C37.3301 25.2033 37.3388 25.2104 37.3488 25.2152C37.3587 25.2201 37.3697 25.2226 37.3807 25.2226C37.3918 25.2226 37.4027 25.2201 37.4127 25.2152C37.4226 25.2104 37.4314 25.2033 37.4382 25.1945C37.445 25.1858 37.4497 25.1756 37.4521 25.1648C37.4544 25.1539 37.4542 25.1427 37.4515 25.1319C37.548 23.3634 37.5394 21.5907 37.4258 19.8233Z"
      fill="#F7F8F8" />
    <path
      d="M24.7769 36.7301C24.7834 36.3951 24.8266 36.0619 24.9056 35.7363C24.8627 36.0719 24.8198 36.4074 24.7769 36.7301Z"
      fill="#291B30" />
    <path
      d="M29.4436 32.252C28.8646 28.7631 24.0821 28.5997 24.0821 28.5997C23.7861 27.1628 25.7163 26.7326 25.7163 26.7326L26.8443 25.7561C27.2966 25.7493 27.7483 25.7926 28.1911 25.8851C28.4705 26.3323 28.6911 26.8138 28.8474 27.3177C29.1868 28.9423 29.3863 30.5931 29.4436 32.252Z"
      fill="#291B30" />
    <path
      d="M28.9159 27.6914C25.0556 29.5111 20.8607 27.8419 20.8607 27.8419C21.1652 26.9815 20.9379 22.5935 20.9165 21.759C20.9165 21.759 20.9165 21.7289 20.9165 21.7159C20.9182 21.6844 20.9182 21.6528 20.9165 21.6213C21.7271 19.737 21.8172 16.1062 21.8215 14.8586C22.1861 14.8027 22.5678 14.7726 22.8981 14.7554C23.0268 16.1492 23.4857 19.7241 24.7639 19.5693C26.0421 19.4144 26.6512 16.2309 26.8742 14.8371C27.1094 14.8767 27.3479 14.8925 27.5862 14.8844C27.6591 14.8844 27.732 14.8844 27.805 14.8844C27.6934 16.7902 28.7486 20.7953 28.7786 20.9072C28.7786 20.9373 28.7786 20.9717 28.7786 21.0018C28.7786 21.1051 28.7486 21.2126 28.7357 21.3288C28.7357 21.3288 28.7357 21.3761 28.7357 21.4019C28.4655 23.8282 28.9159 27.6914 28.9159 27.6914Z"
      fill="url(#paint2_linear_57_6587)" />
  </g>
  <defs>
    <linearGradient id="paint0_linear_57_6587" x1="50" y1="50" x2="-16.6397" y2="44.8434"
      gradientUnits="userSpaceOnUse">
      <stop stop-color="#92A3FD" />
      <stop offset="1" stop-color="#9DCEFF" />
    </linearGradient>
    <linearGradient id="paint1_linear_57_6587" x1="43.8312" y1="61.0663" x2="-6.50423" y2="56.6495"
      gradientUnits="userSpaceOnUse">
      <stop stop-color="#92A3FD" />
      <stop offset="1" stop-color="#9DCEFF" />
    </linearGradient>
    <linearGradient id="paint2_linear_57_6587" x1="28.9159" y1="28.5411" x2="18.1377" y2="28.0538"
      gradientUnits="userSpaceOnUse">
      <stop stop-color="#92A3FD" />
      <stop offset="1" stop-color="#9DCEFF" />
    </linearGradient>
  </defs>
</svg>
