<svg width="50" height="50" viewBox="0 0 50 50" fill="none" xmlns="http://www.w3.org/2000/svg">
<circle opacity="0.3" cx="25" cy="25" r="25" fill="url(#paint0_linear_289_4285)"/>
<mask id="mask0_289_4285" style="mask-type:alpha" maskUnits="userSpaceOnUse" x="0" y="0" width="50" height="50">
<circle cx="25" cy="25" r="25" fill="#C4C4C4"/>
</mask>
<g mask="url(#mask0_289_4285)">
<g clip-path="url(#clip0_289_4285)">
<g opacity="0.3">
<path opacity="0.3" d="M17.2125 29.7038H17.1926L16.4285 29.4817C16.4023 29.4735 16.3803 29.4552 16.3671 29.4306C16.354 29.4061 16.3509 29.3772 16.3583 29.3503C16.3658 29.3234 16.3833 29.3005 16.4071 29.2866C16.4308 29.2727 16.459 29.2689 16.4856 29.2759L17.2444 29.4953C17.2684 29.5033 17.2888 29.52 17.3018 29.5422C17.3147 29.5644 17.3194 29.5906 17.3148 29.6161C17.3103 29.6415 17.2969 29.6644 17.2771 29.6805C17.2573 29.6966 17.2325 29.7049 17.2072 29.7038H17.2125Z" fill="black"/>
<path opacity="0.3" d="M16.4286 30.305C16.4069 30.303 16.3864 30.2943 16.3698 30.28C16.3532 30.2657 16.3413 30.2466 16.3357 30.2252C16.3315 30.2111 16.3302 30.1963 16.3319 30.1817C16.3335 30.1672 16.3381 30.1531 16.3453 30.1404C16.3525 30.1277 16.3622 30.1166 16.3738 30.1079C16.3854 30.0992 16.3986 30.093 16.4126 30.0898L17.1767 29.8921C17.2033 29.8862 17.231 29.8911 17.254 29.9057C17.2771 29.9202 17.2937 29.9434 17.3004 29.9702C17.3071 29.997 17.3034 30.0255 17.2899 30.0495C17.2765 30.0736 17.2545 30.0914 17.2285 30.0992L16.463 30.2969C16.4521 30.3016 16.4404 30.3044 16.4286 30.305V30.305Z" fill="black"/>
<path opacity="0.3" d="M16.8186 31.0254C16.7935 31.0229 16.77 31.0114 16.7523 30.9929C16.7329 30.9729 16.7221 30.9459 16.7221 30.9178C16.7221 30.8896 16.7329 30.8626 16.7523 30.8426L17.3174 30.2807C17.327 30.2699 17.3387 30.2612 17.3518 30.2551C17.3648 30.2491 17.3789 30.2459 17.3932 30.2456C17.4075 30.2454 17.4217 30.2481 17.4349 30.2537C17.4482 30.2592 17.4601 30.2675 17.4701 30.278C17.4801 30.2884 17.4879 30.3009 17.493 30.3145C17.4981 30.3282 17.5004 30.3427 17.4997 30.3573C17.4991 30.3719 17.4955 30.3862 17.4893 30.3993C17.483 30.4125 17.4742 30.4242 17.4634 30.4337L16.9009 30.9983C16.8898 31.0084 16.8767 31.016 16.8625 31.0207C16.8484 31.0253 16.8334 31.027 16.8186 31.0254V31.0254Z" fill="black"/>
<path opacity="0.3" d="M17.5043 31.4519H17.4844C17.4709 31.4481 17.4582 31.4415 17.4472 31.4325C17.4362 31.4235 17.4271 31.4124 17.4204 31.3998C17.4138 31.3871 17.4096 31.3732 17.4083 31.3589C17.407 31.3446 17.4085 31.3302 17.4128 31.3165L17.6224 30.542C17.6304 30.5152 17.6484 30.4928 17.6724 30.4794C17.6965 30.466 17.7247 30.4627 17.7511 30.4703C17.7775 30.478 17.7999 30.4958 17.8135 30.5201C17.8272 30.5444 17.8309 30.5732 17.824 30.6002L17.6091 31.3748C17.6026 31.3977 17.5887 31.4178 17.5697 31.4318C17.5508 31.4458 17.5277 31.4529 17.5043 31.4519Z" fill="black"/>
</g>
<path d="M38.2281 19.4274L36.3271 20.5445L32.1644 21.1592C32.1644 21.1592 29.1252 16.4985 28.6596 15.766C28.194 15.0335 27.6487 14.5636 26.3872 14.5649L26.626 18.2832C26.6658 18.4037 29.1822 21.5682 30.8418 23.2932C31.4281 23.9012 31.7876 24.0569 32.699 23.7969C35.0377 23.1348 37.8726 21.1728 38.1007 20.6826C38.4072 20.0421 38.2055 19.4409 38.2281 19.4274Z" fill="#FFEDE5"/>
<path d="M37.4465 17.0702C37.6959 16.2388 38.7147 15.5617 39.6606 15.8326C39.8104 15.8748 39.954 15.9372 40.0877 16.0181C41.0163 16.5597 41.7552 17.8799 41.7552 18.9659C41.7583 19.1492 41.7332 19.332 41.6809 19.5075V19.5075C41.4329 20.3375 40.4167 21.02 39.4669 20.7478C39.3173 20.7049 39.1737 20.6426 39.0397 20.5623C38.1191 20.0207 37.3722 18.6991 37.3722 17.6131C37.3696 17.4293 37.3946 17.2462 37.4465 17.0702Z" fill="#455A64"/>
<path d="M39.0412 20.5543C38.1206 20.0127 37.3737 18.6911 37.3737 17.6052C37.3737 16.5192 38.1206 16.0805 39.0412 16.6221C39.9619 17.1638 40.7047 18.484 40.7047 19.5699C40.7047 20.6559 39.9619 21.096 39.0412 20.5543Z" fill="#37474F"/>
<path d="M39.041 17.8256C38.6868 17.6171 38.399 17.7863 38.399 18.2034C38.411 18.4307 38.4754 18.652 38.587 18.8491C38.6986 19.0463 38.8541 19.2138 39.041 19.3381C39.3952 19.5466 39.6817 19.3774 39.6817 18.9603C39.6699 18.733 39.6058 18.5118 39.4944 18.3147C39.3831 18.1175 39.2277 17.9499 39.041 17.8256V17.8256Z" fill="#455A64"/>
<path d="M38.8209 18.4528C38.8252 18.5307 38.8473 18.6064 38.8856 18.674C38.9238 18.7415 38.9771 18.7988 39.0411 18.8414C39.0622 18.8569 39.0866 18.8668 39.1123 18.8704C39.1379 18.8739 39.1641 18.871 39.1884 18.8617L39.2043 18.8523C39.2233 18.8357 39.2382 18.8148 39.2478 18.7913C39.2575 18.7678 39.2617 18.7423 39.26 18.7169C39.2558 18.6391 39.2338 18.5635 39.1958 18.496C39.1578 18.4285 39.1048 18.3711 39.0411 18.3282C39.0201 18.3128 38.9957 18.3028 38.97 18.2993C38.9443 18.2958 38.9182 18.2987 38.8939 18.3079L38.878 18.3174C38.8587 18.3338 38.8434 18.3546 38.8335 18.3781C38.8236 18.4017 38.8193 18.4273 38.8209 18.4528V18.4528Z" fill="#37474F"/>
<path d="M35.2989 20.5286C35.303 20.6063 35.325 20.682 35.363 20.7495C35.401 20.817 35.454 20.8745 35.5178 20.9172C35.5463 20.936 35.5794 20.9463 35.6133 20.947C35.6391 20.9465 35.6643 20.939 35.6863 20.9253L39.1884 18.8617L39.2043 18.8523C39.2233 18.8357 39.2382 18.8148 39.2479 18.7913C39.2576 18.7678 39.2617 18.7423 39.26 18.7169C39.2558 18.6391 39.2338 18.5635 39.1958 18.496C39.1578 18.4285 39.1049 18.3711 39.0412 18.3282C39.0201 18.3128 38.9957 18.3028 38.97 18.2993C38.9443 18.2958 38.9182 18.2987 38.8939 18.3079L38.878 18.3174L35.3759 20.381C35.3507 20.3957 35.3302 20.4174 35.3166 20.4435C35.3029 20.4696 35.2968 20.4991 35.2989 20.5286V20.5286Z" fill="#FAFAFA"/>
<path d="M31.8619 20.362C32.1099 19.532 33.1261 18.8455 34.0759 19.1177C34.2258 19.1607 34.3698 19.2231 34.5044 19.3032C35.425 19.8448 36.1719 21.1664 36.1719 22.2523C36.1741 22.4357 36.1491 22.6183 36.0976 22.7939C35.8482 23.624 34.8334 24.3064 33.8835 24.0356C33.734 23.9925 33.5905 23.9302 33.4564 23.8501C32.5357 23.3085 31.7889 21.9869 31.7889 20.9023C31.7858 20.7195 31.8104 20.5372 31.8619 20.362V20.362Z" fill="#455A64"/>
<path d="M33.455 23.8443C32.5343 23.3027 31.7875 21.9812 31.7875 20.8965C31.7875 19.8119 32.5343 19.3705 33.455 19.9121C34.3756 20.4538 35.1225 21.7753 35.1225 22.8613C35.1225 23.9472 34.3769 24.3873 33.455 23.8443Z" fill="#37474F"/>
<path d="M33.4549 21.1135C33.1007 20.9037 32.8141 21.0729 32.8141 21.4913C32.8261 21.7184 32.8904 21.9393 33.0017 22.1362C33.1131 22.3331 33.2683 22.5005 33.4549 22.6247C33.8091 22.8332 34.0969 22.664 34.0969 22.2469C34.0847 22.0198 34.0202 21.7988 33.9086 21.6019C33.7971 21.405 33.6416 21.2377 33.4549 21.1135V21.1135Z" fill="#455A64"/>
<path d="M33.236 21.7426C33.2401 21.8204 33.2621 21.896 33.3001 21.9635C33.3381 22.0311 33.3912 22.0885 33.4549 22.1312C33.4759 22.1467 33.5004 22.1566 33.5261 22.1602C33.5517 22.1637 33.5779 22.1608 33.6022 22.1515C33.608 22.1495 33.6135 22.1463 33.6181 22.1421C33.6373 22.1256 33.6525 22.1048 33.6624 22.0813C33.6723 22.0578 33.6766 22.0322 33.6751 22.0067C33.6708 21.9288 33.6486 21.8531 33.6103 21.7856C33.5721 21.7181 33.5189 21.6607 33.4549 21.618C33.4339 21.603 33.4097 21.5935 33.3843 21.5902C33.3588 21.5869 33.333 21.5899 33.309 21.5991L33.2931 21.6086C33.2738 21.6247 33.2586 21.6452 33.2487 21.6685C33.2387 21.6919 33.2344 21.7173 33.236 21.7426V21.7426Z" fill="#37474F"/>
<path d="M32.7055 22.0613C32.7093 22.1391 32.7311 22.2149 32.7691 22.2824C32.8072 22.35 32.8604 22.4074 32.9244 22.4499C32.9529 22.4687 32.986 22.479 33.0199 22.4797C33.0456 22.479 33.0708 22.4716 33.0928 22.458L33.6022 22.1574C33.6081 22.1554 33.6135 22.1521 33.6182 22.1479C33.6374 22.1315 33.6525 22.1107 33.6624 22.0871C33.6723 22.0636 33.6767 22.0381 33.6752 22.0125C33.6708 21.9347 33.6487 21.859 33.6104 21.7915C33.5722 21.724 33.5189 21.6666 33.455 21.6239C33.434 21.6089 33.4098 21.5993 33.3843 21.596C33.3589 21.5927 33.3331 21.5958 33.3091 21.6049L33.2932 21.6144L32.7824 21.9137C32.7573 21.9284 32.7367 21.95 32.7231 21.9762C32.7095 22.0023 32.7034 22.0318 32.7055 22.0613V22.0613Z" fill="#FAFAFA"/>
<path d="M32.7055 22.0614C32.7094 22.1393 32.7312 22.2153 32.7693 22.283C32.8073 22.3508 32.8604 22.4085 32.9244 22.4513C32.9456 22.4664 32.9701 22.4759 32.9957 22.4792C33.0214 22.4825 33.0474 22.4795 33.0716 22.4703L33.0875 22.4608C33.1069 22.4445 33.1222 22.4237 33.1321 22.4002C33.142 22.3766 33.1463 22.351 33.1446 22.3254C33.1401 22.2474 33.1179 22.1715 33.0797 22.1038C33.0414 22.0361 32.9883 21.9785 32.9244 21.9354C32.9031 21.9204 32.8787 21.9108 32.853 21.9075C32.8274 21.9042 32.8013 21.9073 32.7771 21.9165L32.7612 21.926C32.7421 21.9425 32.7272 21.9633 32.7175 21.9869C32.7078 22.0104 32.7037 22.0359 32.7055 22.0614V22.0614Z" fill="#E0E0E0"/>
<path d="M37.0128 21.6358C37.8181 21.0088 38.5901 21.0129 38.4508 19.4801C38.3328 18.8031 38.1683 18.7543 37.5222 18.4971C37.2384 18.3847 36.859 18.2994 36.6321 18.5648C36.6072 18.5981 36.5797 18.6293 36.5499 18.6582C36.483 18.7017 36.4062 18.7269 36.327 18.7313C36.1758 18.7388 36.032 18.8007 35.9211 18.906C35.8455 18.994 35.8163 19.1145 35.742 19.2025C35.6706 19.2715 35.5939 19.3344 35.5125 19.3907C35.4542 19.4424 35.4072 19.5059 35.3745 19.5773C35.3418 19.6487 35.3242 19.7263 35.3228 19.8051C35.3282 19.8951 35.3528 19.9829 35.395 20.0622C35.4371 20.1415 35.4958 20.2104 35.5669 20.2641L35.9728 20.0258C36.1386 19.9093 36.4809 20.325 36.3336 20.5444C36.0988 20.8937 37.0128 21.6358 37.0128 21.6358Z" fill="#FFEDE5"/>
<path d="M27.6341 24.7176C27.8915 23.656 27.9657 21.0034 27.9657 21.0034L20.4335 21.2336L20.8434 22.9086C20.911 23.2862 20.947 23.6689 20.9509 24.0528C20.9509 24.0528 21.6818 25.4353 23.8494 25.6776C25.1813 25.8072 26.5166 25.4685 27.6341 24.7176Z" fill="#FFEDE5"/>
<path d="M27.9698 21.0038C27.979 21.0877 27.926 21.8907 27.926 21.8907C26.9629 22.718 23.8733 23.1364 20.6299 22.0356L19.9427 19.3274C19.9427 19.3274 22.2748 18.2821 20.6988 14.7751L22.3929 14.6397L25.4002 14.5625H26.3872C27.1987 15.3673 27.8845 16.2943 28.4208 17.3112C28.8148 18.0614 29.3162 19.1609 27.9698 21.0038Z" fill="#455A64"/>
<path d="M23.7075 21.0279C22.3505 20.6745 22.0109 19.8093 21.914 19.1729C21.914 19.1729 21.658 21.0279 23.5974 21.4599C25.643 21.9148 26.484 20.2615 26.484 20.2615C26.484 20.2615 25.3445 21.4544 23.7075 21.0279Z" fill="#37474F"/>
<path d="M12.1557 41.6706C11.7578 41.9672 10.8411 42.0389 10.0332 41.6517C9.22534 41.2644 8.8884 40.1622 9.03963 39.3105C9.22269 38.2719 9.72546 37.7046 9.85281 37.079C9.98016 36.4534 9.85281 35.5895 10.0465 35.0316C10.1263 34.8172 10.2506 34.6229 10.4109 34.4621C10.5712 34.3013 10.7637 34.1778 10.9751 34.1C11.1099 34.0469 11.2548 34.026 11.3988 34.0389C11.5427 34.0518 11.6819 34.0982 11.8055 34.1745L12.0443 34.3181L12.1557 41.6706Z" fill="#263238"/>
<path d="M13.1042 37.7102L12.4754 39.6357C12.4754 39.6357 12.8734 41.0087 12.6492 41.3743C12.3189 41.9159 11.7365 42.0107 10.7562 41.7047C9.63521 41.3567 9.37123 40.3208 9.4296 39.5165C9.50919 38.3696 10.5479 37.5071 10.4285 36.4022C10.3701 35.8606 10.4431 35.2553 10.7336 34.7895C11.0586 34.2695 11.5919 34.172 12.1451 34.3413C12.62 34.4875 13.0365 34.7922 13.4385 35.0779C13.5539 35.1529 13.6584 35.244 13.7489 35.3487C13.8209 35.4467 13.8748 35.5573 13.9081 35.675C13.9808 35.9117 14.0025 36.1616 13.9718 36.4076C13.9426 36.6378 13.798 36.7718 13.664 36.9492L13.1042 37.7102Z" fill="url(#paint1_linear_289_4285)"/>
<path d="M15.8143 36.7989C15.7759 36.784 13.855 35.5301 13.648 35.4353C13.4411 35.3405 12.9317 35.2065 12.4395 36.3696C12.088 37.197 12.5934 37.503 12.5934 37.503L14.8486 38.8706L15.8143 36.7989Z" fill="#FFEDE5"/>
<path d="M12.4754 39.6358C12.069 39.4285 11.619 39.3257 11.1648 39.3366C11.1311 39.3398 11.0971 39.3345 11.0658 39.3212C11.0346 39.3079 11.007 39.2869 10.9855 39.2602C10.964 39.2334 10.9493 39.2017 10.9426 39.1678C10.9359 39.1339 10.9375 39.0989 10.9472 39.0658V39.0658C10.96 39.0263 10.984 38.9916 11.0161 38.966C11.0482 38.9405 11.087 38.9252 11.1277 38.9222C11.4314 38.8978 12.169 38.8884 12.6585 39.3C12.7885 39.5681 12.4754 39.6358 12.4754 39.6358Z" fill="url(#paint2_linear_289_4285)"/>
<path d="M12.7063 38.7555C12.3111 38.527 11.8669 38.401 11.4129 38.3885C11.3787 38.3903 11.3446 38.3833 11.3137 38.3683C11.2828 38.3533 11.256 38.3307 11.2358 38.3025C11.2155 38.2743 11.2024 38.2414 11.1977 38.2068C11.193 38.1722 11.1967 38.137 11.2086 38.1042V38.1042C11.2232 38.0653 11.2488 38.0317 11.2821 38.0076C11.3153 37.9835 11.3549 37.97 11.3956 37.9688C11.7008 37.9607 12.4383 37.9918 12.9066 38.4278C13.022 38.7054 12.7063 38.7555 12.7063 38.7555Z" fill="url(#paint3_linear_289_4285)"/>
<path opacity="0.3" d="M12.4754 39.6358C12.069 39.4285 11.619 39.3257 11.1648 39.3366C11.1311 39.3398 11.0971 39.3345 11.0658 39.3212C11.0346 39.3079 11.007 39.2869 10.9855 39.2602C10.964 39.2334 10.9493 39.2017 10.9426 39.1678C10.9359 39.1339 10.9375 39.0989 10.9472 39.0658V39.0658C10.96 39.0263 10.984 38.9916 11.0161 38.966C11.0482 38.9405 11.087 38.9252 11.1277 38.9222C11.4314 38.8978 12.169 38.8884 12.6585 39.3C12.7885 39.5681 12.4754 39.6358 12.4754 39.6358Z" fill="black"/>
<path opacity="0.3" d="M12.7063 38.7555C12.3111 38.527 11.8669 38.401 11.4129 38.3885C11.3787 38.3903 11.3446 38.3833 11.3137 38.3683C11.2828 38.3533 11.256 38.3307 11.2358 38.3025C11.2155 38.2743 11.2024 38.2414 11.1977 38.2068C11.193 38.1722 11.1967 38.137 11.2086 38.1042V38.1042C11.2232 38.0653 11.2488 38.0317 11.2821 38.0076C11.3153 37.9835 11.3549 37.97 11.3956 37.9688C11.7008 37.9607 12.4383 37.9918 12.9066 38.4278C13.022 38.7054 12.7063 38.7555 12.7063 38.7555Z" fill="black"/>
<path d="M32.2825 41.8795L34.7777 40.8693C34.7353 40.2126 34.5761 39.3379 34.7419 37.6196L31.911 37.0698V39.9621L32.2825 41.8795Z" fill="#FFEDE5"/>
<path d="M39.402 44.116C39.4684 44.3211 39.456 44.5441 39.3676 44.7403C39.2827 44.9231 38.3474 45.4606 37.0859 45.374C36.1504 45.3071 35.2494 44.9859 34.4765 44.4437C33.9963 44.1187 33.4949 44.0578 32.8714 44.0213C32.2479 43.9847 31.4254 43.6665 31.2888 43.3686C31.1521 43.0707 31.31 42.5562 31.31 42.5562L39.402 44.116Z" fill="#263238"/>
<path d="M34.3119 40.097L34.4114 40.0754C34.4655 40.0606 34.522 40.0578 34.5772 40.0673C34.6385 40.0866 34.6929 40.1238 34.7338 40.1742C34.8573 40.3349 34.9648 40.5077 35.0548 40.6901C35.3201 41.1302 35.8746 41.4958 36.4809 41.8275C36.8934 42.0537 37.2967 42.2338 37.7225 42.4247C38.1484 42.6156 38.732 42.7456 39.0716 42.9798C39.5665 43.3197 39.6315 44.1755 39.0716 44.5126C38.5861 44.8051 37.306 45.1206 35.9635 44.732C35.2312 44.5208 34.4194 43.7232 33.4603 43.6488C32.8501 43.6 31.6946 43.4253 31.3019 42.9528C31.1574 42.7429 31.351 42.0767 31.5102 41.5026C31.684 40.8756 31.7477 39.7707 31.952 39.8262C31.952 39.8262 31.8962 39.9819 31.9758 40.0659C32.0554 40.1499 32.3353 40.3178 32.4176 40.3882C32.5551 40.5314 32.6662 40.6988 32.7453 40.8824C32.7781 40.9653 32.8394 41.0332 32.9177 41.0733C33.0212 41.1126 33.0981 41.0462 33.183 41.0043C33.2978 40.9518 33.4271 40.9427 33.5478 40.9785C33.5362 40.8541 33.5144 40.731 33.4828 40.6102C33.4692 40.5721 33.466 40.5309 33.4735 40.4911C33.4902 40.4539 33.5175 40.4228 33.5518 40.4017C33.7815 40.247 34.0405 40.1433 34.3119 40.097Z" fill="url(#paint4_linear_289_4285)"/>
<path d="M35.9105 41.4894C35.9105 41.4894 35.823 41.2498 35.4608 41.1821C35.1823 41.1293 34.6914 41.3378 34.3863 41.5883C34.3576 41.6125 34.3351 41.6434 34.3207 41.6785C34.3064 41.7135 34.3006 41.7516 34.3038 41.7895C34.3071 41.8273 34.3193 41.8638 34.3395 41.8957C34.3596 41.9277 34.3871 41.9541 34.4195 41.9728V41.9728C34.4611 41.9971 34.5092 42.0074 34.5569 42.002C34.6046 41.9966 34.6493 41.976 34.6848 41.9431C35.0207 41.6359 35.4599 41.4734 35.9105 41.4894V41.4894Z" fill="url(#paint5_linear_289_4285)"/>
<path d="M36.7714 41.981C36.7113 41.8944 36.6317 41.8238 36.5394 41.7751C36.4471 41.7263 36.3447 41.7008 36.2408 41.7007C36.2408 41.7007 35.5151 41.7223 35.0654 42.1489C35.038 42.1724 35.0166 42.2023 35.0029 42.2361C34.9892 42.2698 34.9837 42.3064 34.9868 42.3428C34.99 42.3792 35.0016 42.4143 35.0208 42.4451C35.0401 42.476 35.0663 42.5016 35.0973 42.5199V42.5199C35.1366 42.5422 35.1819 42.5514 35.2267 42.546C35.2714 42.5407 35.3134 42.5211 35.3467 42.4901C35.5318 42.3021 35.7559 42.1587 36.0025 42.0706C36.249 41.9825 36.5117 41.9519 36.7714 41.981Z" fill="url(#paint6_linear_289_4285)"/>
<path d="M37.7227 42.4251C37.6534 42.3448 37.5681 42.2806 37.4724 42.2369C37.3767 42.1932 37.273 42.1711 37.1682 42.1719C37.1682 42.1719 36.4916 42.1976 36.0432 42.6242C36.0155 42.6474 35.9937 42.6772 35.9798 42.7109C35.9658 42.7446 35.9601 42.7813 35.9631 42.8178C35.9661 42.8543 35.9777 42.8896 35.997 42.9204C36.0163 42.9513 36.0426 42.977 36.0737 42.9952V42.9952C36.1134 43.0174 36.1588 43.0265 36.2038 43.0212C36.2487 43.0158 36.2909 42.9963 36.3245 42.9654C36.5003 42.7705 36.7182 42.6201 36.9609 42.5263C37.2037 42.4325 37.4645 42.3979 37.7227 42.4251Z" fill="url(#paint7_linear_289_4285)"/>
<path opacity="0.3" d="M35.9105 41.4894C35.9105 41.4894 35.823 41.2498 35.4608 41.1821C35.1823 41.1293 34.6914 41.3378 34.3863 41.5883C34.3576 41.6125 34.3351 41.6434 34.3207 41.6785C34.3064 41.7135 34.3006 41.7516 34.3038 41.7895C34.3071 41.8273 34.3193 41.8638 34.3395 41.8957C34.3596 41.9277 34.3871 41.9541 34.4195 41.9728V41.9728C34.4611 41.9971 34.5092 42.0074 34.5569 42.002C34.6046 41.9966 34.6493 41.976 34.6848 41.9431C35.0207 41.6359 35.4599 41.4734 35.9105 41.4894V41.4894Z" fill="black"/>
<path opacity="0.3" d="M36.7714 41.981C36.7113 41.8944 36.6317 41.8238 36.5394 41.7751C36.4471 41.7263 36.3447 41.7008 36.2408 41.7007C36.2408 41.7007 35.5151 41.7223 35.0654 42.1489C35.038 42.1724 35.0166 42.2023 35.0029 42.2361C34.9892 42.2698 34.9837 42.3064 34.9868 42.3428C34.99 42.3792 35.0016 42.4143 35.0208 42.4451C35.0401 42.476 35.0663 42.5016 35.0973 42.5199V42.5199C35.1366 42.5422 35.1819 42.5514 35.2267 42.546C35.2714 42.5407 35.3134 42.5211 35.3467 42.4901C35.5318 42.3021 35.7559 42.1587 36.0025 42.0706C36.249 41.9825 36.5117 41.9519 36.7714 41.981Z" fill="black"/>
<path opacity="0.3" d="M37.7227 42.4251C37.6534 42.3448 37.5681 42.2806 37.4724 42.2369C37.3767 42.1932 37.273 42.1711 37.1682 42.1719C37.1682 42.1719 36.4916 42.1976 36.0432 42.6242C36.0155 42.6474 35.9937 42.6772 35.9798 42.7109C35.9658 42.7446 35.9601 42.7813 35.9631 42.8178C35.9661 42.8543 35.9777 42.8896 35.997 42.9204C36.0163 42.9513 36.0426 42.977 36.0737 42.9952V42.9952C36.1134 43.0174 36.1588 43.0265 36.2038 43.0212C36.2487 43.0158 36.2909 42.9963 36.3245 42.9654C36.5003 42.7705 36.7182 42.6201 36.9609 42.5263C37.2037 42.4325 37.4645 42.3979 37.7227 42.4251Z" fill="black"/>
<path d="M33.9883 27.3539C32.0913 26.9193 27.5611 25.9525 27.5611 25.9525L27.6341 24.7176C25.9958 25.5842 22.5427 25.3391 20.9508 24.0527L20.7001 25.3621C20.0966 26.0997 19.5739 26.9025 19.1414 27.7561C18.7779 28.4914 18.1704 29.6382 18.7753 32.3098C19.1308 33.8792 19.6044 38.0104 19.6044 38.0104L14.9614 36.2637C14.9614 36.2637 14.5634 36.3327 14.2265 37.221C14.0275 37.7464 13.9612 38.2514 14.1628 38.5128C15.8608 39.8817 18.6121 42.1173 21.3926 43.3711C23.2498 44.0969 24.2367 42.5032 24.327 41.9128C24.6758 39.6515 25.0778 32.3856 25.0778 32.3856L31.2861 32.1839C31.0805 33.3836 31.9162 38.0713 31.9162 38.0713C31.9162 38.0713 33.4444 38.7484 34.71 38.0551C34.71 38.0551 35.5563 32.6605 35.6386 30.861C35.7221 28.8542 35.823 27.7751 33.9883 27.3539Z" fill="url(#paint8_linear_289_4285)"/>
<path opacity="0.15" d="M31.2861 32.1843C31.2861 31.8606 31.497 30.73 32.2147 30.1274C32.2147 30.1274 31.2304 30.3075 30.7794 32.2005L31.2861 32.1843Z" fill="black"/>
<path opacity="0.15" d="M19.6044 38.011C19.6044 38.011 19.737 39.7943 20.0713 40.6636C20.0713 40.6636 19.2343 39.12 19.1427 37.835L19.6044 38.011Z" fill="black"/>
<path opacity="0.15" d="M27.5597 25.9531L27.6327 24.7195C25.9944 25.5848 22.5426 25.3397 20.9521 24.0547L20.7014 25.3627C20.7146 25.3749 21.7361 26.4527 24.3919 26.5922C27.0477 26.7317 27.5597 25.9531 27.5597 25.9531Z" fill="black"/>
<path opacity="0.15" d="M25.0831 32.3859C25.0611 31.7157 24.9058 31.057 24.6267 30.4499C24.3475 29.8428 23.9504 29.3 23.4593 28.8545C23.4593 28.8545 24.8867 29.5315 25.3643 31.675C25.3643 31.675 26.4255 31.1699 26.98 29.6561C26.98 29.6561 26.8102 31.1699 25.9559 32.0311L28.5308 32.2735L25.0831 32.3859Z" fill="black"/>
<path d="M24.2553 5.00001C23.7103 4.99912 23.1704 5.1079 22.6666 5.32013C22.1628 5.53237 21.705 5.84389 21.3192 6.23689C20.9334 6.62989 20.6274 7.09665 20.4185 7.61048C20.2096 8.12431 20.102 8.67514 20.1018 9.23145V9.23145C20.1018 9.78788 20.2093 10.3389 20.4181 10.8528C20.6269 11.3668 20.933 11.8337 21.3187 12.2269C21.7045 12.62 22.1624 12.9317 22.6663 13.144C23.1702 13.3563 23.7102 13.4651 24.2553 13.4643V13.4643C25.3538 13.4625 26.4067 13.0157 27.1828 12.222C27.9588 11.4284 28.3945 10.3528 28.3942 9.23145V9.23145C28.3942 8.11037 27.9583 7.03511 27.1823 6.24176C26.4063 5.4484 25.3536 5.0018 24.2553 5.00001V5.00001Z" fill="#263238"/>
<path d="M19.9242 7.57267C20.0742 7.56566 20.2244 7.57428 20.3726 7.5984C20.4228 7.60177 20.4701 7.62395 20.5053 7.66068C20.5257 7.69107 20.5372 7.72677 20.5384 7.76359C20.5727 7.99868 20.5513 8.23871 20.4761 8.46364C20.4177 8.62071 20.236 8.7006 20.1206 8.81434C19.6722 9.25848 19.6364 9.99373 19.8128 10.6044C19.9892 11.2151 20.3434 11.7594 20.5729 12.3498C20.8024 12.9402 20.9245 13.6511 20.5995 14.2455C20.4734 14.473 20.2439 14.6517 20.2718 14.9225C20.3036 15.2543 20.5875 15.5711 20.7096 15.8704C20.8435 16.2249 20.8891 16.6078 20.8422 16.9848C20.8086 17.4534 20.6381 17.901 20.3527 18.2698C20.1345 18.5293 19.8529 18.7251 19.5365 18.8374C19.22 18.9497 18.8801 18.9743 18.5512 18.9089C18.4126 18.8842 18.2814 18.8272 18.1679 18.7423C17.9729 18.5826 17.8946 18.3212 17.7885 18.0897C17.4475 17.3409 16.7272 16.7965 16.5083 16.0017C16.2709 15.1554 16.6662 14.2753 17.1517 13.5563C17.3786 13.2205 17.6319 12.8914 17.7434 12.4987C17.8933 11.9693 17.7619 11.406 17.7274 10.8549C17.6945 10.3166 17.7552 9.77659 17.9065 9.25983C18.0153 8.88611 18.1838 8.45552 18.469 8.18741C18.8693 7.81597 19.3839 7.59858 19.9242 7.57267Z" fill="#263238"/>
<path d="M26.8474 6.93604C27.3011 7.21362 27.8596 8.38488 27.7946 10.8357C27.7389 12.9129 27.0769 13.4234 26.7453 13.5709C26.4136 13.7185 25.7742 13.6238 25.1534 13.5154V14.7625C25.1534 14.7625 26.0077 15.7835 25.9493 16.3563C25.891 16.929 24.7077 17.0577 23.9064 16.4917C23.1052 15.9257 22.4326 14.8383 22.4326 14.8383L22.4592 11.9704C22.4592 11.9704 22.089 12.336 21.4695 11.7809C20.9615 11.3218 20.7917 10.5514 21.1923 10.1452C21.5929 9.73895 22.3291 9.84862 22.6104 10.439C22.6104 10.439 23.6 10.4796 24.9226 9.74572C25.4371 9.46465 25.8795 9.0638 26.2139 8.57565C26.5483 8.08749 26.7654 7.52578 26.8474 6.93604V6.93604Z" fill="#FFEDE5"/>
<path d="M25.5237 10.3049C25.5239 10.3562 25.5093 10.4065 25.4817 10.4494C25.4541 10.4923 25.4148 10.526 25.3686 10.5463C25.3223 10.5665 25.2713 10.5724 25.2218 10.5632C25.1723 10.554 25.1266 10.5302 25.0903 10.4946C25.0541 10.4591 25.0288 10.4134 25.0178 10.3633C25.0068 10.3132 25.0105 10.2609 25.0284 10.213C25.0463 10.165 25.0777 10.1235 25.1186 10.0936C25.1595 10.0637 25.2081 10.0468 25.2584 10.0449C25.3269 10.0449 25.3928 10.0719 25.4423 10.1204C25.4918 10.1688 25.5209 10.235 25.5237 10.3049Z" fill="#263238"/>
<g style="mix-blend-mode:multiply" opacity="0.5">
<g style="mix-blend-mode:multiply" opacity="0.5">
<path d="M25.582 12.0669L26.1749 12.2619C26.1641 12.3025 26.1454 12.3405 26.1199 12.3736C26.0944 12.4066 26.0626 12.4341 26.0264 12.4543C25.9903 12.4746 25.9505 12.4871 25.9094 12.4913C25.8684 12.4955 25.8269 12.4911 25.7876 12.4785C25.7076 12.4507 25.6414 12.3921 25.603 12.3153C25.5646 12.2384 25.5571 12.1493 25.582 12.0669Z" fill="#F28F8F"/>
</g>
</g>
<path d="M27.6261 9.51202L27.1101 9.14372C27.1317 9.10805 27.1602 9.07727 27.194 9.05329C27.2277 9.0293 27.2658 9.0126 27.3061 9.00423C27.3463 8.99586 27.3879 8.99599 27.4281 9.00461C27.4683 9.01323 27.5063 9.03015 27.5399 9.05435C27.6084 9.10526 27.6555 9.18085 27.6715 9.26582C27.6875 9.35079 27.6713 9.43879 27.6261 9.51202Z" fill="#263238"/>
<path d="M27.5041 10.1239C27.5045 10.1752 27.4902 10.2256 27.4628 10.2687C27.4353 10.3118 27.3961 10.3457 27.3499 10.3662C27.3037 10.3866 27.2526 10.3927 27.2031 10.3837C27.1535 10.3746 27.1076 10.3509 27.0712 10.3154C27.0348 10.2799 27.0095 10.2342 26.9983 10.1841C26.9872 10.134 26.9908 10.0816 27.0087 10.0336C27.0266 9.98555 27.0579 9.94396 27.0989 9.91401C27.1398 9.88407 27.1884 9.8671 27.2387 9.86523C27.3071 9.86516 27.3728 9.89202 27.4223 9.9402C27.4717 9.98838 27.501 10.0542 27.5041 10.1239Z" fill="#263238"/>
<g style="mix-blend-mode:multiply" opacity="0.5">
<g style="mix-blend-mode:multiply" opacity="0.5">
<path d="M26.2969 9.96924L26.3314 11.5427L27.1433 11.2894L26.2969 9.96924Z" fill="#F28F8F"/>
</g>
</g>
<g style="mix-blend-mode:multiply" opacity="0.5">
<g style="mix-blend-mode:multiply" opacity="0.5">
<path d="M25.1547 13.5159C24.4994 13.4266 23.1543 13.0258 22.9473 12.4814C23.0307 12.7565 23.1946 12.9989 23.4169 13.1761C23.8176 13.5308 25.1521 13.9371 25.1521 13.9371L25.1547 13.5159Z" fill="#F28F8F"/>
</g>
</g>
<path d="M20.6988 14.7764C19.4147 14.8698 18.8854 15.0363 18.1704 16.6558C17.527 18.1114 15.9882 21.8784 15.6035 22.7179C15.2188 23.5575 15.1458 23.8946 15.4708 24.7734C15.7361 25.4897 17.9037 29.6047 18.1412 30.2046C18.3787 30.8044 18.4835 31.411 18.8881 32.1097C19.2927 32.8084 19.9321 33.4909 20.4375 33.652C21.187 33.8917 22.162 33.5586 22.1899 33.0968C22.2177 32.6351 21.0902 31.8646 20.7837 30.8396C20.9876 30.9764 21.2024 31.0955 21.4258 31.1957C21.7296 31.323 22.0692 31.2946 22.17 31.1186C22.2708 30.9425 21.967 30.8356 21.6964 30.5607C21.5346 30.3968 21.248 30.0285 20.8819 29.7036C20.6338 29.4842 20.2279 29.4192 20.0448 29.1782C19.9467 29.0495 19.5009 27.9352 19.1653 26.9426C18.7514 25.7118 18.2062 24.0734 18.2062 24.0734L20.4375 19.3341C20.4375 19.3341 22.1872 17.5522 20.6988 14.7764Z" fill="#FFEDE5"/>
<path d="M18.1372 30.2042C18.1372 30.2042 18.6506 29.144 20.0409 29.1778L19.6734 28.3438C19.6734 28.3438 18.3163 28.4412 17.7446 29.3796L18.1372 30.2042Z" fill="#37474F"/>
<path d="M17.9874 29.304L18.2858 29.736C18.3074 29.7674 18.335 29.794 18.3669 29.8143C18.3988 29.8346 18.4344 29.8481 18.4716 29.854C18.5087 29.86 18.5467 29.8582 18.5831 29.8489C18.6196 29.8395 18.6538 29.8228 18.6838 29.7996L19.2144 29.3934C19.2761 29.3452 19.3174 29.2748 19.33 29.1965C19.3426 29.1183 19.3254 29.0381 19.2821 28.9723L19.0048 28.5552C18.984 28.523 18.9569 28.4955 18.9253 28.4743C18.8937 28.4532 18.8582 28.4388 18.8209 28.4321C18.7837 28.4254 18.7455 28.4264 18.7087 28.4353C18.6719 28.4441 18.6373 28.4605 18.6069 28.4834L18.0444 28.8897C17.9831 28.937 17.9428 29.0072 17.9321 29.0848C17.9214 29.1625 17.9413 29.2413 17.9874 29.304V29.304Z" fill="#263238"/>
<path d="M17.8878 29.2932L18.1889 29.7251C18.2106 29.7564 18.2382 29.7829 18.2702 29.803C18.3021 29.8232 18.3376 29.8367 18.3747 29.8426C18.4118 29.8485 18.4497 29.8468 18.4861 29.8376C18.5226 29.8283 18.5568 29.8117 18.5869 29.7888L19.1175 29.3825C19.1791 29.3343 19.2205 29.264 19.2333 29.1859C19.2461 29.1077 19.2294 29.0275 19.1865 28.9614L18.9092 28.5444C18.8882 28.5123 18.8611 28.485 18.8295 28.4639C18.7979 28.4429 18.7624 28.4285 18.7252 28.4218C18.688 28.4151 18.6499 28.4162 18.6131 28.4249C18.5764 28.4336 18.5417 28.4499 18.5112 28.4726L17.9488 28.8856C17.8885 28.932 17.8484 29.0006 17.837 29.0767C17.8256 29.1529 17.8438 29.2305 17.8878 29.2932Z" fill="#455A64"/>
<path d="M19.1321 29.1509C19.1254 29.2045 19.0982 29.2532 19.0565 29.2863L18.5258 29.6926C18.5074 29.7076 18.486 29.7184 18.4631 29.7242C18.4402 29.7301 18.4164 29.7308 18.3932 29.7264C18.3704 29.7228 18.3486 29.7146 18.329 29.7023C18.3094 29.69 18.2924 29.6738 18.2791 29.6546L17.9766 29.2213C17.9511 29.1854 17.9397 29.1409 17.9448 29.0968C17.9466 29.07 17.9542 29.044 17.967 29.0205C17.9799 28.9971 17.9977 28.9769 18.0191 28.9614L18.5815 28.5551C18.6004 28.5409 18.6219 28.5308 18.6447 28.5254C18.6675 28.52 18.6912 28.5196 18.7142 28.524C18.7369 28.5281 18.7586 28.5368 18.778 28.5496C18.7973 28.5624 18.814 28.579 18.827 28.5985L19.1042 29.0155C19.1302 29.0554 19.1415 29.1034 19.136 29.1509H19.1321Z" fill="url(#paint9_linear_289_4285)"/>
</g>
</g>
<defs>
<linearGradient id="paint0_linear_289_4285" x1="50" y1="24.7253" x2="-6.033e-08" y2="24.7253" gradientUnits="userSpaceOnUse">
<stop stop-color="#C66720"/>
<stop offset="1" stop-color="#F0A508"/>
</linearGradient>
<linearGradient id="paint1_linear_289_4285" x1="13.9853" y1="41.8774" x2="7.88011" y2="41.5942" gradientUnits="userSpaceOnUse">
<stop stop-color="#92A3FD"/>
<stop offset="1" stop-color="#9DCEFF"/>
</linearGradient>
<linearGradient id="paint2_linear_289_4285" x1="12.6901" y1="39.6358" x2="10.4214" y2="39.2106" gradientUnits="userSpaceOnUse">
<stop stop-color="#92A3FD"/>
<stop offset="1" stop-color="#9DCEFF"/>
</linearGradient>
<linearGradient id="paint3_linear_289_4285" x1="12.932" y1="38.7555" x2="10.6698" y2="38.3697" gradientUnits="userSpaceOnUse">
<stop stop-color="#92A3FD"/>
<stop offset="1" stop-color="#9DCEFF"/>
</linearGradient>
<linearGradient id="paint4_linear_289_4285" x1="39.4675" y1="44.9128" x2="28.6205" y2="43.5576" gradientUnits="userSpaceOnUse">
<stop stop-color="#92A3FD"/>
<stop offset="1" stop-color="#9DCEFF"/>
</linearGradient>
<linearGradient id="paint5_linear_289_4285" x1="35.9105" y1="42.0034" x2="33.8025" y2="41.6873" gradientUnits="userSpaceOnUse">
<stop stop-color="#92A3FD"/>
<stop offset="1" stop-color="#9DCEFF"/>
</linearGradient>
<linearGradient id="paint6_linear_289_4285" x1="36.7714" y1="42.5475" x2="34.4396" y2="42.1671" gradientUnits="userSpaceOnUse">
<stop stop-color="#92A3FD"/>
<stop offset="1" stop-color="#9DCEFF"/>
</linearGradient>
<linearGradient id="paint7_linear_289_4285" x1="37.7227" y1="43.0227" x2="35.4214" y2="42.6542" gradientUnits="userSpaceOnUse">
<stop stop-color="#92A3FD"/>
<stop offset="1" stop-color="#9DCEFF"/>
</linearGradient>
<linearGradient id="paint8_linear_289_4285" x1="35.6755" y1="43.557" x2="6.88006" y2="41.0854" gradientUnits="userSpaceOnUse">
<stop stop-color="#92A3FD"/>
<stop offset="1" stop-color="#9DCEFF"/>
</linearGradient>
<linearGradient id="paint9_linear_289_4285" x1="19.1374" y1="29.7292" x2="17.5461" y2="29.6076" gradientUnits="userSpaceOnUse">
<stop stop-color="#92A3FD"/>
<stop offset="1" stop-color="#9DCEFF"/>
</linearGradient>
<clipPath id="clip0_289_4285">
<rect width="32.7556" height="40.3836" fill="white" transform="translate(8.99991 5)"/>
</clipPath>
</defs>
</svg>
