<svg width="60" height="60" viewBox="0 0 60 60" fill="none" xmlns="http://www.w3.org/2000/svg">
<rect opacity="0.3" width="60" height="60" rx="12" fill="url(#paint0_linear_260_7217)"/>
<g clip-path="url(#clip0_260_7217)">
<path d="M10.0184 24.0764C10.194 26.9602 17.393 29.4966 29.5786 29.4966C42.1857 29.4966 49.0335 27.5856 49.1388 24.0764C49.2442 20.5672 42.4315 18.0308 29.8596 18.0655C19.3245 18.1003 10.475 18.8299 10.0184 24.0764Z" fill="#F7D3B0"/>
<path d="M10.8613 24.0417C11.0369 26.6128 17.9199 28.8712 29.5787 28.8712C41.6239 28.8712 48.1908 27.1687 48.2961 24.0417C48.4015 20.9147 41.8697 18.6215 29.8597 18.691C19.7459 18.7257 11.2827 19.3859 10.8613 24.0417Z" fill="#E2BFA3"/>
<path d="M10.8613 24.0417C11.0018 26.0916 15.4265 27.9679 23.2225 28.628C22.8011 28.35 22.4148 28.0373 21.9934 27.7246C19.6055 25.8137 17.674 23.312 16.4449 20.4977C16.3396 20.2545 16.2342 20.0113 16.1289 19.7681C13.0386 20.5325 11.072 21.8528 10.8613 24.0417Z" fill="#CEAD97"/>
<path d="M19.6053 27.0296C19.4648 26.8906 19.2892 26.7516 19.1839 26.5432C19.0785 26.3347 19.0434 26.1262 19.0083 25.9178C18.8678 25.3271 18.4113 24.8407 17.8143 24.6322C17.6739 24.5627 17.4983 24.528 17.3929 24.4237C17.2876 24.2847 17.2876 24.1458 17.2876 23.972C17.2173 23.3466 16.7608 22.8255 16.1638 22.617C15.9882 22.5475 15.7775 22.5128 15.6371 22.4085C15.2859 22.1653 15.3561 21.6441 15.1454 21.2619C15.0401 21.0535 14.8294 20.9145 14.6538 20.7408C14.3377 20.4976 14.0217 20.2196 13.7056 19.9764C13.3896 19.6984 13.0384 19.4552 12.617 19.3857C12.4063 19.351 12.1605 19.3857 11.9849 19.2467C11.8093 19.1425 11.7742 18.934 11.6688 18.7603C11.2826 17.9959 10.1237 17.7875 9.45647 18.3434C8.78925 18.8993 8.78925 20.0459 9.45647 20.6018C8.99995 20.984 8.96483 21.7136 9.21065 22.2348C9.45647 22.756 9.94811 23.1729 10.4398 23.5204C10.5451 23.6246 10.6856 23.6941 10.7558 23.8331C10.8612 24.0415 10.826 24.25 10.826 24.4585C10.826 25.4313 11.5635 26.3694 12.5468 26.5779L20.0618 29.4617C20.413 28.6626 20.2023 27.655 19.6053 27.0296Z" fill="#6FB56B"/>
<path d="M17.8495 21.5747C17.4281 21.0535 17.0418 20.5324 16.7959 19.9417C16.5501 19.3511 16.4799 18.6214 16.7257 18.0307C16.7959 17.8918 16.9013 17.718 16.9013 17.5791C16.9364 17.3706 16.8662 17.1969 16.8311 16.9884C16.6906 16.2935 16.9715 15.5639 17.4983 15.1122C18.025 14.6605 18.7976 14.5215 19.4648 14.7647C19.8862 14.4173 20.5184 14.3478 21.01 14.591C21.5016 14.8342 21.8177 15.3901 21.7826 15.9113C22.3093 15.7723 22.8361 16.1198 23.117 16.5715C23.398 17.0231 23.4331 17.5791 23.4682 18.1002C24.2408 18.0655 25.0133 18.4129 25.505 19.0036C25.9615 19.5943 26.1371 20.4629 25.8913 21.1925C26.6287 21.7832 27.3311 22.4781 27.5067 23.4162C27.6822 24.3196 27.0852 25.4314 26.1371 25.4661C26.6638 25.5009 26.9097 26.1958 26.6638 26.6822C26.4531 27.1339 25.9264 27.4119 25.4699 27.6203C24.4866 28.0373 23.4682 28.3152 22.4147 28.4542C21.7826 28.5237 21.1505 28.5584 20.5535 28.35C19.2541 27.8635 18.6572 26.4737 18.2006 25.2924C17.7441 24.2501 16.4448 22.4433 17.8495 21.5747Z" fill="#81CC7A"/>
<path d="M36.1807 18.7603C36.5318 18.2392 37.2342 17.996 37.8312 18.1697C37.9014 17.4053 38.5335 16.7451 39.271 16.6409C40.0084 16.5367 40.8161 16.9884 41.1322 17.6832C41.6238 17.3011 42.3964 17.7527 42.5369 18.3434C42.6773 18.9341 42.3613 19.5595 41.975 20.0459C42.4666 20.1849 42.7124 20.8103 42.6422 21.2967C42.572 21.7831 42.2559 22.2348 41.9399 22.6865C42.6071 23.1729 42.7124 24.1805 42.3261 24.8754C41.9399 25.5703 41.0971 25.9873 40.2894 26.022C39.4465 26.0568 38.7442 25.7093 37.9716 25.3619C35.3379 28.5584 31.8613 21.0882 36.2158 20.5323C35.8997 19.9764 35.8295 19.2815 36.1807 18.7603Z" fill="#6FB56B"/>
<path d="M39.8327 21.8524C40.1838 21.2618 40.6052 20.7406 41.132 20.3237C41.5183 20.011 41.9748 19.8025 42.4313 19.594C43.6604 19.0034 45.1704 18.378 46.3293 19.0729C46.54 19.2118 46.7507 19.3508 46.9614 19.4898C47.4531 19.733 48.05 19.6635 48.6119 19.6635C49.1738 19.6635 49.7708 19.733 50.2273 20.0457C50.7189 20.3584 51.035 20.8796 50.9999 21.4355C50.9648 21.7135 50.8243 21.9914 50.8243 22.3041C50.8243 22.5473 50.9296 22.7906 50.9648 23.0685C51.0701 23.6939 50.6487 24.4236 49.9815 24.5278C49.7708 24.5625 49.525 24.5278 49.2791 24.5625C48.2607 24.7015 47.8393 25.9871 46.9263 26.3693C46.6454 26.4735 46.3644 26.5083 46.0835 26.5777C45.8025 26.682 45.5216 26.821 45.2407 26.9599C43.4848 27.7591 41.2022 27.3421 39.8678 25.9523C38.6738 24.6668 39.025 23.1728 39.8327 21.8524Z" fill="#81CC7A"/>
<path d="M36.4966 26.5433C36.602 26.578 36.6722 26.6128 36.7776 26.578C36.8829 26.5433 36.918 26.4043 36.9532 26.3001C37.1639 25.6747 37.9364 25.2925 38.6037 25.5009C38.7441 25.5357 38.8846 25.6052 39.0251 25.6052C39.2358 25.5704 39.3762 25.3967 39.5518 25.2925C39.9732 24.9798 40.6053 25.0145 40.9916 25.362C41.097 25.4662 41.2023 25.5704 41.3077 25.6399C41.4481 25.7094 41.6237 25.6747 41.7642 25.7442C42.2909 25.8831 42.3963 26.6475 42.9231 26.7865C43.2742 26.2306 44.117 26.1264 44.6789 26.5085C45.2408 26.8907 45.4515 27.5856 45.4164 28.2458C45.311 29.7051 43.8712 30.9211 42.4314 30.8169C41.7642 30.7822 41.1321 30.4695 40.4649 30.4695C39.8328 30.4695 39.2358 30.7474 38.6388 30.9559C37.199 31.5118 35.7592 31.3381 35.3378 29.7051C35.0568 28.767 34.6706 26.1264 36.4966 26.5433Z" fill="#6FB56B"/>
<path d="M37.7257 18.7603C37.7257 18.7603 36.1455 21.7831 40.2542 23.555C44.3629 25.327 45.5217 21.8873 45.5217 21.8873L37.7257 18.7603Z" fill="#E24C24"/>
<path d="M45.4503 21.9556C45.8019 21.1236 44.3609 19.7349 42.2315 18.8539C40.1022 17.9729 38.091 17.9333 37.7393 18.7654C37.3876 19.5974 38.8287 20.9861 40.958 21.8671C43.0873 22.7481 45.0986 22.7877 45.4503 21.9556Z" fill="#FF5A27"/>
<path d="M45.1261 21.8215C45.4329 21.0957 44.1005 19.8531 42.1501 19.0462C40.1997 18.2392 38.3699 18.1735 38.0632 18.8993C37.7564 19.6252 39.0888 20.8678 41.0392 21.6747C42.9896 22.4817 44.8194 22.5474 45.1261 21.8215Z" fill="#FF8B78"/>
<path d="M40.4296 19.2815C40.254 19.2815 40.0433 19.3162 40.0082 19.49C39.9731 19.5595 39.9731 19.6289 39.9379 19.6984C39.9028 19.7679 39.8326 19.7679 39.7975 19.8374C39.7624 19.8722 39.7975 19.9416 39.7975 19.9764C39.8677 20.2891 40.2189 20.4281 40.5349 20.4976C41.3075 20.7408 42.0801 21.0187 42.8526 21.262C43.0633 21.3314 43.3092 21.4009 43.4496 21.262C43.5901 21.1577 43.5901 20.9492 43.5199 20.7755C43.4496 20.6018 43.3092 20.4976 43.1687 20.3933C42.7473 20.0806 42.2908 19.7679 41.7991 19.5942C41.3777 19.4552 40.9563 19.2815 40.4296 19.2815Z" fill="#FF5A27"/>
<path d="M38.744 19.2116C38.8845 19.2463 39.025 19.3158 39.1654 19.3506C39.2005 19.3506 39.2357 19.3506 39.2357 19.3158C39.2708 19.3158 39.2708 19.2811 39.2708 19.2463C39.2708 19.1769 39.2357 19.1421 39.1654 19.1074C39.1303 19.1074 39.0601 19.0726 39.025 19.0726H39.0601C38.9547 19.0379 38.8845 19.0379 38.7791 19.0031C38.7089 18.9684 38.6387 19.0031 38.6387 19.0726C38.6738 19.1074 38.6738 19.2116 38.744 19.2116Z" fill="#FFB164"/>
<path d="M39.2358 18.9339C39.3762 19.0034 39.4816 18.7949 39.3411 18.7254C39.2006 18.6559 39.0953 18.8644 39.2358 18.9339Z" fill="#FFB164"/>
<path d="M39.2356 18.9336C39.3059 18.9684 39.3761 19.0031 39.4815 19.0379C39.5166 19.0379 39.5517 19.0379 39.5868 19.0379C39.6219 19.0379 39.657 19.0031 39.657 18.9684C39.657 18.9336 39.657 18.8989 39.657 18.8642C39.657 18.8294 39.6219 18.8294 39.5868 18.7947C39.5166 18.7599 39.4463 18.7252 39.341 18.6904C39.3059 18.6904 39.2708 18.6904 39.2356 18.6904C39.2005 18.6904 39.1654 18.7252 39.1654 18.7599C39.1654 18.7947 39.1654 18.8294 39.1654 18.8642C39.2005 18.8989 39.2005 18.8989 39.2356 18.9336Z" fill="#FFB164"/>
<path d="M40.1487 18.6906C40.1487 18.7253 40.1487 18.7253 40.1487 18.7601C40.1487 18.7948 40.1487 18.7948 40.1838 18.8296C40.2189 18.8643 40.2189 18.899 40.2891 18.9338C40.2891 18.9338 40.3243 18.9338 40.3243 18.9685H40.3594H40.3945C40.3945 18.9685 40.4296 18.9685 40.4296 18.9338V18.899C40.4296 18.8643 40.4296 18.8643 40.4296 18.8296C40.4296 18.7948 40.3945 18.7601 40.3945 18.7601C40.3945 18.7601 40.3945 18.7601 40.4296 18.7948L40.3945 18.7601C40.3945 18.7601 40.3945 18.7601 40.3945 18.7948C40.3945 18.7948 40.3945 18.7601 40.3594 18.7601V18.7948V18.7601V18.7948V18.7601C40.3594 18.7601 40.3594 18.7253 40.3243 18.7253L40.2891 18.6906H40.254C40.2189 18.6906 40.1838 18.6906 40.1838 18.7253C40.1838 18.6558 40.1487 18.6906 40.1487 18.6906Z" fill="#FFB164"/>
<path d="M40.9564 18.8992C40.9564 18.934 40.9213 18.9687 40.9213 19.0382V19.073C40.9213 19.073 40.9213 19.1077 40.9564 19.1077L40.9915 19.1424H41.0266C41.0617 19.1424 41.0968 19.1424 41.0968 19.1077C41.0968 19.1077 41.0968 19.1077 41.132 19.073C41.132 19.073 41.1671 19.0382 41.1671 19.0035C41.1671 18.9687 41.2022 18.934 41.2022 18.8645V18.8297C41.2022 18.8297 41.2022 18.795 41.1671 18.795L41.132 18.7603H41.0968C41.0617 18.7603 41.0266 18.7603 41.0266 18.795C41.0266 18.795 41.0266 18.795 40.9915 18.8297C40.9564 18.8645 40.9564 18.8645 40.9564 18.8992Z" fill="#FFB164"/>
<path d="M42.3261 19.6288C42.3613 19.594 42.4315 19.594 42.4666 19.5593C42.4666 19.5593 42.5017 19.5593 42.5017 19.5246L42.5368 19.4898V19.4551V19.4203C42.5368 19.4203 42.5368 19.4203 42.5368 19.3856L42.5017 19.3508H42.4666C42.4315 19.3508 42.4315 19.3508 42.3964 19.3508C42.3613 19.3856 42.291 19.3856 42.2559 19.4203C42.2559 19.4203 42.2208 19.4203 42.2208 19.4551L42.1857 19.4898V19.5246V19.5593C42.1857 19.5593 42.1857 19.5593 42.1857 19.594L42.2208 19.6288H42.2559C42.291 19.6288 42.3261 19.6288 42.3261 19.6288Z" fill="#FFB164"/>
<path d="M43.239 20.1848C43.3093 20.1848 43.3795 20.2195 43.4848 20.2195C43.52 20.2195 43.5551 20.2195 43.5551 20.1848C43.5902 20.1848 43.5902 20.15 43.5902 20.1153C43.5902 20.0806 43.5902 20.0458 43.5551 20.0458C43.52 20.0111 43.52 20.0111 43.4848 20.0111C43.4146 20.0111 43.3444 19.9763 43.239 19.9763C43.2039 19.9763 43.1688 19.9763 43.1688 20.0111C43.1337 20.0111 43.1337 20.0458 43.1337 20.0806C43.1337 20.1153 43.1337 20.15 43.1688 20.15C43.2039 20.15 43.2039 20.1848 43.239 20.1848Z" fill="#FFB164"/>
<path d="M43.8712 20.7751C43.9766 20.8446 44.1171 20.8793 44.2224 20.8793C44.2575 20.8793 44.2926 20.8793 44.2926 20.8446C44.3278 20.8446 44.3278 20.8098 44.3278 20.7751C44.3278 20.7403 44.3278 20.7056 44.2926 20.7056C44.2575 20.6708 44.2575 20.6708 44.2224 20.6708C44.1873 20.6708 44.1873 20.6708 44.1522 20.6708H44.1873C44.1171 20.6361 44.0117 20.6014 43.9415 20.5666C43.8712 20.5319 43.801 20.5666 43.801 20.6361C43.7659 20.6708 43.801 20.7403 43.8712 20.7751Z" fill="#FFB164"/>
<path d="M44.0819 21.4355C44.1872 21.505 44.2574 21.5745 44.3628 21.644C44.3979 21.6787 44.433 21.6787 44.433 21.6787C44.4682 21.6787 44.5033 21.644 44.5033 21.644C44.5384 21.6092 44.5384 21.505 44.4682 21.4703C44.3628 21.4008 44.2926 21.3313 44.1872 21.2618C44.1521 21.2271 44.117 21.2271 44.117 21.2271C44.0819 21.2271 44.0467 21.2618 44.0467 21.2618C44.0116 21.3313 44.0116 21.4008 44.0819 21.4355Z" fill="#FFB164"/>
<path d="M43.4498 21.6093C43.4849 21.6788 43.52 21.7483 43.5552 21.8177C43.5552 21.8177 43.5552 21.8525 43.5903 21.8525L43.6254 21.8872C43.6605 21.8872 43.6956 21.8872 43.7307 21.8872C43.7659 21.8872 43.7659 21.8525 43.801 21.8177C43.801 21.783 43.801 21.7483 43.801 21.7135C43.7659 21.644 43.7307 21.5745 43.6956 21.505C43.6956 21.505 43.6956 21.4703 43.6605 21.4703L43.6254 21.4355C43.5903 21.4355 43.5552 21.4355 43.52 21.4355C43.4849 21.4355 43.4849 21.4703 43.4498 21.505C43.4498 21.5398 43.4147 21.5745 43.4498 21.6093Z" fill="#FFB164"/>
<path d="M42.5367 21.6093V21.644C42.5367 21.644 42.5367 21.644 42.5367 21.6093C42.5367 21.644 42.5367 21.6788 42.5367 21.6788V21.644C42.5367 21.644 42.5367 21.644 42.5367 21.6788V21.7135V21.7483C42.5367 21.7483 42.5367 21.783 42.5718 21.783L42.607 21.8177C42.6421 21.8177 42.6772 21.8177 42.7123 21.8177C42.7474 21.8177 42.7825 21.783 42.7825 21.7483C42.7825 21.7135 42.8177 21.6788 42.8177 21.644C42.8177 21.6093 42.8177 21.5745 42.8177 21.5398C42.8177 21.505 42.7825 21.4703 42.7825 21.4703C42.7825 21.4703 42.7474 21.4703 42.7474 21.4355H42.7123C42.6772 21.4355 42.6421 21.4703 42.6421 21.4703V21.505C42.5367 21.5745 42.5016 21.6093 42.5367 21.6093Z" fill="#FFB164"/>
<path d="M41.3076 21.2965C41.3076 21.3313 41.3076 21.3313 41.3076 21.366V21.3313C41.3076 21.366 41.2725 21.4008 41.2725 21.4008V21.4355V21.4703C41.2725 21.505 41.3076 21.5398 41.3427 21.5398C41.3778 21.5398 41.4129 21.5398 41.448 21.5398C41.448 21.5398 41.448 21.5398 41.4832 21.5398L41.5183 21.505C41.5183 21.4703 41.5534 21.4355 41.5534 21.4355C41.5534 21.4008 41.5885 21.366 41.5885 21.3313C41.5885 21.2965 41.5885 21.2618 41.5534 21.2618L41.5183 21.2271H41.4832C41.448 21.2271 41.4129 21.2271 41.4129 21.2618C41.3076 21.2271 41.3076 21.2618 41.3076 21.2965Z" fill="#FFB164"/>
<path d="M40.4648 20.9144V20.9491V20.9144C40.4648 20.9491 40.4297 20.9491 40.4297 20.9491C40.4297 20.9491 40.4648 20.9491 40.4648 20.9144C40.4297 20.9491 40.4297 20.9839 40.3946 20.9839C40.3946 20.9839 40.3946 20.9839 40.4297 20.9839C40.4297 20.9839 40.3946 20.9839 40.3946 21.0186C40.3946 21.0186 40.3595 21.0186 40.3595 21.0534L40.3243 21.0881C40.3243 21.1228 40.3243 21.1576 40.3243 21.1923C40.3243 21.2271 40.3595 21.2271 40.3946 21.2618H40.4297C40.4648 21.2618 40.4648 21.2618 40.4999 21.2618C40.535 21.2618 40.535 21.2271 40.5702 21.2271L40.6053 21.1923C40.6404 21.1576 40.6404 21.1576 40.6404 21.1228C40.6404 21.0881 40.6755 21.0881 40.6755 21.0534C40.6755 21.0186 40.6755 20.9839 40.6755 20.9491C40.6755 20.9144 40.6404 20.8796 40.6053 20.8796C40.5702 20.8796 40.535 20.8796 40.4999 20.8796C40.4999 20.8449 40.4648 20.8796 40.4648 20.9144Z" fill="#FFB164"/>
<path d="M39.7274 20.1845C39.6923 20.1845 39.6572 20.2192 39.622 20.2192H39.6572C39.5869 20.2192 39.5518 20.254 39.4816 20.254C39.4465 20.254 39.4113 20.2887 39.4113 20.2887C39.3762 20.3235 39.3762 20.3582 39.3762 20.3582C39.3762 20.3929 39.4113 20.4277 39.4113 20.4277H39.4465C39.4816 20.4277 39.4816 20.4277 39.5167 20.4277C39.622 20.4277 39.7274 20.3929 39.8327 20.3582C39.8679 20.3582 39.8679 20.3235 39.903 20.2887C39.903 20.254 39.903 20.2192 39.903 20.1845C39.903 20.1497 39.8679 20.1497 39.8327 20.115C39.7976 20.1845 39.7625 20.1845 39.7274 20.1845Z" fill="#FFB164"/>
<path d="M38.7791 19.837C38.8143 19.837 38.8494 19.8022 38.8845 19.8022C38.8845 19.8022 38.9196 19.8022 38.9196 19.7675L38.9547 19.7327V19.698V19.6632C38.9547 19.6632 38.9547 19.6632 38.9547 19.6285L38.9196 19.5938H38.8845C38.8494 19.5938 38.8494 19.5938 38.8143 19.5938C38.7791 19.5938 38.744 19.6285 38.7089 19.6285C38.7089 19.6285 38.6738 19.6285 38.6738 19.6632L38.6387 19.698V19.7327V19.7675C38.6387 19.7675 38.6387 19.7675 38.6387 19.8022L38.6738 19.837H38.7089C38.744 19.837 38.744 19.837 38.7791 19.837Z" fill="#FFB164"/>
<path opacity="0.24" d="M38.1471 21.5743C38.3227 21.8175 38.4632 22.0607 38.7441 22.165C38.8494 22.1997 38.9548 22.2345 39.025 22.1302C39.0601 22.0607 39.025 21.9565 38.9899 21.887C38.8846 21.748 38.7792 21.5743 38.7441 21.4006C38.6739 21.0879 38.6036 20.4277 38.112 20.4277C37.5852 20.4625 38.0066 21.4006 38.1471 21.5743Z" fill="white"/>
<path d="M25.3995 24.0068C25.0484 23.2771 25.0133 22.3738 25.5049 21.7136C25.9263 21.1577 26.6286 20.845 27.2959 20.567C26.4179 19.7679 26.2072 18.4128 26.8042 17.4052C27.4012 16.3976 28.7357 15.8417 29.9296 16.0849C29.6487 15.2163 30.3862 14.2435 31.3694 14.035C32.3176 13.8265 33.3711 14.3129 33.8979 15.0773C34.5651 14.6951 35.5484 14.8341 36.04 15.39C36.5317 15.9807 36.4965 16.8841 35.9347 17.4052C36.8828 18.2044 36.9882 19.6984 36.1454 20.6018C36.6721 21.0187 36.9531 21.6441 36.8477 22.2695C36.7775 22.8949 36.3561 23.4508 35.7591 23.7635C35.8995 24.1805 36.0049 24.6322 35.7942 25.0144C35.5484 25.466 34.9514 25.6398 34.4246 25.6398C33.8979 25.6398 33.336 25.5355 32.8092 25.6398C33.0199 26.1262 32.5985 26.6821 32.0718 26.8906C31.545 27.0991 30.948 27.0296 30.3862 26.9948C29.7541 26.9253 29.122 26.8558 28.4547 26.8211C28.1036 26.7863 27.7173 26.7516 27.4363 26.5431C27.0852 26.2999 26.9798 25.744 26.6638 25.4313C26.2072 24.9796 25.7156 24.6322 25.3995 24.0068Z" fill="#89E269"/>
<path d="M37.3042 24.0066L37.234 25.2574C37.234 25.2574 37.8661 27.0294 40.6052 27.3768C43.6604 27.759 45.9079 26.7862 45.943 24.9794C45.943 24.6667 45.5568 23.9023 45.5568 23.9023L37.2691 23.9718L37.3042 24.0066Z" fill="#59B24F"/>
<path d="M45.6002 24.3523C45.6614 23.1833 43.8582 22.1406 41.5726 22.0233C39.2871 21.9061 37.3846 22.7587 37.3233 23.9278C37.2621 25.0968 39.0652 26.1395 41.3508 26.2567C43.6364 26.3739 45.5389 25.5213 45.6002 24.3523Z" fill="#84D17D"/>
<path d="M45.3462 24.2847C45.3813 25.188 43.6957 25.9872 41.5535 25.9177C39.4465 25.8482 37.5853 24.8753 37.5502 23.972C37.5151 23.0686 39.3763 22.1652 41.4833 22.2347C43.6254 22.339 45.311 23.3813 45.3462 24.2847Z" fill="#B0EDA9"/>
<path d="M39.0951 23.798C39.0249 23.7285 38.9547 23.659 38.9196 23.5895C38.9196 23.4505 39.0951 23.3811 39.2356 23.3811C39.5517 23.3463 39.8326 23.4158 40.1135 23.52C40.0082 23.4158 39.938 23.2768 39.9028 23.1726C39.9028 23.1378 39.8677 23.1031 39.9028 23.1031C39.938 23.0336 40.0082 23.0336 40.0784 23.0684C40.3945 23.2073 40.7105 23.3811 41.0266 23.5895C40.9563 23.4505 40.8861 23.3116 40.851 23.1726C40.851 23.0336 40.8861 22.8599 41.0266 22.7904C41.2022 22.6862 41.4129 22.7904 41.5533 22.9294C41.6938 23.0684 41.764 23.2768 41.7992 23.4505C42.045 23.2421 42.3961 23.1378 42.7473 23.1726C42.8176 23.1726 42.9229 23.2073 42.958 23.2768C43.0283 23.3811 42.9229 23.4853 42.8176 23.5548C43.2038 23.4505 43.6604 23.5548 43.9764 23.8327C44.0115 23.8675 44.0466 23.9022 44.0466 23.9717C44.0466 24.0065 44.0115 24.0412 44.0115 24.0412C43.8711 24.2149 43.6604 24.3192 43.4497 24.3539C43.239 24.3887 42.9931 24.3887 42.7824 24.3887C42.9931 24.4581 43.2038 24.5624 43.4145 24.7014C43.4497 24.7014 43.4497 24.7361 43.4848 24.7708C43.4848 24.8056 43.4848 24.8056 43.4497 24.8403C43.3092 25.0836 42.9931 25.153 42.7122 25.0488C42.4313 24.9793 42.2206 24.8056 41.9747 24.6319C42.0801 24.7708 42.1854 24.9446 42.1503 25.1183C42.1152 25.292 41.9747 25.431 41.7992 25.3963C41.7289 25.3615 41.6587 25.3268 41.6236 25.2573C41.448 25.0836 41.3075 24.8751 41.2373 24.6666C41.2373 24.9446 40.9915 25.1878 40.6754 25.2225C40.6052 25.2225 40.5349 25.2225 40.4647 25.153C40.3945 25.0836 40.3945 24.9793 40.4296 24.9098C40.4647 24.8403 40.5349 24.7708 40.6052 24.7014C40.3945 24.8403 40.1487 24.9446 39.938 24.8056C39.8677 24.7708 39.8326 24.7014 39.8326 24.6319C39.8326 24.5971 39.9028 24.5624 39.938 24.5276C40.0433 24.4581 40.2891 24.3887 40.3242 24.2844C39.8326 24.1454 39.4463 24.076 39.0951 23.798Z" fill="#C1FFB8"/>
<path d="M23.679 30.5389L25.0486 31.5812C25.0486 31.5812 27.8229 32.4499 31.0887 30.4347C34.776 28.1762 36.0754 25.5356 34.0035 24.0763C33.6523 23.8331 32.3178 23.5552 32.3178 23.5552L23.5386 30.5041L23.679 30.5389Z" fill="#59B24F"/>
<path d="M29.6666 29.5453C32.4521 27.9481 34.0874 25.5901 33.3192 24.2785C32.551 22.967 29.6701 23.1985 26.8846 24.7956C24.0991 26.3928 22.4637 28.7508 23.232 30.0623C24.0002 31.3739 26.8811 31.1424 29.6666 29.5453Z" fill="#84D17D"/>
<path d="M32.5636 24.0416C33.6171 24.7365 32.7743 26.7864 30.4215 28.4889C28.0686 30.1914 24.9783 30.9906 23.8897 30.2957C22.8362 29.6008 23.7492 27.3771 26.067 25.6746C28.3847 23.9721 31.5101 23.3467 32.5636 24.0416Z" fill="#B0EDA9"/>
<path d="M25.3294 28.9059C25.189 28.9406 25.0134 28.9406 24.908 28.8711C24.7324 28.7669 24.8378 28.5584 24.9783 28.4194C25.2592 28.1415 25.6455 27.933 26.0669 27.7593C25.8562 27.7593 25.6104 27.7246 25.4348 27.6551C25.3997 27.6551 25.3294 27.6203 25.3294 27.5856C25.2592 27.5161 25.3997 27.4466 25.505 27.4118C25.9966 27.2381 26.5585 27.0991 27.0853 27.0297C26.8395 26.9949 26.6288 26.9602 26.4532 26.8559C26.2776 26.7517 26.1722 26.578 26.2073 26.4042C26.2776 26.1958 26.5936 26.0568 26.9097 26.0568C27.2257 26.0568 27.5067 26.161 27.7876 26.2653C27.8227 25.8831 28.0686 25.5009 28.4548 25.2577C28.5602 25.1882 28.6655 25.1534 28.806 25.1534C28.9816 25.1882 29.0167 25.3619 28.9816 25.5009C29.2625 25.0839 29.8946 24.806 30.5267 24.7712C30.597 24.7712 30.7023 24.7712 30.7726 24.806C30.8077 24.8407 30.8077 24.8755 30.8428 24.9102C30.913 25.1534 30.8077 25.4314 30.597 25.6399C30.4214 25.8483 30.1756 26.0568 29.9298 26.2305C30.2458 26.0915 30.597 26.0221 30.9833 25.9526C31.0184 25.9526 31.0886 25.9526 31.1237 25.9526C31.1589 25.9526 31.1589 25.9873 31.194 26.0221C31.2993 26.3348 31.0535 26.6475 30.6672 26.8212C30.2809 26.9949 29.8244 27.0297 29.403 27.0991C29.6839 27.0991 29.9649 27.1686 30.1405 27.3424C30.316 27.4813 30.2809 27.7593 30.0702 27.8635C29.9649 27.8983 29.8244 27.933 29.7191 27.933C29.3328 27.933 28.9816 27.8983 28.6304 27.794C28.9465 28.0373 28.9816 28.4194 28.6655 28.6974C28.5953 28.7669 28.49 28.8364 28.3495 28.8364C28.209 28.8364 28.0686 28.7669 28.0334 28.6627C27.9632 28.5584 27.9983 28.4542 27.9983 28.35C27.9281 28.6279 27.7876 28.9406 27.4013 29.0101C27.296 29.0449 27.1555 29.0101 27.0853 28.9406C27.0502 28.9059 27.0502 28.8364 27.0853 28.8016C27.1204 28.6627 27.296 28.3847 27.2257 28.2805C26.5234 28.5237 26.0318 28.8016 25.3294 28.9059Z" fill="#C1FFB8"/>
<path d="M25.5049 16.0502L24.2407 16.6061C24.2407 16.6061 22.7658 18.1001 23.6437 20.9145C24.627 24.0763 26.5935 25.8135 28.3845 24.9449C28.6654 24.8059 29.2624 24.0068 29.2624 24.0068L25.54 15.9807L25.5049 16.0502Z" fill="#59B24F"/>
<path d="M28.7995 24.3834C29.9997 23.943 30.2674 21.7045 29.3975 19.3836C28.5276 17.0627 26.8495 15.5382 25.6493 15.9785C24.4491 16.4189 24.1814 18.6574 25.0513 20.9783C25.9212 23.2992 27.5994 24.8237 28.7995 24.3834Z" fill="#84D17D"/>
<path d="M28.8059 24.0416C27.928 24.4932 26.3828 23.2424 25.5049 21.1577C24.627 19.0731 24.7674 16.7451 25.6454 16.2935C26.5233 15.8418 28.2089 17.1968 29.0868 19.2815C29.9647 21.3662 29.6838 23.5899 28.8059 24.0416Z" fill="#B0EDA9"/>
<path d="M26.4881 17.6832C26.5232 17.5789 26.5232 17.4747 26.6286 17.4052C26.7691 17.3357 26.9095 17.4747 26.9798 17.6137C27.1202 17.8916 27.2256 18.2043 27.2607 18.5518C27.3309 18.4128 27.4012 18.2738 27.5065 18.1696C27.5416 18.1348 27.5416 18.1348 27.5768 18.1001C27.647 18.1001 27.6821 18.1696 27.6821 18.2738C27.7172 18.656 27.6821 19.0382 27.5768 19.4551C27.647 19.3162 27.7523 19.1772 27.8928 19.1077C28.0333 19.0382 28.2089 19.0035 28.3493 19.1077C28.5249 19.2119 28.5249 19.4899 28.4547 19.6984C28.3844 19.9068 28.2089 20.0458 28.0684 20.1848C28.3844 20.3238 28.6654 20.6017 28.7707 20.9492C28.8059 21.0187 28.8059 21.1229 28.7707 21.1924C28.7005 21.2966 28.5249 21.2619 28.4196 21.1924C28.7005 21.5051 28.8059 22.0263 28.6654 22.4432C28.6654 22.5127 28.6303 22.5474 28.56 22.5822C28.5249 22.5822 28.4898 22.5822 28.4547 22.5822C28.2089 22.5474 28.0333 22.3737 27.8928 22.2C27.7523 21.9915 27.647 21.7831 27.5768 21.5398C27.6119 21.7831 27.5768 22.061 27.5416 22.3042C27.5416 22.339 27.5416 22.3737 27.5065 22.4085C27.4714 22.4085 27.4714 22.4085 27.4363 22.4085C27.1554 22.3737 26.9446 22.0958 26.8744 21.7831C26.8393 21.4703 26.9095 21.1576 26.9798 20.8449C26.9095 21.0187 26.7691 21.1924 26.5935 21.2619C26.4179 21.3314 26.2072 21.2271 26.1721 21.0534C26.1721 20.9839 26.1721 20.8797 26.2072 20.8102C26.3125 20.567 26.4179 20.3238 26.5935 20.15C26.3125 20.289 25.9614 20.15 25.8209 19.8721C25.7858 19.8026 25.7507 19.6984 25.7858 19.6289C25.8209 19.5246 25.9263 19.4899 26.0316 19.4899C26.137 19.4899 26.2072 19.5246 26.3125 19.5594C26.1018 19.4204 25.856 19.2119 25.8911 18.934C25.8911 18.8645 25.9614 18.7603 26.0316 18.7603C26.0667 18.7603 26.137 18.7603 26.1721 18.795C26.2774 18.8645 26.4881 19.073 26.5935 19.073C26.4881 18.5865 26.3828 18.1696 26.4881 17.6832Z" fill="#C1FFB8"/>
<path d="M19.8511 25.744C19.8511 25.744 20.0969 29.149 24.5216 28.5236C28.9815 27.8982 28.1387 24.3542 28.1387 24.3542L19.8511 25.744Z" fill="#E24C24"/>
<path d="M24.2504 26.6984C26.5304 26.3445 28.2642 25.3353 28.1229 24.4443C27.9816 23.5533 26.0188 23.118 23.7387 23.4719C21.4587 23.8259 19.7249 24.8351 19.8662 25.726C20.0075 26.617 21.9703 27.0524 24.2504 26.6984Z" fill="#FF5A27"/>
<path d="M24.2178 26.4925C26.3062 26.1683 27.8993 25.2754 27.776 24.4982C27.6528 23.7209 25.8599 23.3537 23.7714 23.6779C21.683 24.0021 20.0899 24.895 20.2132 25.6722C20.3364 26.4494 22.1293 26.8167 24.2178 26.4925Z" fill="#FF8B78"/>
<path d="M22.4498 24.7713C22.3093 24.8755 22.1688 25.0145 22.2039 25.1882C22.2039 25.2577 22.2742 25.3272 22.2742 25.3967C22.2742 25.4662 22.2391 25.5357 22.2391 25.6052C22.2391 25.6399 22.2742 25.7094 22.3093 25.7441C22.5551 25.9526 22.9063 25.8831 23.2223 25.8136C24.03 25.6399 24.8026 25.4314 25.6103 25.2577C25.821 25.223 26.0668 25.1187 26.1019 24.945C26.1722 24.7713 26.0668 24.5976 25.8912 24.4933C25.7508 24.3891 25.5752 24.3543 25.3996 24.3543C24.8728 24.2848 24.3461 24.2848 23.8193 24.3891C23.3277 24.4238 22.8712 24.4933 22.4498 24.7713Z" fill="#FF5A27"/>
<path d="M20.9747 25.6053C21.1152 25.5705 21.2556 25.5358 21.3961 25.501C21.4312 25.501 21.4312 25.4663 21.4663 25.4315C21.4663 25.3968 21.4663 25.362 21.4663 25.3273C21.4312 25.2578 21.361 25.2578 21.3259 25.2578C21.2907 25.2578 21.2556 25.2926 21.1854 25.2926H21.2205C21.1152 25.3273 21.0449 25.3273 20.9396 25.362C20.8693 25.362 20.8342 25.4315 20.8342 25.501C20.8693 25.5705 20.9045 25.6053 20.9747 25.6053Z" fill="#FFB164"/>
<path d="M21.2557 25.084C21.3961 25.0493 21.361 24.8408 21.2205 24.8408C21.045 24.8756 21.0801 25.1188 21.2557 25.084Z" fill="#FFB164"/>
<path d="M21.2557 25.084C21.3611 25.084 21.4313 25.084 21.5367 25.0493C21.5718 25.0493 21.6069 25.0145 21.6069 25.0145C21.6069 24.9798 21.642 24.9451 21.642 24.9451C21.642 24.9103 21.6069 24.8756 21.6069 24.8756C21.5718 24.8408 21.5367 24.8408 21.5367 24.8408C21.4313 24.8408 21.3611 24.8408 21.2557 24.8756C21.2206 24.8756 21.1855 24.9103 21.1855 24.9103C21.1855 24.9451 21.1504 24.9798 21.1504 24.9798C21.1504 25.0145 21.1855 25.0493 21.1855 25.0493C21.1855 25.084 21.2206 25.084 21.2557 25.084Z" fill="#FFB164"/>
<path d="M21.9229 24.424C21.9229 24.4587 21.9581 24.4587 21.9581 24.4935C21.9581 24.5282 21.9932 24.5282 22.0283 24.5282C22.0634 24.5629 22.1336 24.5629 22.1688 24.5977H22.2039C22.2039 24.5977 22.239 24.5977 22.239 24.5629L22.2741 24.5282V24.4935V24.4587C22.2741 24.424 22.2741 24.424 22.239 24.3892C22.2039 24.3545 22.2039 24.3545 22.1688 24.3545C22.1688 24.3545 22.1688 24.3545 22.1336 24.3545H22.1688C22.1688 24.3545 22.1336 24.3545 22.1336 24.3197C22.1336 24.3197 22.1336 24.3197 22.1688 24.3197L22.1336 24.285C22.1336 24.285 22.1336 24.285 22.1688 24.3197L22.1336 24.285C22.1336 24.285 22.1336 24.285 22.1336 24.3197C22.1336 24.3197 22.1336 24.285 22.0985 24.285L22.0634 24.2502H22.0283H21.9932C21.9581 24.2502 21.9581 24.285 21.9229 24.3197C21.8878 24.3545 21.8878 24.3892 21.9229 24.424Z" fill="#FFB164"/>
<path d="M22.6604 24.1806C22.6604 24.2153 22.6955 24.2501 22.6955 24.3195C22.6955 24.3195 22.6955 24.3543 22.7306 24.3543L22.7658 24.389H22.8009H22.836C22.8711 24.389 22.8711 24.3543 22.9062 24.3195V24.2848C22.9062 24.2501 22.9062 24.2501 22.9062 24.2153C22.9062 24.1806 22.8711 24.1458 22.8711 24.0763C22.8711 24.0763 22.8711 24.0416 22.836 24.0416L22.8009 24.0068H22.7658H22.7306C22.6955 24.0068 22.6955 24.0416 22.6604 24.0763V24.1111C22.6604 24.1458 22.6604 24.1458 22.6604 24.1806Z" fill="#FFB164"/>
<path d="M24.2407 24.0763C24.2759 24.0416 24.311 24.0068 24.3461 23.9373C24.3461 23.9373 24.3461 23.9026 24.3812 23.9026V23.8678V23.8331C24.3812 23.8331 24.3812 23.7983 24.3461 23.7983C24.3461 23.7983 24.3461 23.7983 24.311 23.7983C24.2758 23.7983 24.2759 23.7983 24.2407 23.7983H24.2056C24.1705 23.7983 24.1705 23.8331 24.1705 23.8331C24.1354 23.8678 24.1003 23.9026 24.0651 23.9721C24.0651 23.9721 24.0651 24.0068 24.03 24.0068V24.0416V24.0763C24.03 24.0763 24.03 24.111 24.0651 24.111C24.0651 24.111 24.0651 24.111 24.1003 24.111C24.1354 24.111 24.1354 24.111 24.1705 24.111H24.2056L24.2407 24.0763Z" fill="#FFB164"/>
<path d="M25.3294 24.0765C25.3996 24.0417 25.4699 24.007 25.5401 23.9722C25.5752 23.9722 25.5752 23.9375 25.6103 23.9027C25.6103 23.868 25.6103 23.8332 25.6103 23.7985C25.6103 23.7637 25.5752 23.7637 25.5401 23.729C25.505 23.729 25.4699 23.729 25.4347 23.729C25.3645 23.7637 25.2943 23.7985 25.224 23.8332C25.1889 23.8332 25.1889 23.868 25.1538 23.9027C25.1538 23.9375 25.1538 23.9722 25.1538 24.007C25.1538 24.0417 25.1889 24.0417 25.224 24.0765C25.2592 24.0765 25.2943 24.0765 25.3294 24.0765Z" fill="#FFB164"/>
<path d="M26.172 24.2502C26.3125 24.2502 26.4179 24.2155 26.5232 24.1807C26.5583 24.1807 26.5583 24.146 26.5934 24.1112C26.5934 24.0765 26.5934 24.0417 26.5934 24.007C26.5934 23.9722 26.5583 23.9722 26.5232 23.9375C26.4881 23.9375 26.453 23.9375 26.4179 23.9375C26.3827 23.9375 26.3827 23.9375 26.3476 23.9722H26.3827C26.3125 24.007 26.2072 24.007 26.1018 24.007C26.0316 24.007 25.9965 24.0765 25.9965 24.146C26.0316 24.2502 26.1018 24.2849 26.172 24.2502Z" fill="#FFB164"/>
<path d="M26.6989 24.7364C26.8042 24.7364 26.9447 24.7364 27.05 24.7711C27.0851 24.7711 27.1203 24.7711 27.1203 24.7364C27.1554 24.7016 27.1554 24.7016 27.1554 24.6669C27.1554 24.5974 27.1203 24.5279 27.05 24.5279C26.9447 24.5279 26.8042 24.5279 26.6989 24.4932C26.6637 24.4932 26.6286 24.4932 26.6286 24.5279C26.5935 24.5627 26.5935 24.5627 26.5935 24.5974C26.5935 24.6669 26.6286 24.7364 26.6989 24.7364Z" fill="#FFB164"/>
<path d="M26.2424 25.1881C26.3126 25.2229 26.3829 25.2576 26.4531 25.2924C26.4531 25.2924 26.4882 25.2924 26.4882 25.3271H26.5233C26.5584 25.3271 26.5936 25.2924 26.5936 25.2924C26.5936 25.2576 26.6287 25.2229 26.6287 25.2229C26.6287 25.1881 26.5936 25.1534 26.5936 25.1534C26.5233 25.1186 26.4531 25.0839 26.3829 25.0491C26.3829 25.0491 26.3477 25.0491 26.3477 25.0144H26.3126C26.2775 25.0144 26.2424 25.0491 26.2424 25.0491C26.2424 25.0839 26.2073 25.1186 26.2073 25.1186C26.2073 25.1534 26.2073 25.1881 26.2424 25.1881Z" fill="#FFB164"/>
<path d="M25.4698 25.6746L25.5049 25.7094C25.4698 25.7094 25.4698 25.7094 25.4698 25.6746C25.5049 25.7094 25.5049 25.7441 25.5049 25.7441V25.7094C25.5049 25.7094 25.5049 25.7094 25.5049 25.7441V25.7789C25.5049 25.7789 25.5049 25.8136 25.54 25.8136C25.54 25.8136 25.5752 25.8136 25.5752 25.8483H25.6103C25.6454 25.8483 25.6805 25.8136 25.6805 25.8136C25.6805 25.7789 25.7156 25.7441 25.7156 25.7441C25.7156 25.7094 25.7156 25.6746 25.6805 25.6399C25.6805 25.6051 25.6454 25.5704 25.6103 25.5704C25.5752 25.5356 25.5752 25.5356 25.54 25.5356H25.5049C25.5049 25.5356 25.4698 25.5356 25.4698 25.5704C25.4347 25.6051 25.4347 25.6051 25.4347 25.6399V25.6746C25.4347 25.6399 25.4347 25.6746 25.4698 25.6746Z" fill="#FFB164"/>
<path d="M24.2407 26.022C24.2407 26.0568 24.2758 26.0568 24.2758 26.0915V26.0568C24.2758 26.0915 24.2758 26.1263 24.2758 26.161V26.1958C24.2758 26.1958 24.2758 26.2305 24.3109 26.2305C24.346 26.2305 24.3812 26.2653 24.3812 26.2653C24.4163 26.2653 24.4514 26.2305 24.4514 26.2305C24.4514 26.2305 24.4514 26.2305 24.4514 26.1958C24.4514 26.161 24.4514 26.161 24.4514 26.1263C24.4514 26.0915 24.4514 26.0568 24.4514 26.0568C24.4514 26.022 24.4163 25.9873 24.4163 25.9525C24.4163 25.9178 24.3812 25.9178 24.346 25.8831H24.3109H24.2758C24.2407 25.8831 24.2407 25.9178 24.2056 25.9525C24.2407 25.9525 24.2407 25.9873 24.2407 26.022Z" fill="#FFB164"/>
<path d="M23.3277 26.1263V26.161C23.3277 26.161 23.3277 26.161 23.3277 26.1263C23.3277 26.161 23.3277 26.161 23.3277 26.1958C23.3277 26.1958 23.3277 26.1958 23.3277 26.1263C23.3277 26.161 23.3277 26.1958 23.3277 26.1958C23.3277 26.1958 23.3277 26.1958 23.3277 26.161C23.3277 26.161 23.3277 26.1958 23.2926 26.1958C23.2926 26.1958 23.2926 26.2305 23.2574 26.2305V26.2653C23.2574 26.3 23.2926 26.3348 23.2926 26.3348C23.3277 26.3348 23.3628 26.3695 23.3628 26.3695H23.3979C23.433 26.3695 23.433 26.3348 23.433 26.3348C23.4681 26.3 23.4681 26.3 23.4681 26.2653C23.4681 26.2653 23.4681 26.2305 23.5033 26.2305C23.5033 26.1958 23.5033 26.1958 23.5033 26.161C23.5033 26.1263 23.5033 26.0915 23.5033 26.0915C23.5033 26.0568 23.4681 26.022 23.4681 26.022C23.433 26.022 23.3979 25.9873 23.3979 25.9873C23.3628 25.9873 23.3277 26.022 23.3277 26.022C23.3277 26.0915 23.3277 26.1263 23.3277 26.1263Z" fill="#FFB164"/>
<path d="M22.3093 25.918C22.2742 25.9527 22.2742 25.9874 22.2391 26.0222C22.2391 26.0222 22.2391 26.0222 22.2742 25.9874C22.2391 26.0222 22.1689 26.0569 22.1338 26.0917C22.0986 26.0917 22.0986 26.1264 22.0986 26.1612C22.0986 26.1959 22.0986 26.2307 22.1338 26.2307C22.1689 26.2654 22.1689 26.2654 22.204 26.2654H22.2391C22.2742 26.2654 22.2742 26.2654 22.3093 26.2307C22.4147 26.1612 22.4849 26.0917 22.5552 25.9874C22.5552 25.9527 22.5903 25.918 22.5903 25.918C22.5903 25.8832 22.5552 25.8485 22.5552 25.8485C22.52 25.8485 22.4849 25.8137 22.4849 25.8137C22.3796 25.8832 22.3445 25.8832 22.3093 25.918Z" fill="#FFB164"/>
<path d="M21.3261 26.0915C21.3612 26.0568 21.3612 26.022 21.3963 26.022C21.3963 26.022 21.3963 25.9873 21.4314 25.9873V25.9525V25.9178C21.4314 25.9178 21.4314 25.8831 21.3963 25.8831C21.3963 25.8831 21.3963 25.8831 21.3612 25.8831C21.3261 25.8831 21.3261 25.8831 21.2909 25.8831H21.2558C21.2207 25.8831 21.2207 25.9178 21.2207 25.9178C21.1856 25.9525 21.1856 25.9873 21.1505 25.9873C21.1505 25.9873 21.1505 26.022 21.1154 26.022V26.0568V26.0915C21.1154 26.0915 21.1154 26.1263 21.1505 26.1263C21.1505 26.1263 21.1505 26.1263 21.1856 26.1263C21.2207 26.1263 21.2207 26.1263 21.2558 26.1263H21.2909C21.2909 26.1263 21.2909 26.1263 21.3261 26.0915Z" fill="#FFB164"/>
<path opacity="0.24" d="M21.7123 27.9331C21.9581 28.0373 22.239 28.1763 22.52 28.1416C22.6253 28.1416 22.7307 28.0721 22.7307 27.9678C22.7307 27.8984 22.6253 27.8289 22.5551 27.7941C22.3795 27.7246 22.2039 27.6551 22.0986 27.5162C21.8879 27.3077 21.4665 26.7518 21.0451 26.995C20.6588 27.2729 21.5016 27.8289 21.7123 27.9331Z" fill="white"/>
<path d="M29.2275 23.3118C29.2275 23.3118 31.3697 25.9524 34.6707 22.9644C37.9717 19.9763 35.2677 17.5442 35.2677 17.5442L29.2275 23.3118Z" fill="#E24C24"/>
<path d="M33.4058 21.6428C35.083 20.074 35.935 18.271 35.3087 17.6156C34.6825 16.9602 32.8152 17.7006 31.138 19.2694C29.4608 20.8381 28.6089 22.6412 29.2351 23.2966C29.8613 23.952 31.7286 23.2115 33.4058 21.6428Z" fill="#FF5A27"/>
<path d="M33.261 21.4916C34.7973 20.0546 35.5998 18.4263 35.0535 17.8546C34.5072 17.2828 32.819 17.9842 31.2827 19.4212C29.7465 20.8581 28.944 22.4864 29.4902 23.0582C30.0365 23.6299 31.7248 22.9285 33.261 21.4916Z" fill="#FF8B78"/>
<path d="M30.8077 21.0882C30.7374 21.2271 30.7023 21.4356 30.8428 21.5746C30.8779 21.6093 30.9481 21.6441 31.0184 21.7136C31.0535 21.7831 31.0535 21.8526 31.0886 21.8873C31.1237 21.922 31.1588 21.9568 31.2291 21.9568C31.5451 21.9915 31.7909 21.7483 32.0017 21.5051C32.5635 20.9144 33.0903 20.3238 33.6522 19.6984C33.7926 19.5594 33.9331 19.3509 33.898 19.1425C33.8629 18.9687 33.6522 18.8645 33.4766 18.8645C33.301 18.8645 33.1254 18.934 32.9849 19.0382C32.5284 19.2814 32.0719 19.5594 31.6856 19.9416C31.3344 20.3238 31.0184 20.6365 30.8077 21.0882Z" fill="#FF5A27"/>
<path d="M30.0702 22.5824C30.1756 22.4781 30.2809 22.3739 30.3511 22.2349C30.3511 22.2002 30.3863 22.1654 30.3511 22.1654C30.3511 22.1307 30.316 22.0959 30.2809 22.0959C30.2107 22.0612 30.1756 22.0959 30.1053 22.1307C30.0702 22.1654 30.0351 22.2002 30.0351 22.2349C30.0351 22.2349 30.0351 22.2349 30.0702 22.2002C30 22.2697 29.9649 22.3391 29.8946 22.4086C29.8595 22.4434 29.8595 22.5129 29.8946 22.5824C29.9297 22.6171 30.0351 22.6171 30.0702 22.5824Z" fill="#FFB164"/>
<path d="M29.9999 22.0262C30.1053 21.9219 29.9648 21.7482 29.8244 21.8525C29.719 21.9567 29.8946 22.1304 29.9999 22.0262Z" fill="#FFB164"/>
<path d="M29.9999 22.0262C30.0702 21.9567 30.1404 21.9219 30.2106 21.8524C30.2457 21.8177 30.2457 21.7829 30.2457 21.7829C30.2457 21.7482 30.2457 21.7135 30.2106 21.7135C30.1755 21.6787 30.1755 21.6787 30.1404 21.6787C30.1053 21.6787 30.0702 21.6787 30.0702 21.7135C29.9999 21.7829 29.9297 21.8177 29.8595 21.8872C29.8243 21.9219 29.8243 21.9567 29.8243 21.9567C29.8243 21.9914 29.8243 22.0262 29.8595 22.0262C29.8946 22.0609 29.8946 22.0609 29.9297 22.0609C29.9297 22.0609 29.9648 22.0262 29.9999 22.0262Z" fill="#FFB164"/>
<path d="M30.1757 21.0881C30.2108 21.0881 30.2108 21.1229 30.2459 21.1229C30.281 21.1229 30.281 21.1229 30.3162 21.1229C30.3513 21.1229 30.4215 21.1229 30.4566 21.0881C30.4566 21.0881 30.4918 21.0881 30.4918 21.0534L30.5269 21.0186V20.9839V20.9491C30.5269 20.9491 30.5269 20.9491 30.4918 20.9144L30.4566 20.8796C30.4215 20.8796 30.3864 20.8796 30.3864 20.8796C30.3864 20.8796 30.3864 20.8796 30.3513 20.8796H30.3864H30.3513H30.3864H30.3513H30.3864H30.3513H30.3864H30.3513H30.3162C30.3162 20.8796 30.281 20.8796 30.281 20.9144L30.2459 20.9491C30.2459 20.9839 30.2108 21.0186 30.2459 21.0186C30.1055 21.0534 30.1406 21.0881 30.1757 21.0881Z" fill="#FFB164"/>
<path d="M30.632 20.4626C30.6671 20.4974 30.7023 20.5321 30.7374 20.5321H30.7725H30.8076C30.8076 20.5321 30.8427 20.5321 30.8427 20.4974L30.8778 20.4626C30.8778 20.4279 30.913 20.3931 30.8778 20.3931V20.3584C30.8778 20.3236 30.8427 20.3236 30.8427 20.3236C30.8076 20.2889 30.7725 20.2542 30.7374 20.2542H30.7023H30.6671C30.6671 20.2542 30.632 20.2542 30.632 20.2889L30.5969 20.3236C30.5969 20.3584 30.5618 20.3931 30.5969 20.3931V20.4279C30.632 20.4279 30.632 20.4626 30.632 20.4626Z" fill="#FFB164"/>
<path d="M31.8963 19.4899C31.8963 19.4204 31.8963 19.3856 31.8963 19.3161V19.2814C31.8963 19.2814 31.8963 19.2467 31.8612 19.2467L31.8261 19.2119H31.791H31.7559C31.7207 19.2119 31.7207 19.2119 31.6856 19.2467C31.6856 19.2467 31.6856 19.2467 31.6505 19.2814C31.6505 19.3161 31.6505 19.3161 31.6505 19.3509C31.6505 19.4204 31.6505 19.4551 31.6505 19.5246V19.5594C31.6505 19.5594 31.6505 19.5941 31.6856 19.5941L31.7207 19.6289H31.7559H31.791C31.8261 19.6289 31.8261 19.6289 31.8612 19.5941C31.8612 19.5941 31.8612 19.5941 31.8963 19.5594C31.8963 19.5594 31.8963 19.5246 31.8963 19.4899Z" fill="#FFB164"/>
<path d="M32.7743 18.899C32.8094 18.8295 32.8445 18.76 32.8796 18.6906C32.8796 18.6558 32.9147 18.6211 32.8796 18.6211C32.8796 18.5863 32.8445 18.5516 32.8094 18.5516C32.7743 18.5516 32.7392 18.5168 32.7392 18.5516C32.704 18.5516 32.6689 18.5863 32.6689 18.6211C32.6338 18.6906 32.5987 18.76 32.5636 18.8295C32.5636 18.8643 32.5285 18.899 32.5636 18.899C32.5636 18.9338 32.5987 18.9685 32.6338 18.9685C32.6689 18.9685 32.704 19.0033 32.704 18.9685C32.7392 18.9338 32.7743 18.9338 32.7743 18.899Z" fill="#FFB164"/>
<path d="M33.582 18.5864C33.6873 18.5169 33.7576 18.4127 33.8278 18.3085C33.8278 18.2737 33.8629 18.239 33.8278 18.239C33.8278 18.2042 33.7927 18.1695 33.7576 18.1695C33.7224 18.1695 33.6873 18.1348 33.6873 18.1695C33.6522 18.1695 33.6171 18.2042 33.6171 18.239C33.6171 18.2737 33.582 18.2737 33.582 18.3085C33.582 18.3085 33.582 18.3085 33.6171 18.2737C33.5468 18.3432 33.5117 18.4127 33.4415 18.4475C33.4064 18.4822 33.4064 18.5864 33.4415 18.6212C33.4766 18.6212 33.5117 18.6212 33.582 18.5864Z" fill="#FFB164"/>
<path d="M34.2844 18.656C34.3897 18.5865 34.4951 18.5518 34.5653 18.4823C34.6004 18.4823 34.6004 18.4476 34.6356 18.4128C34.6356 18.3781 34.6356 18.3433 34.6356 18.3433C34.6004 18.3086 34.5302 18.2738 34.4951 18.3086C34.3897 18.3781 34.2844 18.4128 34.2142 18.4823C34.179 18.4823 34.179 18.5171 34.1439 18.5518C34.1439 18.5865 34.1439 18.6213 34.1439 18.6213C34.1439 18.656 34.2493 18.6908 34.2844 18.656Z" fill="#FFB164"/>
<path d="M34.179 19.3164C34.2492 19.3164 34.3545 19.3164 34.4248 19.3164H34.4599C34.4599 19.3164 34.495 19.3164 34.495 19.2816C34.5301 19.2469 34.5301 19.2469 34.5301 19.2121C34.5301 19.1774 34.5301 19.1427 34.495 19.1427C34.4599 19.1079 34.4599 19.1079 34.4248 19.1079C34.3545 19.1079 34.2492 19.1079 34.179 19.1079H34.1438C34.1438 19.1079 34.1087 19.1079 34.1087 19.1427C34.0736 19.1774 34.0736 19.1774 34.0736 19.2121C34.0736 19.2469 34.0736 19.2816 34.1087 19.2816C34.1087 19.2816 34.1438 19.3164 34.179 19.3164Z" fill="#FFB164"/>
<path d="M33.8277 20.15H33.8628H33.8277C33.8628 20.15 33.898 20.1847 33.898 20.1847C33.898 20.1847 33.898 20.1847 33.8628 20.15L33.898 20.1847H33.9331H33.9682C33.9682 20.1847 34.0033 20.1847 34.0033 20.15C34.0384 20.1152 34.0384 20.1152 34.0384 20.0805C34.0384 20.0457 34.0384 20.011 34.0033 20.011C33.9682 19.9762 33.9682 19.9762 33.9331 19.9415C33.898 19.9415 33.8628 19.9067 33.8277 19.9067C33.7926 19.9067 33.7575 19.9067 33.7575 19.9067C33.7575 19.9067 33.7224 19.9067 33.7224 19.9415L33.6873 19.9762C33.6873 20.011 33.6873 20.0457 33.6873 20.0457C33.6873 20.0457 33.6873 20.0457 33.7224 20.0805C33.7575 20.1152 33.7926 20.15 33.8277 20.15Z" fill="#FFB164"/>
<path d="M33.02 21.1229C33.0552 21.1229 33.0552 21.1577 33.0903 21.1577C33.0903 21.1577 33.0903 21.1577 33.0552 21.1229C33.0903 21.1577 33.0903 21.1577 33.1254 21.1924L33.1605 21.2271H33.1956C33.2308 21.2271 33.2659 21.2271 33.2659 21.1924C33.301 21.1577 33.301 21.1577 33.301 21.1229V21.0882C33.301 21.0534 33.301 21.0534 33.2659 21.0187C33.2308 20.9839 33.2308 20.9839 33.1956 20.9492C33.1605 20.9144 33.1254 20.9144 33.0903 20.8797C33.0552 20.8797 33.02 20.845 33.02 20.8797C33.02 20.8797 32.9849 20.8797 32.9849 20.9144L32.9498 20.9492C32.9498 20.9839 32.9147 21.0187 32.9498 21.0187C32.9498 21.0882 32.9849 21.0882 33.02 21.1229Z" fill="#FFB164"/>
<path d="M32.3177 21.7134C32.3177 21.7134 32.3528 21.7482 32.3177 21.7134C32.3528 21.7482 32.3528 21.7134 32.3177 21.7134C32.3528 21.7482 32.3528 21.7482 32.3528 21.7482C32.3528 21.7482 32.3528 21.7482 32.3177 21.7134C32.3528 21.7482 32.3528 21.7829 32.3528 21.7829V21.7482V21.7829V21.8177C32.3528 21.8177 32.3528 21.8524 32.388 21.8524C32.4231 21.8872 32.4231 21.8872 32.4582 21.8872C32.4933 21.8872 32.5284 21.8872 32.5284 21.8524C32.5284 21.8524 32.5284 21.8524 32.5636 21.8177C32.5636 21.7829 32.5636 21.7829 32.5636 21.7482C32.5636 21.7134 32.5636 21.7134 32.5636 21.6787V21.6439C32.5636 21.6092 32.5636 21.6092 32.5284 21.5744C32.5284 21.5397 32.4933 21.5397 32.4933 21.505C32.4582 21.4702 32.4582 21.4702 32.4231 21.4702C32.388 21.4702 32.3528 21.4702 32.3528 21.505C32.3177 21.5397 32.3177 21.5397 32.3177 21.5744C32.2826 21.6787 32.3177 21.6787 32.3177 21.7134Z" fill="#FFB164"/>
<path d="M31.3696 22.0957C31.3696 22.1304 31.3696 22.1652 31.3696 22.2347V22.1999C31.3696 22.2694 31.3345 22.3042 31.3345 22.3736C31.3345 22.4084 31.3345 22.4431 31.3345 22.4431C31.3345 22.4779 31.3696 22.4779 31.4047 22.5126C31.4398 22.5126 31.4749 22.5126 31.4749 22.5126C31.4749 22.5126 31.4749 22.5126 31.5101 22.4779L31.5452 22.4431C31.5803 22.3389 31.6154 22.2347 31.6154 22.1304C31.6154 22.0957 31.6154 22.0609 31.5803 22.0609C31.5452 21.9915 31.5101 21.9915 31.4749 21.9915C31.4398 21.9915 31.4047 21.9915 31.4047 22.0262C31.3696 22.0262 31.3696 22.0609 31.3696 22.0957Z" fill="#FFB164"/>
<path d="M30.6322 22.8254C30.6322 22.7907 30.6322 22.7559 30.6322 22.7212V22.6864C30.6322 22.6864 30.6322 22.6517 30.5971 22.6517L30.5619 22.6169H30.5268H30.4917C30.4566 22.6169 30.4566 22.6169 30.4215 22.6517C30.4215 22.6517 30.4215 22.6517 30.3864 22.6864C30.3864 22.7212 30.3864 22.7212 30.3864 22.7559C30.3864 22.7907 30.3864 22.8254 30.3864 22.8602V22.8949C30.3864 22.8949 30.3864 22.9296 30.4215 22.9296L30.4566 22.9644H30.4917H30.5268C30.5619 22.9644 30.5619 22.9644 30.5971 22.9296C30.5971 22.9296 30.5971 22.9296 30.6322 22.8949C30.6322 22.8602 30.6322 22.8254 30.6322 22.8254Z" fill="#FFB164"/>
<path opacity="0.24" d="M32.0016 24.0759C32.2826 24.0412 32.5635 23.9717 32.8093 23.798C32.8796 23.7285 32.9498 23.6243 32.9147 23.52C32.8796 23.4505 32.7742 23.4505 32.6689 23.4853C32.4933 23.52 32.3177 23.5548 32.107 23.52C31.7909 23.4853 31.1237 23.2421 30.9481 23.6938C30.7374 24.1454 31.7909 24.1107 32.0016 24.0759Z" fill="white"/>
<path d="M33.2659 27.2035C33.2659 27.2035 34.2491 30.4695 38.4632 28.9059C42.6772 27.3424 41.0267 24.0764 41.0267 24.0764L33.2659 27.2035Z" fill="#E24C24"/>
<path d="M37.7666 27.1971C39.9151 26.3632 41.3869 25.0065 41.054 24.167C40.7211 23.3274 38.7095 23.3228 36.5611 24.1568C34.4126 24.9907 32.9408 26.3473 33.2737 27.1869C33.6066 28.0265 35.6181 28.031 37.7666 27.1971Z" fill="#FF5A27"/>
<path d="M37.6897 27.003C39.6577 26.2392 41.0176 25.0262 40.7272 24.2938C40.4368 23.5614 38.606 23.587 36.6381 24.3508C34.6702 25.1147 33.3102 26.3276 33.6006 27.06C33.891 27.7924 35.7218 27.7669 37.6897 27.003Z" fill="#FF8B78"/>
<path d="M35.5835 25.7095C35.4782 25.8137 35.3377 25.9874 35.4079 26.1611C35.4431 26.2306 35.4782 26.2654 35.5133 26.3349C35.5133 26.4044 35.4782 26.4738 35.5133 26.5433C35.5133 26.5781 35.5835 26.6128 35.6186 26.6476C35.8996 26.7865 36.2156 26.6823 36.5317 26.5433C37.2691 26.1959 38.0066 25.8484 38.7441 25.501C38.9197 25.3968 39.1655 25.2925 39.1655 25.084C39.1655 24.9103 39.0601 24.7366 38.8845 24.7019C38.7089 24.6324 38.5334 24.6324 38.3578 24.6671C37.831 24.7366 37.3043 24.8061 36.8126 25.0493C36.3561 25.1883 35.9347 25.362 35.5835 25.7095Z" fill="#FF5A27"/>
<path d="M34.3194 26.8214C34.4598 26.7519 34.6003 26.6824 34.7057 26.6129C34.7408 26.6129 34.7408 26.5781 34.7408 26.5434C34.7408 26.5086 34.7408 26.4739 34.7057 26.4392C34.6705 26.3697 34.6003 26.3697 34.5301 26.4044C34.495 26.4392 34.4598 26.4392 34.4247 26.4739H34.4598C34.3896 26.5086 34.2843 26.5781 34.214 26.6129C34.1438 26.6476 34.1087 26.7171 34.1438 26.7519C34.214 26.8214 34.2843 26.8561 34.3194 26.8214Z" fill="#FFB164"/>
<path d="M34.4598 26.2654C34.6002 26.1959 34.53 25.9875 34.3896 26.057C34.2491 26.0917 34.3193 26.3349 34.4598 26.2654Z" fill="#FFB164"/>
<path d="M34.4599 26.2651C34.5301 26.2303 34.6355 26.2303 34.7057 26.1956C34.7408 26.1956 34.7759 26.1609 34.7759 26.1261C34.7759 26.0914 34.7759 26.0566 34.7759 26.0219C34.7759 25.9871 34.7408 25.9524 34.7057 25.9524C34.6706 25.9524 34.6355 25.9524 34.6004 25.9524C34.5301 25.9871 34.4248 25.9871 34.3545 26.0219C34.3194 26.0219 34.2843 26.0566 34.2843 26.0914C34.2843 26.1261 34.2843 26.1609 34.2843 26.1956C34.2843 26.2303 34.3194 26.2651 34.3545 26.2651C34.4248 26.2651 34.4248 26.2651 34.4599 26.2651Z" fill="#FFB164"/>
<path d="M34.9867 25.4662C34.9867 25.5009 35.0218 25.5009 35.0569 25.5009C35.092 25.5009 35.092 25.5357 35.1271 25.5357C35.1623 25.5704 35.2325 25.5704 35.2676 25.5704H35.3027C35.3027 25.5704 35.3378 25.5704 35.3378 25.5357C35.3378 25.5357 35.3378 25.5009 35.373 25.5009V25.4662V25.4315C35.373 25.3967 35.3378 25.3967 35.3378 25.3967C35.3027 25.362 35.2676 25.362 35.2676 25.362C35.2676 25.362 35.2676 25.362 35.2325 25.362H35.2676H35.2325H35.2676C35.2676 25.362 35.2325 25.362 35.2325 25.3272C35.2325 25.3272 35.2325 25.3272 35.2676 25.3272L35.2325 25.2925C35.2325 25.2925 35.2325 25.2925 35.2676 25.3272L35.2325 25.2925H35.1974H35.1623C35.1623 25.2925 35.1271 25.2925 35.1271 25.3272C35.092 25.362 35.092 25.362 35.092 25.3967C34.9516 25.4315 34.9516 25.4662 34.9867 25.4662Z" fill="#FFB164"/>
<path d="M35.6538 25.084C35.6889 25.1187 35.6889 25.1534 35.724 25.1882L35.7591 25.2229H35.7942H35.8294C35.8294 25.2229 35.8645 25.2229 35.8645 25.1882C35.8996 25.1534 35.8996 25.1534 35.8996 25.1187V25.084C35.8996 25.0492 35.8996 25.0492 35.8645 25.0145C35.8294 24.9797 35.8294 24.945 35.7942 24.9102L35.7591 24.8755H35.724H35.6889C35.6889 24.8755 35.6538 24.8755 35.6538 24.9102C35.6187 24.945 35.6187 24.945 35.6187 24.9797V25.0145C35.6538 25.0492 35.6538 25.0492 35.6538 25.084Z" fill="#FFB164"/>
<path d="M37.1989 24.6322C37.2341 24.5975 37.2341 24.528 37.2692 24.4932V24.4585V24.4237C37.2692 24.4237 37.2692 24.389 37.2341 24.389L37.1989 24.3542H37.1638C37.1287 24.3542 37.1287 24.3542 37.0936 24.3542H37.0585L37.0234 24.389C36.9882 24.4237 36.9882 24.4932 36.9531 24.528V24.5627V24.5975C36.9531 24.5975 36.9531 24.6322 36.9882 24.6322L37.0234 24.667H37.0585C37.0936 24.667 37.0936 24.667 37.1287 24.667H37.1638C37.1638 24.667 37.1638 24.667 37.1989 24.6322Z" fill="#FFB164"/>
<path d="M38.2173 24.389C38.2875 24.3542 38.3578 24.2847 38.3929 24.25C38.428 24.2152 38.428 24.2152 38.428 24.1805C38.428 24.1457 38.428 24.111 38.3929 24.0762C38.3578 24.0415 38.3578 24.0415 38.3226 24.0415C38.2875 24.0415 38.2524 24.0415 38.2173 24.0762C38.1471 24.111 38.0768 24.1805 38.0417 24.2152C38.0066 24.25 38.0066 24.25 38.0066 24.2847C38.0066 24.3195 38.0066 24.3542 38.0417 24.389C38.0768 24.4237 38.0768 24.4237 38.1119 24.4237C38.1822 24.4237 38.2173 24.4237 38.2173 24.389Z" fill="#FFB164"/>
<path d="M39.0952 24.4239C39.2006 24.3891 39.3411 24.3196 39.4464 24.2849C39.4815 24.2849 39.4815 24.2501 39.4815 24.2154C39.4815 24.1807 39.4815 24.1459 39.4464 24.1112C39.4113 24.0764 39.4113 24.0764 39.3762 24.0764C39.3411 24.0764 39.306 24.0764 39.2708 24.1112C39.2357 24.1112 39.2357 24.1459 39.2006 24.1459H39.2357C39.1655 24.1807 39.0601 24.2154 38.9899 24.2501C38.9197 24.2849 38.8845 24.3544 38.9197 24.3891C38.9548 24.3891 39.025 24.4239 39.0952 24.4239Z" fill="#FFB164"/>
<path d="M39.7274 24.7365C39.8327 24.7017 39.9732 24.7017 40.0786 24.667C40.1137 24.667 40.1488 24.6322 40.1488 24.6322C40.1488 24.5975 40.1839 24.5627 40.1839 24.5627C40.1839 24.4932 40.1137 24.4585 40.0434 24.4585C39.9381 24.4932 39.7976 24.4932 39.6923 24.528C39.6571 24.528 39.622 24.5627 39.622 24.5627C39.622 24.5975 39.5869 24.6322 39.5869 24.6322C39.5869 24.7017 39.6571 24.7712 39.7274 24.7365Z" fill="#FFB164"/>
<path d="M39.3763 25.2923C39.4465 25.327 39.5167 25.327 39.6221 25.3618H39.6572H39.6923C39.7274 25.3618 39.7626 25.327 39.7626 25.2923C39.7626 25.2575 39.7626 25.2228 39.7626 25.1881C39.7626 25.1533 39.7274 25.1186 39.6923 25.1186C39.6221 25.0838 39.5518 25.0838 39.4465 25.0491H39.4114H39.3763C39.3411 25.0491 39.306 25.0838 39.306 25.1186C39.306 25.1533 39.306 25.1881 39.306 25.2228C39.3411 25.2575 39.3411 25.2923 39.3763 25.2923Z" fill="#FFB164"/>
<path d="M38.709 25.9526L38.7441 25.9874C38.7441 25.9526 38.7441 25.9526 38.709 25.9526C38.7441 25.9874 38.7441 25.9874 38.7792 26.0221V25.9874C38.7792 25.9874 38.7792 25.9874 38.7792 26.0221C38.7792 26.0221 38.7792 26.0568 38.8143 26.0568L38.8495 26.0916H38.8846H38.9197C38.9548 26.0916 38.9899 26.0568 38.9899 26.0221C38.9899 25.9874 38.9899 25.9526 38.9899 25.9179C38.9899 25.8831 38.9548 25.8484 38.9548 25.8484C38.9197 25.8136 38.9197 25.8136 38.8846 25.7789C38.8495 25.7441 38.8143 25.7441 38.8143 25.7441H38.7792C38.7792 25.7441 38.7441 25.7441 38.7441 25.7789C38.7441 25.8136 38.709 25.8484 38.709 25.8484V25.8831C38.709 25.9179 38.709 25.9179 38.709 25.9526Z" fill="#FFB164"/>
<path d="M37.6204 26.5434C37.6204 26.5782 37.6555 26.5782 37.6555 26.6129V26.5782C37.6555 26.6129 37.6906 26.6477 37.6906 26.6477C37.6906 26.6477 37.6906 26.6824 37.7257 26.6824L37.7608 26.7172C37.7959 26.7172 37.8311 26.7172 37.8662 26.7172C37.9013 26.7172 37.9364 26.6824 37.9364 26.6477V26.6129C37.9364 26.5782 37.9364 26.5782 37.9364 26.5434C37.9364 26.5087 37.9013 26.4739 37.9013 26.4739C37.8662 26.4392 37.8662 26.4045 37.8311 26.3697C37.7959 26.335 37.7959 26.335 37.7608 26.335H37.7257C37.7257 26.335 37.6906 26.335 37.6906 26.3697C37.6555 26.4045 37.6555 26.4045 37.6555 26.4392C37.5852 26.4739 37.5852 26.5087 37.6204 26.5434Z" fill="#FFB164"/>
<path d="M36.7425 26.856V26.8908C36.7425 26.856 36.7425 26.856 36.7425 26.856C36.7425 26.8908 36.7425 26.8908 36.7425 26.9255C36.7776 26.8908 36.7776 26.8908 36.7425 26.856C36.7425 26.8908 36.7425 26.9255 36.7425 26.9255V26.8908C36.7425 26.8908 36.7425 26.9255 36.7074 26.9255V26.9603V26.995C36.7074 27.0297 36.7425 27.0645 36.7776 27.0645C36.8127 27.0645 36.8479 27.0645 36.883 27.0645H36.9181L36.9532 27.0297C36.9532 26.995 36.9883 26.995 36.9883 26.9603V26.9255C36.9883 26.8908 36.9883 26.8908 36.9883 26.856C36.9883 26.8213 36.9883 26.8213 36.9532 26.7865C36.9532 26.7518 36.9181 26.7518 36.883 26.717C36.8479 26.717 36.8127 26.717 36.7776 26.717C36.7425 26.717 36.7074 26.7518 36.7074 26.7865C36.7425 26.7865 36.7425 26.8213 36.7425 26.856Z" fill="#FFB164"/>
<path d="M35.724 26.8559C35.724 26.8907 35.6889 26.9254 35.6538 26.9602C35.6538 26.9602 35.6538 26.9602 35.6538 26.9254C35.6187 26.9949 35.5835 27.0297 35.5484 27.0644C35.5133 27.0992 35.5133 27.1339 35.5133 27.1339C35.5133 27.1686 35.5484 27.2034 35.5484 27.2034C35.5835 27.2034 35.6187 27.2381 35.6187 27.2381H35.6538C35.6889 27.2381 35.6889 27.2034 35.6889 27.2034C35.7591 27.1339 35.8294 27.0297 35.8645 26.9254C35.8645 26.8907 35.8645 26.8559 35.8645 26.8212C35.8645 26.7865 35.8294 26.7517 35.7942 26.7517C35.7591 26.7517 35.724 26.7517 35.6889 26.7517C35.7591 26.7865 35.724 26.8212 35.724 26.8559Z" fill="#FFB164"/>
<path d="M34.776 27.2381C34.776 27.2033 34.8111 27.1686 34.8111 27.1339V27.0991V27.0644C34.8111 27.0644 34.8111 27.0296 34.776 27.0296L34.7409 26.9949H34.7057C34.6706 26.9949 34.6706 26.9949 34.6355 26.9949H34.6004L34.5653 27.0296C34.5653 27.0644 34.5302 27.0991 34.5302 27.1339V27.1686V27.2033C34.5302 27.2033 34.5302 27.2381 34.5653 27.2381L34.6004 27.2728H34.6355C34.6706 27.2728 34.6706 27.2728 34.7057 27.2728H34.7409C34.7409 27.2728 34.7409 27.2728 34.776 27.2381Z" fill="#FFB164"/>
<path opacity="0.24" d="M35.5484 28.9406C35.8293 29.0101 36.1103 29.0449 36.3912 28.9754C36.4966 28.9406 36.6019 28.8711 36.5668 28.7669C36.5317 28.6974 36.4614 28.6627 36.3561 28.6279C36.1805 28.5932 36.0049 28.5584 35.8293 28.4542C35.5484 28.2805 35.0216 27.8288 34.6705 28.1762C34.3544 28.5237 35.3377 28.8711 35.5484 28.9406Z" fill="white"/>
<path d="M14.1621 21.5049C14.1621 21.5049 10.9313 22.721 12.7925 26.7514C14.6537 30.747 17.8494 28.9403 17.8494 28.9403L14.1621 21.5049Z" fill="#E24C24"/>
<path d="M17.7688 28.9543C18.5927 28.5683 18.4598 26.5823 17.472 24.5185C16.4842 22.4546 15.0155 21.0945 14.1917 21.4805C13.3678 21.8665 13.5007 23.8525 14.4885 25.9163C15.4763 27.9802 16.945 29.3403 17.7688 28.9543Z" fill="#FF5A27"/>
<path d="M17.6185 28.6403C18.3372 28.3036 18.1863 26.4981 17.2815 24.6078C16.3767 22.7174 15.0606 21.4579 14.3419 21.7946C13.6233 22.1313 13.7741 23.9368 14.6789 25.8272C15.5837 27.7176 16.8998 28.977 17.6185 28.6403Z" fill="#FF8B78"/>
<path d="M15.8477 23.694C15.7072 23.5897 15.5316 23.4855 15.3912 23.555C15.3209 23.5897 15.2858 23.6592 15.2156 23.6592C15.1454 23.6592 15.0751 23.6592 15.0049 23.6592C14.9698 23.6939 14.9347 23.7287 14.8995 23.7634C14.7591 24.0414 14.9347 24.3541 15.0751 24.6321C15.4965 25.327 15.8828 26.0219 16.3042 26.7168C16.4096 26.8905 16.55 27.0989 16.7607 27.0989C16.9363 27.0989 17.0768 26.96 17.147 26.7862C17.2173 26.6125 17.1821 26.4388 17.147 26.2651C17.0417 25.7439 16.9012 25.2227 16.6554 24.771C16.4096 24.4236 16.1989 24.0067 15.8477 23.694Z" fill="#FF5A27"/>
<path d="M14.6185 22.5126C14.6888 22.6516 14.759 22.7558 14.8644 22.8948C14.8644 22.9295 14.8995 22.9295 14.9346 22.9295C14.9697 22.9295 15.0048 22.9295 15.0048 22.8948C15.04 22.86 15.04 22.7906 15.0048 22.7211C14.9697 22.6863 14.9697 22.6516 14.9346 22.6168C14.9346 22.6168 14.9346 22.6168 14.9346 22.6516C14.8995 22.5821 14.8293 22.4778 14.7941 22.4084C14.759 22.3389 14.6888 22.3389 14.6537 22.3389C14.6185 22.3736 14.5834 22.4431 14.6185 22.5126Z" fill="#FFB164"/>
<path d="M15.1805 22.6169C15.2508 22.7559 15.4615 22.6516 15.3912 22.5127C15.321 22.3737 15.1103 22.4779 15.1805 22.6169Z" fill="#FFB164"/>
<path d="M15.1804 22.6168C15.2155 22.6863 15.2507 22.7906 15.2858 22.8601C15.2858 22.8948 15.3209 22.8948 15.356 22.9295C15.3911 22.9295 15.4262 22.9295 15.4614 22.9295C15.4965 22.9295 15.4965 22.8948 15.5316 22.8601C15.5316 22.8253 15.5316 22.7906 15.5316 22.7558C15.4965 22.6863 15.4614 22.5821 15.4262 22.5126C15.4262 22.4779 15.3911 22.4779 15.356 22.4431C15.3209 22.4431 15.2858 22.4431 15.2507 22.4431C15.2155 22.4431 15.2155 22.4779 15.1804 22.5126C15.1804 22.5474 15.1804 22.5821 15.1804 22.6168Z" fill="#FFB164"/>
<path d="M16.0233 23.0684C16.0233 23.0684 15.9882 23.1031 15.9882 23.1379C15.9882 23.1726 15.9531 23.1726 15.9531 23.2074C15.9531 23.2421 15.918 23.3116 15.9531 23.3463C15.9531 23.3463 15.9531 23.3811 15.9882 23.3811L16.0233 23.4158H16.0585H16.0936H16.1287C16.1638 23.4158 16.1638 23.3811 16.1638 23.3811C16.1638 23.3463 16.1989 23.3116 16.1989 23.3116C16.1989 23.3116 16.1989 23.3116 16.1989 23.2769V23.3116V23.2769V23.3116V23.2769V23.3116C16.1989 23.3116 16.1989 23.2769 16.234 23.2769C16.234 23.2769 16.234 23.2769 16.1989 23.3116L16.234 23.2769V23.2421V23.2074C16.234 23.2074 16.234 23.1726 16.1989 23.1726C16.1638 23.1379 16.1638 23.1379 16.1287 23.1379C16.0936 23.0336 16.0585 23.0336 16.0233 23.0684Z" fill="#FFB164"/>
<path d="M16.4798 23.7286C16.4447 23.7633 16.4096 23.7633 16.3745 23.7981L16.3394 23.8328V23.8676V23.9023C16.3394 23.9023 16.3394 23.9371 16.3745 23.9371C16.4096 23.9718 16.4096 23.9718 16.4447 23.9718H16.4798C16.5149 23.9718 16.5149 23.9718 16.5501 23.9371C16.5852 23.9023 16.6203 23.9023 16.6554 23.8676L16.6905 23.8328V23.7981V23.7633C16.6905 23.7633 16.6905 23.7286 16.6554 23.7286C16.6203 23.6938 16.6203 23.6938 16.5852 23.6938H16.5501C16.5149 23.6938 16.4798 23.6938 16.4798 23.7286Z" fill="#FFB164"/>
<path d="M17.0066 25.1878C17.0417 25.2225 17.1119 25.2225 17.147 25.2573H17.1821H17.2173C17.2173 25.2573 17.2524 25.2573 17.2524 25.2225L17.2875 25.1878V25.153C17.2875 25.1183 17.2875 25.1183 17.2875 25.0836C17.2875 25.0836 17.2875 25.0836 17.2875 25.0488L17.2524 25.0141C17.2173 24.9793 17.147 24.9793 17.1119 24.9446H17.0768H17.0417C17.0417 24.9446 17.0066 24.9446 17.0066 24.9793L16.9714 25.0141V25.0488C16.9714 25.0836 16.9714 25.0836 16.9714 25.1183C16.9714 25.1183 16.9714 25.1183 16.9714 25.153L17.0066 25.1878Z" fill="#FFB164"/>
<path d="M17.3226 26.1955C17.3577 26.2649 17.4279 26.2997 17.4631 26.3692C17.4982 26.4039 17.4982 26.4039 17.5333 26.4039C17.5684 26.4039 17.6035 26.4039 17.6035 26.3692C17.6386 26.3344 17.6386 26.3344 17.6386 26.2997C17.6386 26.2649 17.6386 26.2302 17.6035 26.2302C17.5684 26.1607 17.4982 26.126 17.4631 26.0565C17.4279 26.0217 17.4279 26.0217 17.3928 26.0217C17.3577 26.0217 17.3226 26.0217 17.3226 26.0565C17.2875 26.0912 17.2875 26.0912 17.2875 26.126C17.2875 26.1607 17.3226 26.1955 17.3226 26.1955Z" fill="#FFB164"/>
<path d="M17.3928 27.0641C17.4279 27.1683 17.4982 27.2726 17.5684 27.3768C17.5684 27.4116 17.6035 27.4116 17.6386 27.4116C17.6738 27.4116 17.7089 27.4116 17.7089 27.3768C17.744 27.3421 17.744 27.3421 17.744 27.3073C17.744 27.2726 17.744 27.2378 17.7089 27.2378C17.7089 27.2031 17.6738 27.2031 17.6738 27.1683C17.6738 27.1683 17.6738 27.1683 17.6738 27.2031C17.6386 27.1336 17.5684 27.0641 17.5684 26.9599C17.5333 26.8904 17.4631 26.8904 17.4279 26.8904C17.3577 26.9251 17.3577 26.9946 17.3928 27.0641Z" fill="#FFB164"/>
<path d="M17.0769 27.6895C17.112 27.7938 17.1471 27.898 17.1471 28.037C17.1471 28.0717 17.1823 28.1065 17.1823 28.1065C17.2174 28.1065 17.2525 28.1412 17.2525 28.1412C17.3227 28.1412 17.3578 28.0717 17.3578 28.0022C17.3227 27.898 17.2876 27.7938 17.2876 27.6548C17.2876 27.62 17.2525 27.5853 17.2525 27.5853C17.2174 27.5853 17.1823 27.5505 17.1823 27.5505C17.112 27.5853 17.0769 27.62 17.0769 27.6895Z" fill="#FFB164"/>
<path d="M16.4798 27.4115C16.4447 27.481 16.4447 27.5505 16.4095 27.6547V27.6895V27.7242C16.4095 27.759 16.4447 27.759 16.4798 27.7937C16.5149 27.7937 16.55 27.7937 16.5851 27.7937C16.6202 27.7937 16.6202 27.759 16.6554 27.7242C16.6905 27.6547 16.6905 27.5853 16.7256 27.481V27.4463V27.4115C16.7256 27.3768 16.6905 27.3768 16.6554 27.342C16.6202 27.342 16.5851 27.342 16.55 27.342C16.5149 27.342 16.5149 27.3768 16.4798 27.4115Z" fill="#FFB164"/>
<path d="M15.8126 26.786L15.7775 26.8207C15.7775 26.8207 15.7775 26.8207 15.8126 26.786C15.7775 26.8207 15.7775 26.8207 15.7424 26.8555C15.7424 26.8555 15.7424 26.8555 15.7775 26.8555C15.7775 26.8555 15.7775 26.8555 15.7424 26.8555C15.7424 26.8555 15.7072 26.8555 15.7072 26.8902L15.6721 26.9249V26.9597V26.9944C15.6721 27.0292 15.7072 27.0292 15.7424 27.0639C15.7775 27.0639 15.8126 27.0639 15.8477 27.0639C15.8828 27.0639 15.9179 27.0292 15.9179 26.9944C15.9531 26.9597 15.9531 26.9597 15.9882 26.9249C15.9882 26.8902 16.0233 26.8555 16.0233 26.8555C16.0233 26.8555 16.0233 26.8207 15.9882 26.8207L15.9531 26.786C15.9179 26.786 15.8828 26.7512 15.8828 26.7512H15.8477C15.8477 26.7512 15.8126 26.786 15.8126 26.786Z" fill="#FFB164"/>
<path d="M15.1102 25.7438C15.075 25.7785 15.075 25.7785 15.0399 25.7785C15.075 25.7785 15.075 25.7785 15.1102 25.7438C15.0399 25.7785 15.0048 25.8133 15.0048 25.8133C15.0048 25.8133 14.9697 25.8133 14.9697 25.848L14.9346 25.8828C14.9346 25.9175 14.9346 25.9522 14.9346 25.987C14.9346 26.0217 14.9697 26.0217 15.0048 26.0565H15.0399C15.075 26.0565 15.075 26.0565 15.1102 26.0565C15.1453 26.0565 15.1804 26.0217 15.1804 26.0217C15.2155 25.987 15.2506 25.987 15.2857 25.9522C15.3209 25.9175 15.3209 25.9175 15.3209 25.8828V25.848C15.3209 25.848 15.3209 25.8133 15.2857 25.8133C15.2506 25.7785 15.2506 25.7785 15.2155 25.7785C15.1804 25.709 15.1453 25.709 15.1102 25.7438Z" fill="#FFB164"/>
<path d="M14.7592 24.9098H14.724H14.7592C14.724 24.9098 14.724 24.9098 14.6889 24.9098C14.724 24.9098 14.724 24.9098 14.7592 24.9098C14.724 24.9098 14.6889 24.9098 14.6889 24.9098H14.724H14.6889H14.6538H14.6187C14.5836 24.9098 14.5836 24.9446 14.5485 24.9793C14.5485 25.0141 14.5485 25.0488 14.5485 25.0836C14.5485 25.0836 14.5485 25.0836 14.5485 25.1183L14.5836 25.1531C14.6187 25.1531 14.6187 25.1531 14.6538 25.1878H14.6889C14.724 25.1878 14.724 25.1878 14.7592 25.1878C14.7943 25.1878 14.7943 25.1878 14.8294 25.1531C14.8645 25.1531 14.8645 25.1183 14.8996 25.0836C14.8996 25.0488 14.8996 25.0141 14.8996 24.9793C14.8996 24.9446 14.8645 24.9446 14.8294 24.9098C14.8294 24.8751 14.7943 24.8751 14.7592 24.9098Z" fill="#FFB164"/>
<path d="M14.6889 23.8675C14.6537 23.8675 14.6186 23.8327 14.5835 23.8327H14.6186C14.5484 23.798 14.5133 23.7633 14.4782 23.7285C14.443 23.7285 14.4079 23.7285 14.3728 23.7285C14.3377 23.7285 14.3026 23.7633 14.3026 23.7633C14.3026 23.798 14.2675 23.8327 14.2675 23.8327V23.8675C14.2675 23.9022 14.3026 23.9022 14.3026 23.9022C14.3728 23.9717 14.4782 24.0412 14.5835 24.076C14.6186 24.076 14.6537 24.076 14.6889 24.076C14.724 24.076 14.724 24.0412 14.7591 24.0065C14.7591 23.9717 14.7591 23.937 14.7591 23.9022C14.7591 23.9022 14.724 23.9022 14.6889 23.8675Z" fill="#FFB164"/>
<path d="M14.2324 22.9642C14.2675 22.9642 14.3026 22.9989 14.3377 22.9989H14.3728H14.408C14.408 22.9989 14.4431 22.9989 14.4431 22.9642L14.4782 22.9294V22.8947C14.4782 22.8599 14.4782 22.8599 14.4782 22.8252C14.4782 22.8252 14.4782 22.8252 14.4782 22.7904L14.4431 22.7557C14.408 22.7557 14.3728 22.7209 14.3377 22.7209H14.3026H14.2675C14.2675 22.7209 14.2324 22.7209 14.2324 22.7557L14.1973 22.7904V22.8252C14.1973 22.8599 14.1973 22.8599 14.1973 22.8947C14.1973 22.8947 14.1973 22.8947 14.1973 22.9294C14.1973 22.9642 14.1973 22.9642 14.2324 22.9642Z" fill="#FFB164"/>
<path opacity="0.24" d="M12.5819 23.8675C12.5468 24.1455 12.5116 24.4582 12.617 24.7014C12.6521 24.8056 12.7575 24.9099 12.8277 24.8751C12.8979 24.8404 12.933 24.7362 12.933 24.6667C12.9682 24.4929 12.9682 24.2845 13.0735 24.1455C13.214 23.8675 13.6354 23.3116 13.2842 22.9989C12.8979 22.6862 12.617 23.6591 12.5819 23.8675Z" fill="white"/>
<path d="M16.4448 25.0837C16.9013 24.8057 17.6036 24.9099 17.9197 25.3269C18.306 24.771 19.1839 24.6667 19.7458 25.0142C20.3428 25.3616 20.6588 26.0565 20.6588 26.7167C21.607 26.404 22.6254 27.0989 23.1872 27.9327C23.2926 28.0717 23.3628 28.2107 23.5033 28.3149C23.6789 28.4192 23.8896 28.4539 24.1003 28.4539C25.7859 28.6624 27.2608 30.0522 27.5769 31.7199C27.6822 32.2411 27.6471 32.797 27.3662 33.214C27.1203 33.5614 26.7341 33.7699 26.3829 33.9436C25.9615 34.1521 25.5401 34.3953 25.0484 34.43C23.6789 34.5343 22.7658 33.0402 21.5367 32.4843C20.5183 32.0326 19.3244 32.2064 18.306 31.7547C17.4983 31.4072 16.7257 30.7123 16.0234 30.1912C15.4264 29.7395 15.0401 29.2878 14.8294 28.5929C14.5484 27.7243 14.6889 26.0565 16.0585 26.4735C15.8478 25.987 15.9882 25.3616 16.4448 25.0837Z" fill="#89E269"/>
<path d="M49.1387 24.2156H48.2959C48.1554 27.3079 41.5885 29.0104 29.5785 29.0104C17.9547 29.0104 11.0718 26.7867 10.8611 24.2156H10.0183C10.0183 24.2156 9.70223 28.1765 11.9497 32.9713C15.321 40.1635 19.9915 41.4838 19.9915 41.4838L29.5082 41.6575L39.025 41.4838C39.025 41.4838 43.6604 40.1982 47.0317 33.006C49.244 28.1765 49.1387 24.2156 49.1387 24.2156Z" fill="#EDCEB9"/>
<path d="M39.1655 43.0473V41.3796L29.5786 40.1982L19.9916 41.4838V43.0473C19.9916 43.0473 19.9214 43.8117 22.8361 44.7846C26.8043 46.1396 33.301 45.6879 36.3913 44.7846C39.306 43.9159 39.1655 43.0473 39.1655 43.0473Z" fill="#EDCEB9"/>
<path d="M36.3562 44.7844C39.306 43.9158 39.2006 43.0472 39.2006 43.0472V41.3794L34.811 40.8235C34.811 40.8235 34.811 40.8235 34.7759 40.8235C34.2842 41.1362 33.7926 41.3794 33.7575 42.0048C33.7224 42.665 34.0735 43.4641 33.7926 44.0895C33.617 44.4717 33.1605 44.6107 32.7391 44.7149C29.5083 45.4446 26.2073 44.9929 23.0468 44.2285C22.0635 43.9853 21.0451 43.7073 20.2374 43.1514C20.1672 43.1166 20.097 43.0472 19.9916 43.0124C19.9916 43.0124 19.9214 43.7768 22.8361 44.7497C26.7692 46.1394 33.2659 45.6878 36.3562 44.7844Z" fill="#EABFAC"/>
<path opacity="0.38" d="M14.7239 30.3307C14.5132 30.8519 14.6888 31.4425 14.8995 31.9984C15.4614 33.4577 16.2339 34.8128 17.1119 36.1331C17.744 37.0712 18.5165 38.0441 19.6403 38.2525C20.0266 38.322 20.448 38.2873 20.7992 38.1135C21.1503 37.9398 21.3961 37.5576 21.4313 37.1754C21.4313 36.7585 21.2206 36.411 21.0099 36.0636C20.4831 35.2297 20.0617 34.3264 19.8159 33.3882C19.6754 32.7628 19.6052 32.0679 19.2891 31.512C18.6921 30.4697 15.356 28.6282 14.7239 30.3307Z" fill="white"/>
<path opacity="0.38" d="M21.4664 42.1089C21.3611 42.1089 21.2908 42.1089 21.1855 42.1784C21.0099 42.2827 21.0099 42.5259 21.0801 42.6996C21.1855 42.8733 21.3611 42.9776 21.5015 43.0471C22.2039 43.3945 22.9765 43.603 23.7841 43.742C24.1002 43.8114 24.4163 43.8462 24.6972 43.7072C24.9781 43.603 25.1888 43.2555 25.0484 42.9776C24.9079 42.7344 24.5567 42.6649 24.2758 42.6649C23.3627 42.5606 22.3795 42.0742 21.4664 42.1089Z" fill="white"/>
<path d="M49.1036 24.2156H48.2608C48.1906 25.9528 46.0836 27.2384 42.1505 28.0723C41.9398 29.4968 41.4832 31.1645 40.5702 32.9365C37.7959 38.1135 35.1973 39.5728 32.0367 40.6151C28.1036 41.9354 23.5033 41.6227 23.5033 41.6227C23.5033 41.6227 28.1387 42.6651 31.826 42.6651C35.5133 42.6651 38.9548 41.4838 38.9548 41.4838C38.9548 41.4838 43.5903 40.1982 46.9615 33.006C49.209 28.1765 49.1036 24.2156 49.1036 24.2156Z" fill="#EABFAC"/>
<path d="M49.1393 23.9375H48.2965C48.2965 24.0417 48.2965 24.1112 48.2965 24.2155C48.1912 27.3425 41.6243 29.045 29.5791 29.045C17.9203 29.045 11.0373 26.7866 10.8617 24.2155C10.8617 24.1112 10.8968 24.0417 10.8968 23.9375H10.054C10.054 24.0417 10.0189 24.146 10.0189 24.2502C10.1945 27.0993 17.3935 29.6357 29.5791 29.6357C42.1861 29.6357 49.034 27.7247 49.1393 24.2155C49.1393 24.1112 49.1393 24.007 49.1393 23.9375Z" fill="#FFDFCA"/>
<path d="M13.53 20.7409L13.3544 22.0959C13.3544 22.0959 13.8811 24.1111 16.7958 24.8408C20.0617 25.6399 22.555 24.9103 22.7306 22.9298C22.7657 22.6171 22.4146 21.7137 22.4146 21.7137L13.4948 20.6714L13.53 20.7409Z" fill="#59B24F"/>
<path d="M22.4551 22.2958C22.6997 21.0527 20.9071 19.6614 18.4512 19.1883C15.9954 18.7153 13.8062 19.3396 13.5616 20.5828C13.317 21.8259 15.1095 23.2172 17.5654 23.6903C20.0213 24.1633 22.2104 23.539 22.4551 22.2958Z" fill="#84D17D"/>
<path d="M22.1688 22.0959C22.0985 23.0687 20.2373 23.7289 17.9547 23.3814C15.6721 23.034 13.7758 21.7137 13.8109 20.7408C13.8811 19.768 15.9179 19.0383 18.2005 19.3858C20.448 19.7332 22.2039 21.123 22.1688 22.0959Z" fill="#B0EDA9"/>
<path d="M15.4614 20.741C15.3912 20.6715 15.3209 20.602 15.3209 20.4978C15.3209 20.324 15.5316 20.2893 15.6721 20.2893C15.9881 20.324 16.3393 20.3935 16.6203 20.5325C16.5149 20.3935 16.4447 20.2545 16.4096 20.1156C16.4096 20.0808 16.3744 20.0461 16.4096 20.0113C16.4447 19.9418 16.55 19.9766 16.6203 20.0113C16.9714 20.1851 17.2875 20.4283 17.5684 20.7062C17.4631 20.5672 17.4279 20.3935 17.4279 20.2545C17.4279 20.0808 17.4982 19.9418 17.6386 19.8724C17.8142 19.8029 18.0601 19.9071 18.2005 20.0808C18.341 20.2545 18.3761 20.463 18.4112 20.6715C18.6922 20.463 19.0784 20.3935 19.4296 20.4978C19.4999 20.5325 19.6052 20.5672 19.6403 20.6367C19.7106 20.7757 19.5701 20.88 19.4647 20.9494C19.8861 20.88 20.3778 21.0537 20.6938 21.4011C20.7289 21.4359 20.7641 21.5054 20.7641 21.5401C20.7641 21.5748 20.7289 21.6096 20.7289 21.6096C20.5534 21.7833 20.3427 21.8528 20.0968 21.8876C19.851 21.9223 19.6052 21.8528 19.3594 21.8181C19.6052 21.9223 19.8159 22.0613 20.0266 22.235C20.0617 22.2697 20.0617 22.2697 20.0968 22.3045C20.0968 22.3392 20.0968 22.3392 20.0617 22.374C19.8861 22.6172 19.535 22.6519 19.254 22.513C18.9731 22.4087 18.7273 22.1655 18.5166 21.957C18.6219 22.1308 18.6922 22.3045 18.657 22.513C18.6219 22.6867 18.4112 22.8257 18.2356 22.7562C18.1654 22.7214 18.0952 22.6519 18.0249 22.5824C17.8494 22.374 17.744 22.1308 17.6738 21.8876C17.6386 22.2003 17.3577 22.4435 17.0417 22.4087C16.9714 22.4087 16.8661 22.374 16.831 22.3045C16.7607 22.235 16.7607 22.096 16.831 22.0265C16.8661 21.957 16.9363 21.8876 17.0417 21.8181C16.7958 21.9223 16.5149 22.0265 16.3042 21.8528C16.234 21.7833 16.1988 21.7138 16.234 21.6443C16.2691 21.6096 16.3042 21.5748 16.3393 21.5401C16.4447 21.4706 16.7607 21.4359 16.7958 21.3316C16.234 21.2274 15.8477 21.0537 15.4614 20.741Z" fill="#C1FFB8"/>
<path d="M28.9466 25.466C29.5084 25.2228 30.2108 25.2228 30.7375 25.5007C30.8429 25.5702 31.0185 25.6397 31.0887 25.5355C31.1238 25.5007 31.1238 25.4312 31.1238 25.3617C31.0185 24.7016 30.4215 24.1804 29.7191 24.1457C29.2275 24.1109 28.7359 24.3541 28.2793 24.5973C27.9633 24.7711 27.6472 24.9795 27.3663 25.188C26.98 25.466 26.5937 25.7787 26.4181 26.2304C26.2777 26.5431 26.2074 27.238 26.664 27.3422C27.1205 27.4464 27.3312 26.7863 27.577 26.5083C27.9633 26.0566 28.4198 25.6744 28.9466 25.466Z" fill="#0A0B0C"/>
<path d="M30.2459 24.0762C29.5084 23.972 28.771 24.1805 28.1038 24.5279C27.4717 24.8754 26.9098 25.3618 26.3479 25.8482C25.7509 26.3694 25.786 27.377 26.1372 28.0024C26.4533 28.5931 27.1205 28.9753 27.7877 29.0448C28.4549 29.1142 29.087 28.8363 29.684 28.5583C30.3161 28.2456 30.9482 27.8982 31.3696 27.3423C31.8262 26.7863 32.0369 26.0567 31.8262 25.3965C31.6506 24.6669 30.9834 24.1805 30.2459 24.0762ZM30.4917 25.9872C30.3161 26.3347 29.965 26.6126 29.6138 26.8211C29.2626 27.0296 28.9115 27.1685 28.5603 27.3075C28.2442 27.4117 27.9282 27.516 27.6121 27.4812C27.2961 27.4465 26.9449 27.3075 26.8044 27.0296C26.1372 25.9525 27.8579 25.1186 28.5954 24.8059C29.0168 24.6322 29.4733 24.5627 29.8947 24.6669C30.0703 24.7016 30.2108 24.7711 30.3513 24.8754C30.6673 25.1533 30.7024 25.6398 30.4917 25.9872Z" fill="#36383F"/>
<path d="M20.2726 18.4479C20.8345 18.2047 21.5368 18.2047 22.0636 18.4826C22.1689 18.5521 22.3445 18.6216 22.4148 18.5174C22.4499 18.4826 22.4499 18.4132 22.4499 18.3437C22.3445 17.6835 21.7475 17.1623 21.0452 17.1276C20.5536 17.0929 20.0619 17.3361 19.6054 17.5793C19.2893 17.753 18.9733 17.9615 18.6923 18.1699C18.3061 18.4479 17.9198 18.7606 17.7442 19.2123C17.6037 19.525 17.5335 20.2199 17.99 20.3241C18.4465 20.4284 18.6572 19.7682 18.903 19.4902C19.2893 19.0386 19.7459 18.6564 20.2726 18.4479Z" fill="#0A0B0C"/>
<path d="M21.5719 17.0233C20.8345 16.919 20.097 17.1275 19.4298 17.4749C18.7977 17.8224 18.2358 18.3088 17.674 18.7952C17.077 19.3164 17.1121 20.324 17.4633 20.9494C17.7793 21.5401 18.4465 21.9223 19.1138 21.9918C19.781 22.0613 20.4131 21.7833 21.0101 21.5053C21.6422 21.1926 22.2743 20.8452 22.6957 20.2893C23.1522 19.7334 23.3629 19.0037 23.1522 18.3436C22.9766 17.6139 22.3094 17.1275 21.5719 17.0233ZM21.8178 18.969C21.6422 19.3164 21.291 19.5596 20.9398 19.7681C20.5887 19.9766 20.2375 20.1156 19.8863 20.2545C19.5703 20.3588 19.2542 20.463 18.9382 20.4283C18.6221 20.3935 18.2709 20.2545 18.1305 19.9766C17.4633 18.8995 19.184 18.0656 19.9214 17.7529C20.3428 17.5792 20.7994 17.5097 21.2208 17.6139C21.3964 17.6487 21.5368 17.7182 21.6773 17.8224C21.9933 18.1004 22.0285 18.5868 21.8178 18.969Z" fill="#36383F"/>
<path d="M45.2408 20.6013C45.6973 21.0182 46.0134 21.6089 46.0134 22.1996C46.0134 22.3385 46.0134 22.5123 46.1538 22.547C46.2241 22.547 46.2943 22.5123 46.3294 22.4775C46.8913 22.0953 47.102 21.2962 46.8211 20.7055C46.6104 20.2539 46.189 19.9064 45.7675 19.6285C45.4515 19.42 45.1354 19.2463 44.8194 19.0725C44.398 18.8641 43.9415 18.6556 43.4498 18.6903C43.0987 18.7251 42.4314 18.9683 42.5368 19.42C42.6421 19.8717 43.3445 19.7674 43.6956 19.8717C44.2926 19.9759 44.8194 20.2191 45.2408 20.6013Z" fill="#0A0B0C"/>
<path d="M47.1019 21.1227C46.8912 20.4278 46.3645 19.8371 45.7675 19.4202C45.1705 19.0033 44.4681 18.7253 43.8009 18.4473C43.0986 18.1694 42.1504 18.6211 41.7641 19.2117C41.3778 19.7676 41.3076 20.4973 41.5534 21.1227C41.7992 21.7481 42.326 22.1998 42.8528 22.6167C43.4146 23.0337 44.0116 23.4159 44.714 23.5896C45.3812 23.7286 46.1889 23.6243 46.6805 23.1726C47.1722 22.6515 47.3126 21.8523 47.1019 21.1227ZM45.4514 22.1998C45.03 22.1998 44.6437 21.9913 44.3277 21.7828C44.0116 21.5744 43.6956 21.3312 43.4146 21.0532C43.1688 20.8447 42.9581 20.6015 42.8528 20.2888C42.7474 19.9761 42.7123 19.6287 42.8879 19.3507C43.5902 18.3084 45.1003 19.4202 45.6972 19.9761C46.0484 20.2888 46.2942 20.6363 46.3996 21.0879C46.4347 21.2617 46.4347 21.4354 46.3996 21.5744C46.2942 21.9913 45.8728 22.2345 45.4514 22.1998Z" fill="#36383F"/>
<path d="M31.7207 23.1034C31.7207 23.1034 33.1956 26.7169 37.4448 25.6745C41.694 24.6322 43.4147 22.0263 43.801 21.5746C44.6087 20.6018 44.5736 19.1772 44.5736 19.1772L31.7207 23.1034Z" fill="#FFECD7"/>
<path d="M33.652 22.5128C33.6169 22.5128 34.7407 24.9797 36.7423 24.5975C40.7106 23.8332 40.0785 20.5671 40.0785 20.5671L33.652 22.5128Z" fill="#FFDC31"/>
<path opacity="0.52" d="M42.5368 21.0186C42.291 21.8525 41.4482 22.3389 40.8512 22.9296C40.7459 23.0338 40.6054 23.2075 40.6756 23.3465C40.7108 23.4508 40.8512 23.5202 40.9917 23.4855C41.097 23.4855 41.2024 23.416 41.3078 23.3465C41.7994 22.9991 42.2208 22.5821 42.6071 22.1305C43.0285 21.644 43.485 21.1229 43.5552 20.4627C43.5552 20.3932 43.5552 20.3237 43.5552 20.2542C43.4499 19.9763 43.0636 20.1153 42.888 20.2542C42.6773 20.4627 42.6071 20.7407 42.5368 21.0186Z" fill="white"/>
</g>
<defs>
<linearGradient id="paint0_linear_260_7217" x1="60" y1="60" x2="-19.9676" y2="53.812" gradientUnits="userSpaceOnUse">
<stop stop-color="#C58BF2"/>
<stop offset="1" stop-color="#EEA4CE"/>
</linearGradient>
<clipPath id="clip0_260_7217">
<rect width="42" height="32" fill="white" transform="translate(9 14)"/>
</clipPath>
</defs>
</svg>
