<svg width="104" height="102" viewBox="0 0 104 102" fill="none" xmlns="http://www.w3.org/2000/svg">
<g filter="url(#filter0_d_216_6326)">
<circle cx="52" cy="42" r="30" fill="url(#paint0_linear_216_6326)"/>
</g>
<path fill-rule="evenodd" clip-rule="evenodd" d="M44.54 32H47.92C49.33 32 50.46 33.15 50.46 34.561V37.97C50.46 39.39 49.33 40.53 47.92 40.53H44.54C43.14 40.53 42 39.39 42 37.97V34.561C42 33.15 43.14 32 44.54 32ZM44.54 43.4697H47.92C49.33 43.4697 50.46 44.6107 50.46 46.0307V49.4397C50.46 50.8497 49.33 51.9997 47.92 51.9997H44.54C43.14 51.9997 42 50.8497 42 49.4397V46.0307C42 44.6107 43.14 43.4697 44.54 43.4697ZM59.4601 32H56.0801C54.6701 32 53.5401 33.15 53.5401 34.561V37.97C53.5401 39.39 54.6701 40.53 56.0801 40.53H59.4601C60.8601 40.53 62.0001 39.39 62.0001 37.97V34.561C62.0001 33.15 60.8601 32 59.4601 32ZM56.0801 43.4697H59.4601C60.8601 43.4697 62.0001 44.6107 62.0001 46.0307V49.4397C62.0001 50.8497 60.8601 51.9997 59.4601 51.9997H56.0801C54.6701 51.9997 53.5401 50.8497 53.5401 49.4397V46.0307C53.5401 44.6107 54.6701 43.4697 56.0801 43.4697Z" fill="white"/>
<defs>
<filter id="filter0_d_216_6326" x="0" y="0" width="104" height="104" filterUnits="userSpaceOnUse" color-interpolation-filters="sRGB">
<feFlood flood-opacity="0" result="BackgroundImageFix"/>
<feColorMatrix in="SourceAlpha" type="matrix" values="0 0 0 0 0 0 0 0 0 0 0 0 0 0 0 0 0 0 127 0" result="hardAlpha"/>
<feOffset dy="10"/>
<feGaussianBlur stdDeviation="11"/>
<feColorMatrix type="matrix" values="0 0 0 0 0.584314 0 0 0 0 0.678431 0 0 0 0 0.996078 0 0 0 0.3 0"/>
<feBlend mode="normal" in2="BackgroundImageFix" result="effect1_dropShadow_216_6326"/>
<feBlend mode="normal" in="SourceGraphic" in2="effect1_dropShadow_216_6326" result="shape"/>
</filter>
<linearGradient id="paint0_linear_216_6326" x1="82" y1="41.6703" x2="22" y2="41.6703" gradientUnits="userSpaceOnUse">
<stop stop-color="#C66720"/>
<stop offset="1" stop-color="#F0A508"/>
</linearGradient>
</defs>
</svg>
