<svg width="16" height="14" viewBox="0 0 16 14" fill="none" xmlns="http://www.w3.org/2000/svg">
  <path
    d="M6.32021 8.77476C5.88896 8.34427 5.62646 7.75927 5.62646 7.10302C5.62646 5.78827 6.68547 4.72852 7.99947 4.72852C8.64972 4.72852 9.24822 4.99177 9.67197 5.42227"
    stroke="#ADA4A5" stroke-width="1.2" stroke-linecap="round" stroke-linejoin="round" />
  <path d="M10.3285 7.52393C10.1545 8.49143 9.39253 9.25493 8.42578 9.43043" stroke="#ADA4A5" stroke-width="1.2"
    stroke-linecap="round" stroke-linejoin="round" />
  <path
    d="M3.99076 11.104C2.80051 10.1695 1.79251 8.80449 1.06201 7.10274C1.80001 5.39349 2.81476 4.02099 4.01251 3.07899C5.20276 2.13699 6.57601 1.62549 7.99951 1.62549C9.43126 1.62549 10.8038 2.14449 12.0015 3.09324"
    stroke="#ADA4A5" stroke-width="1.2" stroke-linecap="round" stroke-linejoin="round" />
  <path
    d="M13.5856 4.74268C14.1016 5.42818 14.5553 6.21943 14.9371 7.10218C13.4618 10.5199 10.8548 12.5787 7.99959 12.5787C7.35234 12.5787 6.71409 12.4737 6.10059 12.2689"
    stroke="#ADA4A5" stroke-width="1.2" stroke-linecap="round" stroke-linejoin="round" />
</svg>
