<svg width="16" height="16" viewBox="0 0 16 16" fill="none" xmlns="http://www.w3.org/2000/svg">
  <path fill-rule="evenodd" clip-rule="evenodd"
    d="M6.19351 10.4053C8.96026 10.4053 11.325 10.8245 11.325 12.4993C11.325 14.174 8.97601 14.6053 6.19351 14.6053C3.42601 14.6053 1.06201 14.1898 1.06201 12.5143C1.06201 10.8388 3.41026 10.4053 6.19351 10.4053Z"
    stroke="#7B6F72" stroke-width="1.2" stroke-linecap="round" stroke-linejoin="round" />
  <path fill-rule="evenodd" clip-rule="evenodd"
    d="M6.19331 8.015C4.37681 8.015 2.90381 6.54275 2.90381 4.72625C2.90381 2.90975 4.37681 1.4375 6.19331 1.4375C8.00906 1.4375 9.48206 2.90975 9.48206 4.72625C9.48881 6.536 8.02631 8.00825 6.21656 8.015H6.19331Z"
    stroke="#7B6F72" stroke-width="1.2" stroke-linecap="round" stroke-linejoin="round" />
  <path d="M11.3623 7.16145C12.5631 6.9927 13.4878 5.9622 13.4901 4.71495C13.4901 3.4857 12.5938 2.4657 11.4186 2.27295"
    stroke="#7B6F72" stroke-width="1.2" stroke-linecap="round" stroke-linejoin="round" />
  <path
    d="M12.9463 10.0493C14.1095 10.2226 14.9218 10.6306 14.9218 11.4706C14.9218 12.0488 14.5393 12.4238 13.9213 12.6586"
    stroke="#7B6F72" stroke-width="1.2" stroke-linecap="round" stroke-linejoin="round" />
</svg>
